<svg width="12" height="7" viewBox="0 0 12 7" fill="none" xmlns="http://www.w3.org/2000/svg">
<path d="M5.95819 7.00021C5.8157 7.00021 5.6821 6.97794 5.55742 6.93341C5.43273 6.88888 5.31695 6.81318 5.21008 6.70631L0.293902 1.79013C0.0979673 1.5942 0 1.34482 0 1.04202C0 0.739208 0.0979673 0.489836 0.293902 0.293902C0.489836 0.0979673 0.739208 0 1.04202 0C1.34482 0 1.5942 0.0979673 1.79013 0.293902L5.95819 4.46197L10.1263 0.293902C10.3222 0.0979673 10.5716 0 10.8744 0C11.1772 0 11.4265 0.0979673 11.6225 0.293902C11.8184 0.489836 11.9164 0.739208 11.9164 1.04202C11.9164 1.34482 11.8184 1.5942 11.6225 1.79013L6.70631 6.70631C6.59943 6.81318 6.48365 6.88888 6.35897 6.93341C6.23428 6.97794 6.10069 7.00021 5.95819 7.00021Z" fill="#332C21"/>
</svg>
