<svg width="200" height="59" viewBox="0 0 200 59" fill="none" xmlns="http://www.w3.org/2000/svg">
<path d="M25.4205 14.4369H14.3303L24.1338 0H35.6674L25.4205 14.4369ZM23.8938 19.547L35.1007 44.1009H23.6938L16.9703 28.3639H9.38685V44.1009H0V0H9.38685V19.547H23.8938Z" fill="#309F50"/>
<path d="M41.5974 19.0269H36.114V10.8967H50.7343V44.104H41.5974V19.0269Z" fill="#309F50"/>
<path d="M57.7248 10.8974H66.9249V13.9841H67.6183C69.2583 11.904 71.9684 10.0773 76.5685 10.0773C85.1386 10.0773 92.0721 17.5742 92.0721 27.531C92.0721 37.4879 85.6453 44.9247 77.0751 44.9247C71.9717 44.9247 69.0083 42.7213 67.625 40.7046H66.9316V58.5983H57.7314V10.8974H57.7281H57.7248ZM82.7419 27.471C82.7419 22.3009 79.1485 18.8409 74.7384 18.8409C69.9517 18.8409 66.7983 22.8109 66.7983 27.471C66.7983 33.0178 70.4517 36.2279 74.8018 36.2279C79.1518 36.2279 82.7419 32.6978 82.7419 27.471Z" fill="#309F50"/>
<path d="M95.2187 27.531C95.2187 17.1341 102.905 10.0773 112.169 10.0773C122.376 10.0773 128.743 17.6375 128.743 27.471V29.8044H104.672C104.736 34.1545 107.952 36.7979 112.296 36.7979C115.319 36.7979 118.216 35.6012 119.479 32.8278L127.673 34.7178C125.276 42.1546 118.852 44.9247 112.426 44.9247C102.279 44.9247 95.2253 37.5512 95.2253 27.531H95.222H95.2187ZM119.479 23.6876C119.039 20.3475 116.076 17.7042 112.169 17.7042C107.882 17.7042 105.176 20.7276 104.732 23.6876H119.479Z" fill="#309F50"/>
<path d="M131.889 34.1478L139.956 32.6978C140.333 35.7845 143.106 37.1712 146.26 37.1712C149.033 37.1712 150.416 36.1012 150.416 34.5245C150.416 29.041 133.023 33.6411 133.023 20.4109C133.023 14.6774 138.316 10.0773 145.69 10.0773C152.62 10.0773 157.473 13.2274 158.92 19.2142L150.98 21.3542C150.286 19.0209 148.27 17.6375 145.816 17.6375C143.613 17.6375 142.099 18.5842 142.099 20.0342C142.099 25.2043 159.68 20.9176 159.68 33.6478C159.68 40.3246 154.45 44.928 145.816 44.928C138.756 44.928 132.836 41.5246 131.889 34.1511V34.1478Z" fill="#309F50"/>
<path d="M162.826 27.471C162.826 17.4508 169.567 10.0773 178.073 10.0773C182.297 10.0773 185.32 11.7174 187.274 13.9841H187.967V10.8974H197.167V35.0312C197.167 35.9145 197.797 36.4179 198.68 36.4179H200V44.1047H191.684C189.544 44.1047 188.03 42.4646 188.03 40.5746H187.337C185.574 43.0947 182.927 44.9247 178.137 44.9247C169.63 44.9247 162.826 37.4279 162.826 27.471ZM188.094 27.5344C188.094 22.0509 184.44 18.9642 180.09 18.9642C175.74 18.9642 172.15 22.3042 172.15 27.5344C172.15 32.7645 175.743 36.1045 180.153 36.1045C184.94 36.1045 188.094 32.1978 188.094 27.5344Z" fill="#309F50"/>
</svg>
