<svg width="13" height="13" viewBox="0 0 13 13" fill="none" xmlns="http://www.w3.org/2000/svg">
<path d="M5.57115 7.42819H0.928524C0.665442 7.42819 0.444918 7.33921 0.266951 7.16124C0.0889836 6.98328 0 6.76275 0 6.49967C0 6.23659 0.0889836 6.01606 0.266951 5.8381C0.444918 5.66013 0.665442 5.57115 0.928524 5.57115H5.57115V0.928524C5.57115 0.665442 5.66013 0.444918 5.8381 0.266951C6.01606 0.0889836 6.23659 0 6.49967 0C6.76275 0 6.98328 0.0889836 7.16124 0.266951C7.33921 0.444918 7.42819 0.665442 7.42819 0.928524V5.57115H12.0708C12.3339 5.57115 12.5544 5.66013 12.7324 5.8381C12.9104 6.01606 12.9993 6.23659 12.9993 6.49967C12.9993 6.76275 12.9104 6.98328 12.7324 7.16124C12.5544 7.33921 12.3339 7.42819 12.0708 7.42819H7.42819V12.0708C7.42819 12.3339 7.33921 12.5544 7.16124 12.7324C6.98328 12.9104 6.76275 12.9993 6.49967 12.9993C6.23659 12.9993 6.01606 12.9104 5.8381 12.7324C5.66013 12.5544 5.57115 12.3339 5.57115 12.0708V7.42819Z" fill="white"/>
</svg>
