<svg width="8" height="14" viewBox="0 0 8 14" fill="none" xmlns="http://www.w3.org/2000/svg">
<path d="M2.08612 7.00476L7.71292 12.4311C7.90431 12.6157 7.99681 12.8311 7.99043 13.0771C7.98405 13.3232 7.88517 13.5386 7.69378 13.7231C7.50239 13.9077 7.27911 14 7.02392 14C6.76874 14 6.54545 13.9077 6.35407 13.7231L0.45933 8.05682C0.30622 7.90916 0.191388 7.74305 0.114833 7.55848C0.0382775 7.37391 0 7.18933 0 7.00476C0 6.82019 0.0382775 6.63562 0.114833 6.45105C0.191388 6.26648 0.30622 6.10037 0.45933 5.95271L6.35407 0.267926C6.54545 0.0833546 6.77193 -0.00585467 7.03349 0.000297695C7.29506 0.00645006 7.52153 0.101812 7.71292 0.286383C7.90431 0.470954 8 0.686286 8 0.932381C8 1.17848 7.90431 1.39381 7.71292 1.57838L2.08612 7.00476Z" fill="#309F50"/>
</svg>
