<svg width="36" height="36" viewBox="0 0 36 36" fill="none" xmlns="http://www.w3.org/2000/svg">
<path d="M17.8553 1.19922C17.9429 1.19922 18.0305 1.19922 18.1172 1.19922C21.8399 2.5919 25.5635 3.98372 29.2863 5.37639C31.0146 6.02288 32.7427 6.67013 34.4727 7.31484C34.6558 7.38317 34.8021 7.44971 34.7995 7.69496C34.7898 8.74345 34.7916 9.79277 34.7977 10.8412C34.7986 11.0549 34.7083 11.1294 34.5033 11.1268C34.0558 11.1198 33.6073 11.1399 33.1597 11.1206C32.861 11.1084 32.755 11.2108 32.7594 11.5148C32.7734 12.5527 32.7655 13.5907 32.7638 14.6286C32.7638 15.056 32.7611 15.057 32.3223 15.0587C31.9509 15.0604 31.5787 15.0762 31.2081 15.0544C30.8919 15.0359 30.7868 15.1472 30.7911 15.466C30.8069 16.5145 30.7973 17.5638 30.7973 18.6123C30.7973 21.8785 30.7973 25.1456 30.7973 28.4119C30.7973 28.8306 30.8078 28.8402 31.216 28.842C31.5987 28.8437 31.9816 28.8604 32.3626 28.8367C32.6832 28.8175 32.7734 28.9392 32.769 29.2493C32.7533 30.3092 32.7682 31.369 32.7603 32.4288C32.7585 32.6793 32.8426 32.7862 33.1019 32.7791C33.5495 32.7669 33.9979 32.7888 34.4456 32.7721C34.7206 32.7617 34.8091 32.8703 34.7995 33.1356C34.7837 33.5719 34.7828 34.0098 34.7995 34.446C34.8099 34.7246 34.6952 34.8227 34.4333 34.7946C34.3685 34.7876 34.3019 34.7946 34.2371 34.7946C23.3772 34.7946 12.5165 34.7946 1.65656 34.7938C1.50414 34.7938 1.35173 34.778 1.2002 34.7692C1.2002 34.1132 1.2002 33.458 1.2002 32.802C1.73364 32.7459 2.26884 32.7731 2.80229 32.7835C3.12288 32.7897 3.21748 32.6775 3.2131 32.3649C3.19734 31.3497 3.20697 30.3345 3.20785 29.3194C3.20785 28.8446 3.2096 28.8446 3.66859 28.8429C4.0286 28.842 4.38948 28.8429 4.7495 28.8429C5.16555 28.8411 5.17348 28.8341 5.17432 28.4189C5.17516 26.6399 5.17432 24.8601 5.17432 23.0811C5.17432 20.5374 5.16994 17.9939 5.17955 15.4511C5.18048 15.1498 5.08323 15.0386 4.7819 15.0552C4.42278 15.0753 4.06188 15.0604 3.70188 15.0596C3.3731 15.059 3.20843 14.889 3.20785 14.5498C3.20785 13.5241 3.20259 12.4975 3.21047 11.4719C3.21223 11.2204 3.12551 11.1198 2.86799 11.1224C2.31177 11.1276 1.75641 11.1092 1.2002 11.1004V7.42868C3.57224 6.54311 5.94516 5.65846 8.31722 4.77117C11.4977 3.58081 14.6765 2.38957 17.8553 1.19922ZM17.9963 9.10693C22.7605 9.10693 27.5239 9.10777 32.2882 9.10254C32.4449 9.10254 32.7025 9.20853 32.7383 8.97991C32.7725 8.76616 32.5001 8.7627 32.3503 8.70578C27.6965 6.96267 23.0408 5.22666 18.3869 3.48271C18.1137 3.38022 17.8719 3.37847 17.5978 3.48096C12.9342 5.22844 8.26906 6.9679 3.60552 8.71625C3.461 8.77055 3.18595 8.76354 3.23851 8.99917C3.2823 9.19628 3.52143 9.10431 3.6721 9.10431C8.44687 9.10861 13.2216 9.10777 17.9963 9.10777V9.10693ZM15.0102 21.9504C15.0102 19.7886 15.005 17.6269 15.0164 15.4651C15.0181 15.1463 14.9148 15.0482 14.6003 15.0534C13.5746 15.0692 12.548 15.0684 11.5214 15.0534C11.2218 15.049 11.122 15.1463 11.1228 15.4485C11.1308 19.7834 11.1308 24.1173 11.1228 28.4522C11.1228 28.7552 11.2235 28.8516 11.5223 28.8472C12.5375 28.8332 13.5527 28.8429 14.5688 28.842C15.0024 28.842 15.0111 28.8332 15.0111 28.4031C15.0111 26.2519 15.0111 24.1015 15.0111 21.9504H15.0102ZM24.8453 21.9468C24.8453 19.7956 24.8453 17.6453 24.8453 15.494C24.8453 15.0666 24.8374 15.0587 24.3995 15.0587C23.3842 15.0587 22.3682 15.0674 21.3529 15.0534C21.0498 15.049 20.957 15.1524 20.9579 15.452C20.9649 19.7868 20.9657 24.1208 20.9579 28.4557C20.9579 28.7622 21.0648 28.8516 21.3599 28.8472C22.3752 28.8332 23.3904 28.8429 24.4065 28.842C24.8374 28.842 24.8453 28.8332 24.8462 28.3997C24.8462 26.2484 24.8462 24.0981 24.8462 21.9468H24.8453ZM17.9866 11.125C15.0488 11.125 12.1108 11.125 9.173 11.125C7.98263 11.125 6.79216 11.132 5.60179 11.1206C5.31619 11.118 5.20848 11.216 5.22248 11.5017C5.24003 11.8397 5.22603 12.1787 5.22687 12.5168C5.22687 12.866 5.40094 13.0409 5.74898 13.0415C13.9074 13.0415 22.0668 13.0415 30.2253 13.0415C30.3015 13.0415 30.3786 13.0371 30.4548 13.0415C30.6632 13.052 30.7517 12.9548 30.7491 12.7472C30.743 12.3653 30.7491 11.9826 30.7483 11.6007C30.7483 11.2847 30.5908 11.1264 30.2761 11.1259C26.1802 11.1259 22.0843 11.1259 17.9893 11.1259L17.9866 11.125ZM17.985 30.86C13.9224 30.86 9.85881 30.86 5.7962 30.86C5.69811 30.86 5.59918 30.8636 5.50108 30.86C5.30751 30.854 5.22426 30.9486 5.22603 31.1395C5.22948 31.5108 5.22603 31.8823 5.22603 32.2536C5.22603 32.6017 5.40066 32.7757 5.74982 32.7757C13.9084 32.7757 22.0677 32.7757 30.2262 32.7757C30.3024 32.7757 30.3794 32.7713 30.4557 32.7757C30.6659 32.7862 30.7509 32.6863 30.7483 32.4796C30.743 32.0977 30.7483 31.715 30.7473 31.3331C30.7473 31.0183 30.5894 30.8606 30.2735 30.86C26.1776 30.86 22.0817 30.86 17.9866 30.86H17.985ZM9.10906 21.9468C9.10906 19.7965 9.10906 17.6453 9.10906 15.4949C9.10906 15.0666 9.10113 15.0604 8.66405 15.0587C8.33645 15.0587 8.00885 15.0587 7.68125 15.0587C7.35655 15.0587 7.19396 15.2228 7.1934 15.5509C7.1934 19.8193 7.1934 24.0884 7.1934 28.3567C7.1934 28.4224 7.19685 28.4881 7.1934 28.553C7.18285 28.764 7.28711 28.8455 7.49123 28.8429C7.88444 28.8376 8.2769 28.8429 8.67021 28.8411C9.10029 28.8402 9.10813 28.8323 9.10906 28.3979C9.10906 26.2476 9.10906 24.0963 9.10906 21.946V21.9468ZM17.0284 21.9486C17.0284 24.1103 17.0337 26.2721 17.0223 28.433C17.0205 28.7482 17.1169 28.8674 17.4357 28.8472C17.773 28.8253 18.112 28.8429 18.451 28.842C18.7791 28.842 18.9435 28.6799 18.944 28.3558C18.944 24.0875 18.944 19.8183 18.944 15.5501C18.944 15.4844 18.9406 15.4187 18.944 15.3539C18.9554 15.1472 18.8609 15.0552 18.6515 15.0578C18.2582 15.064 17.8658 15.0578 17.4725 15.0587C17.0372 15.0596 17.0284 15.0674 17.0284 15.4958C17.0284 17.6461 17.0284 19.7974 17.0284 21.9477V21.9486ZM26.8635 21.9547C26.8635 24.1051 26.8635 26.2563 26.8635 28.4066C26.8635 28.8341 26.8713 28.8411 27.3093 28.842C27.6474 28.842 27.9864 28.842 28.3245 28.842C28.7774 28.8411 28.7791 28.8402 28.7791 28.3821C28.7791 26.0566 28.7791 23.731 28.7791 21.4064C28.7791 19.4408 28.7791 17.4762 28.7791 15.5106C28.7791 15.0604 28.7774 15.0596 28.3167 15.0587C27.9785 15.0587 27.6395 15.0578 27.3014 15.0587C26.8722 15.0596 26.8635 15.0674 26.8635 15.5019C26.8635 17.6523 26.8635 19.8035 26.8635 21.9538V21.9547Z" fill="white"/>
<path d="M18.7285 6.2928C18.7285 6.47427 18.7254 6.65643 18.7298 6.83791C18.7329 6.97178 18.6872 7.04417 18.54 7.04288C18.1765 7.03841 17.8129 7.03909 17.4493 7.04227C17.3167 7.04349 17.2678 6.97943 17.2691 6.85375C17.2716 6.49012 17.2722 6.12649 17.2691 5.76292C17.2678 5.63026 17.3313 5.58137 17.4575 5.58205C17.8211 5.58456 18.1847 5.58523 18.5483 5.58205C18.6809 5.58076 18.731 5.64482 18.7285 5.7705C18.7254 5.9444 18.7279 6.11829 18.7285 6.29212V6.2928Z" fill="white"/>
</svg>
