<svg width="36" height="36" viewBox="0 0 36 36" fill="none" xmlns="http://www.w3.org/2000/svg">
<path d="M2.62012 33.5952C2.63148 34.243 3.16935 34.7945 3.82545 34.8005H26.9599C27.3365 34.8091 27.6415 34.5977 27.8969 34.3526L32.7371 28.363C33.029 28.0017 33.0879 27.5049 32.8877 27.0859C32.6876 26.6669 32.2651 26.4002 31.8001 26.4002H28.1653V2.25641C28.1653 1.79616 27.9028 1.37594 27.4896 1.17407C27.0753 0.971026 26.5844 1.02164 26.2207 1.30473L23.112 3.71894L20.0045 1.30473C19.5702 0.967495 18.964 0.966318 18.5273 1.30355L15.4045 3.7207L12.2828 1.30355C11.8473 0.966907 11.2423 0.966907 10.8068 1.30355L7.68513 3.7207L4.56349 1.30355C4.19977 1.02164 3.70657 0.973969 3.29459 1.17407C2.88143 1.37653 2.62012 1.79675 2.62012 2.25641V33.5952ZM29.2764 28.8109L26.3843 32.3899H6.34913L9.24124 28.8109H29.2764ZM5.03079 4.71417L6.94709 6.19789C7.38261 6.53453 7.98764 6.53453 8.42316 6.19789L11.5448 3.78073L14.6664 6.19789C15.102 6.53453 15.707 6.53453 16.1425 6.19789L19.2641 3.78191L22.3728 6.19671C22.8083 6.53453 23.4157 6.53453 23.8512 6.19671L25.7546 4.71887V26.4002H8.66564C8.30192 26.4002 7.95703 26.565 7.72868 26.8481L5.03079 30.1867V4.71417Z" fill="white"/>
<path d="M9.61452 14.606H21.1782C21.8445 14.606 22.3836 14.0663 22.3836 13.4007C22.3836 12.735 21.8445 12.1953 21.1782 12.1953H9.61452C8.94829 12.1953 8.40918 12.735 8.40918 13.4007C8.40918 14.0663 8.94829 14.606 9.61452 14.606Z" fill="white"/>
<path d="M9.60768 20.6529H21.1761C21.8423 20.6529 22.3814 20.1132 22.3814 19.4475C22.3814 18.7819 21.8423 18.2422 21.1761 18.2422H9.60768C8.94145 18.2422 8.40234 18.7819 8.40234 19.4475C8.40234 20.1132 8.94145 20.6529 9.60768 20.6529Z" fill="white"/>
</svg>
