<svg width="286" height="185" viewBox="0 0 286 185" fill="none" xmlns="http://www.w3.org/2000/svg">
<path d="M134.517 5.20974H3.09667C1.43931 5.20974 0.0957528 6.55329 0.0957528 8.21065V105.297C0.0957528 106.955 1.43931 108.298 3.09667 108.298H134.517C136.174 108.298 137.518 106.955 137.518 105.297V8.21065C137.518 6.55329 136.174 5.20974 134.517 5.20974Z" fill="white"/>
<path d="M134.517 108.299C134.974 108.294 135.424 108.186 135.833 107.982C136.241 107.778 136.598 107.483 136.877 107.121C137.303 106.564 137.522 105.877 137.497 105.177C137.497 102.005 137.497 97.3313 137.476 91.3129C137.476 79.2717 137.455 61.8489 137.439 40.3222C137.439 34.9392 137.439 29.3064 137.439 23.4239C137.439 20.4854 137.439 17.49 137.439 14.4378V8.64403C137.461 8.26148 137.43 7.87772 137.347 7.5036C137.254 7.13241 137.088 6.7833 136.859 6.4762C136.631 6.16911 136.344 5.91007 136.015 5.71387C135.684 5.51564 135.316 5.38679 134.933 5.33511C134.541 5.30299 134.148 5.29188 133.755 5.30182H95.7089H3.10913C2.6093 5.29858 2.11704 5.424 1.67969 5.666C1.24234 5.908 0.874602 6.25845 0.611838 6.68365C0.353435 7.10551 0.209942 7.58764 0.195622 8.08214C0.195622 8.58576 0.195622 9.10187 0.195622 9.60965V27.7983C0.195622 35.798 0.195622 43.6742 0.195622 51.4269C0.195622 66.9184 0.195622 81.8606 0.195622 96.0952V101.398C0.195622 102.276 0.195622 103.154 0.195622 104.024C0.195622 104.461 0.195622 104.898 0.195622 105.331C0.203683 105.752 0.303085 106.167 0.486972 106.546C0.670717 106.923 0.933529 107.255 1.25748 107.521C1.58142 107.787 1.95888 107.98 2.36411 108.086C2.77412 108.174 3.19413 108.207 3.61276 108.182H9.99335H29.6096H64.8215L115.812 108.215L129.676 108.236H133.281C134.092 108.236 134.509 108.236 134.509 108.236H133.281H129.676H115.812L64.8215 108.274H29.6096H3.62108C3.18276 108.297 2.74333 108.262 2.31416 108.17C1.66148 107.998 1.08253 107.618 0.66497 107.088C0.247407 106.558 0.013969 105.906 0 105.231V95.9911C0 81.7565 0 66.8144 0 51.3228V9.63046C0 9.11852 0 8.6149 0 8.09463C0.019496 7.5631 0.175755 7.04558 0.453677 6.59209C0.7336 6.13702 1.12535 5.76118 1.59163 5.50035C2.05791 5.23953 2.58319 5.1024 3.11746 5.10203H95.7172H116.528H133.726C134.127 5.08839 134.529 5.09951 134.929 5.13533C135.336 5.19541 135.727 5.33697 136.078 5.55155C136.427 5.75928 136.731 6.03385 136.974 6.35953C137.217 6.68521 137.393 7.05561 137.493 7.44949C137.578 7.83878 137.61 8.23779 137.589 8.63571V14.4378C137.589 17.49 137.589 20.4854 137.589 23.4239C137.589 29.3008 137.589 34.9336 137.589 40.3222C137.589 61.8489 137.564 79.2717 137.555 91.3129C137.555 97.3313 137.555 102.005 137.555 105.177C137.576 105.785 137.413 106.386 137.088 106.9C136.763 107.415 136.291 107.819 135.732 108.061C135.448 108.18 135.148 108.257 134.842 108.29L134.517 108.299Z" fill="#263238"/>
<path d="M127.621 20.9093H74.2C72.3127 20.9093 70.7828 22.4392 70.7828 24.3264V44.7335C70.7828 46.6207 72.3127 48.1506 74.2 48.1506H127.621C129.509 48.1506 131.038 46.6207 131.038 44.7335V24.3264C131.038 22.4392 129.509 20.9093 127.621 20.9093Z" fill="#309F50"/>
<path d="M113.641 32.3908C113.647 32.4475 113.647 32.5048 113.641 32.5615C113.641 32.6905 113.641 32.8528 113.641 33.0526C113.641 33.5021 113.641 34.1181 113.641 34.8881V41.3353V41.2729C113.991 41.598 114.423 41.8236 114.89 41.9263C115.398 42.0466 115.919 42.1052 116.442 42.1011C117.551 42.1308 118.64 41.8056 119.551 41.173L119.514 41.2562C119.514 37.9556 119.514 34.9006 119.514 32.3991V32.4324C119.395 32.2408 119.231 32.0819 119.035 31.9704C118.838 31.859 118.63 31.7683 118.415 31.6999C118.008 31.5826 117.589 31.5114 117.166 31.4876C116.482 31.4347 115.793 31.4725 115.118 31.6C114.688 31.6823 114.278 31.8477 113.911 32.087C113.819 32.156 113.732 32.2311 113.649 32.3117C113.599 32.37 113.574 32.4033 113.57 32.3991C113.641 32.2571 113.747 32.1354 113.878 32.0454C114.242 31.7806 114.658 31.5949 115.098 31.5001C115.781 31.3546 116.481 31.3014 117.179 31.342C117.612 31.3601 118.043 31.4285 118.461 31.5459C118.955 31.6606 119.388 31.9579 119.672 32.3783C119.672 34.8756 119.672 37.9348 119.672 41.2354V41.2937L119.634 41.3228C118.685 41.9924 117.545 42.3356 116.384 42.3009C115.844 42.3052 115.305 42.2409 114.781 42.1095C114.265 41.998 113.79 41.7459 113.408 41.3811L113.387 41.3603V41.3187C113.42 38.6882 113.449 36.4572 113.47 34.8548C113.47 34.089 113.499 33.473 113.512 33.0235C113.512 32.8278 113.512 32.6697 113.512 32.5448C113.55 32.4892 113.593 32.4376 113.641 32.3908Z" fill="white"/>
<path d="M119.659 32.4033C119.43 32.6243 119.162 32.8008 118.868 32.9236C118.168 33.2438 117.403 33.3976 116.633 33.3731C115.865 33.4054 115.098 33.2719 114.386 32.9819C114.089 32.8668 113.817 32.6974 113.582 32.4824C113.582 32.4491 113.911 32.6364 114.444 32.8404C115.148 33.0792 115.89 33.1865 116.633 33.1567C117.375 33.1791 118.114 33.0517 118.806 32.7821C119.334 32.5657 119.638 32.37 119.659 32.4033Z" fill="white"/>
<path d="M119.659 34.6147C119.431 34.8379 119.163 35.0159 118.868 35.1391C118.168 35.4578 117.403 35.6102 116.633 35.5844C115.865 35.6188 115.098 35.4853 114.386 35.1932C114.087 35.0819 113.814 34.9121 113.582 34.6937C113.582 34.6604 113.911 34.8477 114.444 35.0517C115.148 35.2905 115.89 35.3978 116.633 35.368C117.375 35.3915 118.114 35.2655 118.806 34.9976C119.334 34.777 119.638 34.5855 119.659 34.6147Z" fill="white"/>
<path d="M119.659 36.8314C119.43 37.0524 119.162 37.2289 118.868 37.3517C118.168 37.6707 117.403 37.8245 116.633 37.8012C115.865 37.8334 115.098 37.7 114.386 37.41C114.089 37.2949 113.817 37.1255 113.582 36.9105C113.582 36.8772 113.911 37.0645 114.444 37.2685C115.149 37.5053 115.89 37.6125 116.633 37.5848C117.375 37.6072 118.114 37.4798 118.806 37.2102C119.334 36.9938 119.638 36.7981 119.659 36.8314Z" fill="white"/>
<path d="M119.659 39.0388C119.431 39.2611 119.163 39.4377 118.868 39.5591C118.169 39.882 117.403 40.036 116.633 40.0086C115.865 40.0408 115.098 39.9074 114.386 39.6174C114.088 39.5042 113.815 39.3346 113.582 39.1179C113.582 39.0846 113.911 39.2719 114.444 39.4759C115.148 39.7147 115.89 39.8219 116.633 39.7922C117.375 39.8137 118.113 39.6878 118.806 39.4217C119.334 39.2012 119.638 39.0097 119.659 39.0388Z" fill="white"/>
<path d="M119.683 27.8568C119.693 27.9426 119.693 28.0292 119.683 28.1149C119.683 28.3036 119.683 28.5533 119.683 28.8641C119.683 29.5342 119.683 30.479 119.683 31.6569V41.3339L119.658 41.2715C120.024 41.6016 120.47 41.8286 120.953 41.9291C121.462 42.0515 121.985 42.1089 122.509 42.0998C123.607 42.1238 124.684 41.7988 125.585 41.1716L125.548 41.2548C125.548 36.0854 125.568 31.378 125.573 27.8652V27.8943C125.453 27.6958 125.282 27.5333 125.077 27.424C124.88 27.3077 124.669 27.2155 124.449 27.1493C124.041 27.0345 123.623 26.9647 123.2 26.9412C122.515 26.8893 121.826 26.9313 121.152 27.066C120.727 27.1488 120.322 27.3158 119.962 27.5572C119.871 27.622 119.788 27.6959 119.712 27.7778C119.658 27.8319 119.637 27.8652 119.633 27.8652C119.629 27.8652 119.633 27.8235 119.691 27.7611C119.764 27.6715 119.846 27.5904 119.937 27.5197C120.292 27.2559 120.699 27.0714 121.132 26.9786C121.814 26.827 122.515 26.771 123.213 26.8121C123.649 26.8288 124.082 26.8958 124.503 27.0119C125.01 27.1202 125.457 27.418 125.752 27.8444V27.8777C125.752 31.3905 125.752 36.0979 125.781 41.2673V41.3256L125.743 41.3547C124.803 42.0173 123.676 42.3615 122.526 42.337C121.984 42.3413 121.443 42.2798 120.915 42.1539C120.388 42.044 119.902 41.7888 119.513 41.4172L119.492 41.3922V41.3506C119.525 37.4298 119.554 34.0626 119.575 31.6569C119.575 30.479 119.608 29.5384 119.617 28.8683C119.617 28.5603 119.617 28.3147 119.637 28.1274C119.644 28.0359 119.659 27.9453 119.683 27.8568Z" fill="white"/>
<path d="M125.701 32.4033C125.472 32.6243 125.204 32.8008 124.911 32.9236C124.211 33.2449 123.445 33.3988 122.675 33.3731C121.907 33.4054 121.14 33.2719 120.428 32.9819C120.131 32.8668 119.859 32.6974 119.625 32.4824C119.625 32.4491 119.953 32.6364 120.486 32.8404C121.19 33.0792 121.932 33.1865 122.675 33.1567C123.417 33.1791 124.156 33.0517 124.848 32.7821C125.377 32.5657 125.681 32.37 125.701 32.4033Z" fill="white"/>
<path d="M125.701 34.6147C125.473 34.8379 125.205 35.0159 124.911 35.1391C124.21 35.459 123.445 35.6114 122.675 35.5844C121.907 35.6188 121.14 35.4853 120.428 35.1932C120.13 35.0819 119.856 34.9121 119.625 34.6937C119.625 34.6604 119.953 34.8477 120.486 35.0517C121.19 35.2905 121.932 35.3978 122.675 35.368C123.417 35.3915 124.156 35.2655 124.848 34.9976C125.377 34.777 125.681 34.5855 125.701 34.6147Z" fill="white"/>
<path d="M125.701 30.1358C125.473 30.359 125.205 30.537 124.911 30.6602C124.21 30.9801 123.445 31.1326 122.675 31.1056C121.907 31.1399 121.14 31.0064 120.428 30.7143C120.13 30.6012 119.858 30.4316 119.625 30.2149C119.625 30.1816 119.953 30.3689 120.486 30.5728C121.19 30.8117 121.932 30.9189 122.675 30.8891C123.417 30.9126 124.156 30.7867 124.848 30.5187C125.377 30.2981 125.681 30.1066 125.701 30.1358Z" fill="white"/>
<path d="M125.701 27.8541C125.472 28.0751 125.204 28.2515 124.911 28.3744C124.21 28.6938 123.445 28.8476 122.675 28.8239C121.907 28.8561 121.14 28.7227 120.428 28.4326C120.131 28.3176 119.859 28.1482 119.625 27.9332C119.625 27.8999 119.953 28.083 120.486 28.287C121.19 28.5274 121.932 28.6361 122.675 28.6075C123.417 28.6299 124.156 28.5025 124.848 28.2329C125.377 28.0164 125.681 27.8208 125.701 27.8541Z" fill="white"/>
<path d="M125.701 36.8314C125.472 37.0524 125.204 37.2289 124.911 37.3517C124.21 37.6711 123.445 37.8249 122.675 37.8012C121.907 37.8334 121.14 37.7 120.428 37.41C120.131 37.2949 119.859 37.1255 119.625 36.9105C119.625 36.8772 119.953 37.0645 120.486 37.2685C121.191 37.5053 121.933 37.6125 122.675 37.5848C123.417 37.6072 124.156 37.4798 124.848 37.2102C125.377 36.9938 125.681 36.7981 125.701 36.8314Z" fill="white"/>
<path d="M125.701 39.0388C125.473 39.2611 125.205 39.4377 124.911 39.5591C124.211 39.8825 123.445 40.0365 122.675 40.0086C121.907 40.0408 121.14 39.9074 120.428 39.6174C120.13 39.5042 119.858 39.3346 119.625 39.1179C119.625 39.0846 119.953 39.2719 120.486 39.4759C121.19 39.7147 121.932 39.8219 122.675 39.7922C123.417 39.8137 124.156 39.6878 124.848 39.4217C125.377 39.2012 125.681 39.0097 125.701 39.0388Z" fill="white"/>
<path d="M64.7955 20.9093H11.3825C9.49293 20.9093 7.96116 22.4411 7.96116 24.3306V44.7293C7.96116 46.6189 9.49293 48.1506 11.3825 48.1506H64.7955C66.685 48.1506 68.2168 46.6189 68.2168 44.7293V24.3306C68.2168 22.4411 66.685 20.9093 64.7955 20.9093Z" fill="#E0E0E0"/>
<path d="M14.0073 35.0182V40.0208H12.9442V35.9636H12.0062V35.0352L14.0073 35.0182Z" fill="#332C21"/>
<path d="M19.0099 39.0957V40.0208H15.2188V39.286L17.1518 37.496C17.5942 37.0785 17.6724 36.8281 17.6724 36.5876C17.6724 36.2035 17.4002 35.9764 16.8727 35.9764C16.6745 35.9719 16.4782 36.0145 16.3004 36.1005C16.1226 36.1866 15.9687 36.3136 15.8518 36.4707L15.0078 35.9364C15.2368 35.6352 15.538 35.3941 15.8847 35.2345C16.2314 35.0749 16.6128 35.0016 16.9952 35.0213C18.1114 35.0213 18.8567 35.5857 18.8567 36.4774C18.8567 36.955 18.7206 37.3891 18.0196 38.027L16.8693 39.0957H19.0099Z" fill="#332C21"/>
<path d="M20.0104 37.5211C20.0104 35.9248 20.8641 35.0182 22.013 35.0182C23.1619 35.0182 24.0125 35.9248 24.0125 37.5211C24.0125 39.1175 23.1651 40.0208 22.013 40.0208C20.861 40.0208 20.0104 39.1142 20.0104 37.5211ZM22.927 37.5211C22.927 36.4207 22.5525 35.9642 22.013 35.9642C21.4735 35.9642 21.1053 36.4207 21.1053 37.5211C21.1053 38.6215 21.4767 39.0748 22.013 39.0748C22.5494 39.0748 22.927 38.6182 22.927 37.5211Z" fill="#332C21"/>
<path d="M25.013 37.5211C25.013 35.9248 25.8667 35.0182 27.0156 35.0182C28.1645 35.0182 29.0151 35.9248 29.0151 37.5211C29.0151 39.1175 28.1677 40.0208 27.0156 40.0208C25.8635 40.0208 25.013 39.1142 25.013 37.5211ZM27.9296 37.5211C27.9296 36.4207 27.5551 35.9642 27.0156 35.9642C26.4761 35.9642 26.1079 36.4207 26.1079 37.5211C26.1079 38.6215 26.4793 39.0748 27.0156 39.0748C27.552 39.0748 27.9296 38.6182 27.9296 37.5211Z" fill="#332C21"/>
<path d="M30.0156 37.5211C30.0156 35.9248 30.8693 35.0182 32.0182 35.0182C33.1671 35.0182 34.0177 35.9248 34.0177 37.5211C34.0177 39.1175 33.1703 40.0208 32.0182 40.0208C30.8661 40.0208 30.0156 39.1142 30.0156 37.5211ZM32.9322 37.5211C32.9322 36.4207 32.5577 35.9642 32.0182 35.9642C31.4787 35.9642 31.1105 36.4207 31.1105 37.5211C31.1105 38.6215 31.4818 39.0748 32.0182 39.0748C32.5546 39.0748 32.9322 38.6182 32.9322 37.5211Z" fill="#332C21"/>
<path d="M62.0709 29.4254H47.058C46.3293 29.4254 45.7386 30.0161 45.7386 30.7448V39.4396C45.7386 40.1683 46.3293 40.759 47.058 40.759H62.0709C62.7996 40.759 63.3903 40.1683 63.3903 39.4396V30.7448C63.3903 30.0161 62.7996 29.4254 62.0709 29.4254Z" fill="#F5F5F5"/>
<path d="M50.6157 31.5085H47.7396V32.5532H50.6157V31.5085Z" fill="#E0E0E0"/>
<path d="M51.2164 34.7015C50.5442 34.8135 49.8616 34.8512 49.1811 34.8139C48.4992 34.851 47.8153 34.8134 47.1417 34.7015C47.8159 34.5948 48.4994 34.5586 49.1811 34.5933C49.8615 34.5584 50.5436 34.5947 51.2164 34.7015Z" fill="#E0E0E0"/>
<path d="M54.0037 34.7043C53.3335 34.854 52.6385 34.854 51.9684 34.7043C52.6391 34.56 53.3329 34.56 54.0037 34.7043Z" fill="#E0E0E0"/>
<path d="M61.5846 34.7043C60.576 34.8542 59.5507 34.8542 58.5421 34.7043C59.5512 34.56 60.5756 34.56 61.5846 34.7043Z" fill="#E0E0E0"/>
<path d="M57.8205 34.7043C56.8467 34.8542 55.8558 34.8542 54.882 34.7043C55.8562 34.56 56.8463 34.56 57.8205 34.7043Z" fill="#E0E0E0"/>
<path d="M50.2291 37.2447C49.2312 37.389 48.2177 37.389 47.2198 37.2447C48.2177 37.1004 49.2312 37.1004 50.2291 37.2447Z" fill="#E0E0E0"/>
<path d="M52.7846 38.3246C51.8608 38.434 50.9297 38.4702 50.0001 38.4328C49.072 38.4703 48.1423 38.4341 47.2198 38.3246C48.1425 38.2175 49.072 38.1813 50.0001 38.2163C50.9297 38.1814 51.8606 38.2176 52.7846 38.3246Z" fill="#E0E0E0"/>
<path d="M61.5835 38.3242C60.8063 38.4685 60.0091 38.4685 59.2319 38.3242C59.6136 38.2186 60.0111 38.182 60.4056 38.216C60.8016 38.1815 61.2005 38.2181 61.5835 38.3242Z" fill="#E0E0E0"/>
<path d="M76.2807 34.6195V38.9607H75.2735V35.427H74.4078V34.6195H76.2807Z" fill="white"/>
<path d="M80.3139 37.5955C80.3139 38.3655 79.7478 39.0356 78.5075 39.0356C77.9194 39.0464 77.341 38.8859 76.8426 38.5736L77.2588 37.8036C77.6222 38.0649 78.06 38.2021 78.5075 38.1948C79.0111 38.1948 79.3399 37.9826 79.3399 37.6288C79.3399 37.275 79.1152 37.0627 78.3285 37.0627H77.2172L77.4378 34.6195H80.0891V35.427H78.2369L78.1662 36.2594H78.52C79.8061 36.2511 80.3139 36.8296 80.3139 37.5955Z" fill="white"/>
<path d="M81.8938 38.4044C81.8854 38.6215 81.827 38.8338 81.7231 39.0246L81.3693 39.9195H80.7575L81.0322 38.933C80.9277 38.8914 80.839 38.8179 80.7785 38.7231C80.718 38.6282 80.6888 38.5168 80.6951 38.4044C80.6927 38.3249 80.7068 38.2458 80.7364 38.172C80.766 38.0981 80.8105 38.0312 80.8671 37.9753C80.9237 37.9195 80.9913 37.8759 81.0655 37.8473C81.1398 37.8187 81.2191 37.8058 81.2986 37.8093C81.3777 37.8057 81.4567 37.8187 81.5305 37.8473C81.6043 37.876 81.6713 37.9197 81.7273 37.9757C81.7833 38.0317 81.827 38.0987 81.8557 38.1725C81.8844 38.2464 81.8973 38.3253 81.8938 38.4044Z" fill="white"/>
<path d="M82.2654 36.7967C82.2654 35.3608 83.0603 34.5492 84.1258 34.5492C85.1914 34.5492 85.9905 35.3816 85.9905 36.7967C85.9905 38.2119 85.1997 39.0402 84.1258 39.0402C83.052 39.0402 82.2654 38.2285 82.2654 36.7967ZM84.9791 36.7967C84.9791 35.8103 84.6295 35.3983 84.1466 35.3983C83.6638 35.3983 83.3142 35.8145 83.3142 36.7967C83.3142 37.779 83.6597 38.1911 84.1466 38.1911C84.6336 38.1911 84.9791 37.7832 84.9791 36.7967Z" fill="white"/>
<path d="M86.4785 36.7967C86.4785 35.3608 87.2735 34.5492 88.339 34.5492C89.4045 34.5492 90.1994 35.3816 90.1994 36.7967C90.1994 38.2119 89.4128 39.0402 88.339 39.0402C87.2651 39.0402 86.4785 38.2285 86.4785 36.7967ZM89.188 36.7967C89.188 35.8103 88.8426 35.3983 88.3556 35.3983C87.8686 35.3983 87.5232 35.8145 87.5232 36.7967C87.5232 37.779 87.8728 38.1911 88.3556 38.1911C88.8384 38.1911 89.1839 37.7832 89.1839 36.7967H89.188Z" fill="white"/>
<path d="M90.6857 36.7967C90.6857 35.3608 91.4807 34.5492 92.5504 34.5492C93.6201 34.5492 94.4109 35.3816 94.4109 36.7967C94.4109 38.2119 93.6242 39.0402 92.5504 39.0402C91.4766 39.0402 90.6857 38.2285 90.6857 36.7967ZM93.3995 36.7967C93.3995 35.8103 93.054 35.3983 92.567 35.3983C92.0801 35.3983 91.7346 35.8145 91.7346 36.7967C91.7346 37.779 92.0842 38.1911 92.567 38.1911C93.0499 38.1911 93.3995 37.7832 93.3995 36.7967Z" fill="white"/>
<path d="M126.71 102.078H126.931C127.146 102.067 127.36 102.039 127.572 101.995C128.481 101.81 129.303 101.327 129.906 100.622C130.509 99.917 130.86 99.0306 130.901 98.1035C130.926 97.7248 130.901 97.3294 130.901 96.9173C130.901 95.2719 130.901 93.3809 130.901 91.2443C130.901 86.9739 130.901 81.7504 130.901 75.6861C130.901 72.6561 130.901 69.4179 130.901 65.9716C130.901 64.2541 130.901 62.4865 130.901 60.6691C130.901 59.7617 130.901 58.8419 130.901 57.9095C130.901 57.4475 130.901 56.9731 130.881 56.5152C130.831 56.0508 130.704 55.5979 130.506 55.175C130.103 54.3073 129.41 53.6078 128.546 53.198C128.111 52.9893 127.643 52.857 127.164 52.8067C126.681 52.7693 126.177 52.8067 125.682 52.8067H106.528H77.8671H12.1965C11.4838 52.808 10.7832 52.9914 10.1613 53.3395C9.54474 53.6899 9.02873 54.193 8.66287 54.8004C8.29614 55.4067 8.09387 56.0982 8.07601 56.8066C8.07601 57.5225 8.07601 58.2467 8.07601 58.9626C8.07601 61.8372 8.07601 64.6939 8.07601 67.5325V97.4709C8.06603 97.7976 8.08134 98.1246 8.12179 98.449C8.21279 99.0913 8.45689 99.7022 8.83352 100.23C9.20275 100.758 9.69168 101.191 10.2603 101.493C10.8289 101.796 11.4611 101.959 12.105 101.97H23.6633L77.3011 101.995L113.462 102.028L123.293 102.049L113.462 102.07L77.3011 102.103L23.655 102.174H12.0925C11.4185 102.161 10.7569 101.99 10.1613 101.675C9.56347 101.356 9.04774 100.903 8.65455 100.351C8.25901 99.7959 8.00342 99.1533 7.90952 98.4781C7.86394 98.1444 7.84723 97.8074 7.85958 97.4709V96.472C7.85958 95.1345 7.85958 93.7929 7.85958 92.4472V58.9542C7.85958 58.2342 7.85958 57.5183 7.85958 56.7899C7.87815 56.0463 8.09048 55.3203 8.47558 54.6839C8.86154 54.0421 9.40712 53.5111 10.0592 53.1428C10.7113 52.7744 11.4476 52.5812 12.1965 52.582H77.8671H106.528H125.64C126.14 52.582 126.631 52.582 127.135 52.607C127.876 52.6842 128.585 52.9511 129.193 53.382C129.801 53.8128 130.287 54.3931 130.606 55.0668C130.809 55.506 130.938 55.9757 130.989 56.457C131.026 56.9398 130.989 57.4018 131.01 57.8679V60.6274C131.01 62.4421 131.01 64.2097 131.01 65.93C131.01 69.3735 131.01 72.6117 131.01 75.6445C131.01 81.7088 131.01 86.9323 130.989 91.2027C130.989 93.3392 130.989 95.2302 130.989 96.8757C130.989 97.2919 130.989 97.6831 130.989 98.0619C130.967 98.4268 130.9 98.7875 130.789 99.1357C130.59 99.7384 130.26 100.29 129.823 100.751C129.226 101.371 128.456 101.798 127.613 101.974C127.399 102.014 127.182 102.039 126.964 102.049L126.71 102.078Z" fill="#E0E0E0"/>
<path d="M49.5545 83.4339H45.5588V99.2959H49.5545V83.4339Z" fill="#EBEBEB"/>
<path d="M55.54 88.2333H51.5443V99.2963H55.54V88.2333Z" fill="#EBEBEB"/>
<path d="M43.8191 88.2333H39.8234V99.2963H43.8191V88.2333Z" fill="#EBEBEB"/>
<path d="M32.0982 97.8242H28.1025V99.2976H32.0982V97.8242Z" fill="#EBEBEB"/>
<path d="M38.0368 95.6004H34.0411V99.2964H38.0368V95.6004Z" fill="#EBEBEB"/>
<path d="M26.3745 98.0665H22.3788V99.2944H26.3745V98.0665Z" fill="#EBEBEB"/>
<path d="M20.3733 98.0665H16.3776V99.2944H20.3733V98.0665Z" fill="#EBEBEB"/>
<path d="M61.8421 90.461H57.8464V99.2973H61.8421V90.461Z" fill="#EBEBEB"/>
<path d="M68.1462 92.8841H64.1505V99.2939H68.1462V92.8841Z" fill="#EBEBEB"/>
<path d="M74.4483 88.2333H70.4526V99.2963H74.4483V88.2333Z" fill="#EBEBEB"/>
<path d="M80.7504 81.3235H76.7547V99.2957H80.7504V81.3235Z" fill="#EBEBEB"/>
<path d="M87.0505 76.0043H83.0548V99.2957H87.0505V76.0043Z" fill="#EBEBEB"/>
<path d="M93.3585 83.4339H89.3628V99.2959H93.3585V83.4339Z" fill="#EBEBEB"/>
<path d="M99.6586 69.1961H95.6629V99.2968H99.6586V69.1961Z" fill="#EBEBEB"/>
<path d="M105.961 83.4339H101.965V99.2959H105.961V83.4339Z" fill="#EBEBEB"/>
<path d="M112.263 88.2333H108.267V99.2963H112.263V88.2333Z" fill="#EBEBEB"/>
<path d="M118.567 90.3125H114.571V99.2986H118.567V90.3125Z" fill="#EBEBEB"/>
<path d="M124.869 92.8841H120.873V99.2939H124.869V92.8841Z" fill="#EBEBEB"/>
<path d="M19.6821 99.2963H20.0733H21.2263H25.6548H27.174C27.7303 99.3055 28.2866 99.2763 28.8388 99.2089C30.0954 99.0569 31.3031 98.6307 32.3767 97.9602C32.9689 97.5848 33.4996 97.1201 33.95 96.5826C34.3938 95.9816 34.7602 95.3272 35.0405 94.6347C35.6648 93.2195 36.2308 91.6837 36.8094 90.0563C37.3879 88.4289 37.9665 86.7266 38.5866 84.9577C38.8988 84.0711 39.2151 83.1679 39.5814 82.2606C39.9502 81.331 40.4074 80.439 40.9466 79.5968C41.509 78.7048 42.1973 77.8988 42.9902 77.2036C43.8082 76.5076 44.7423 75.9609 45.7497 75.5886C46.7912 75.2141 47.8894 75.0213 48.9962 75.0184C50.1298 74.9983 51.2606 75.1385 52.355 75.4346C52.9123 75.5881 53.4532 75.7959 53.97 76.0548C54.4908 76.3271 54.9807 76.6551 55.4309 77.0329C56.331 77.818 57.0679 78.7727 57.5994 79.8424C58.1107 80.9372 58.5284 82.0734 58.848 83.2387C59.2143 84.3958 59.5806 85.5653 59.9884 86.7307C60.7547 89.1219 61.8248 91.4048 63.1725 93.5234C63.8638 94.5947 64.7676 95.5126 65.828 96.2205C66.3673 96.5618 66.9659 96.799 67.5927 96.9197C67.9068 96.9808 68.2259 97.0129 68.5458 97.0154C68.8705 97.0154 69.1951 97.0154 69.5156 96.9655C70.3869 96.9013 71.2363 96.6621 72.0129 96.2621C72.768 95.8298 73.4155 95.2321 73.9067 94.514C74.4103 93.8022 74.8307 93.0364 75.2594 92.2831C75.6821 91.5307 76.0656 90.7568 76.4082 89.9647C77.7734 86.814 78.6224 83.53 79.8961 80.5C80.4652 78.9827 81.1369 77.5059 81.9064 76.0798C82.6665 74.6938 83.632 73.4309 84.7699 72.3338C85.3182 71.7919 85.9287 71.3169 86.5888 70.9187C87.2433 70.529 87.9419 70.2188 88.6699 69.9947C90.0761 69.5716 91.5444 69.3928 93.011 69.4661C94.4132 69.5242 95.7983 69.795 97.1191 70.2694C98.3756 70.7328 99.5335 71.429 100.532 72.3213C102.484 74.0445 103.899 76.0673 105.527 77.6656C107.048 79.1429 108.904 80.2297 110.937 80.833C112.623 81.3658 114.365 81.6983 116.128 81.8236L123.441 81.8485H125.326C125.742 81.8485 125.967 81.8485 125.967 81.8485H125.326H123.441L116.128 81.8735C114.353 81.7579 112.598 81.4324 110.9 80.9037C108.851 80.3177 106.973 79.2486 105.423 77.7863C103.791 76.1755 102.368 74.161 100.428 72.4629C99.4413 71.5869 98.2992 70.9036 97.0608 70.4484C95.7576 69.9813 94.3903 69.7173 93.0069 69.6659C91.5625 69.5949 90.1167 69.7723 88.7323 70.1903C87.2968 70.6392 85.9905 71.4273 84.924 72.4878C83.8037 73.5727 82.8512 74.8184 82.0978 76.1838C81.3363 77.6038 80.6716 79.0736 80.1083 80.5832C78.8389 83.605 77.9939 86.8806 76.6204 90.0563C76.2773 90.8543 75.8925 91.6337 75.4675 92.3913C75.0507 93.1652 74.5936 93.9168 74.0982 94.643C73.5893 95.3879 72.9175 96.0071 72.1336 96.4535C71.3285 96.8726 70.446 97.122 69.5406 97.1861C69.2118 97.2319 68.8788 97.2194 68.55 97.236C68.216 97.2339 67.883 97.2005 67.5553 97.1361C66.9031 97.0108 66.2804 96.7637 65.7197 96.4078C64.6314 95.6859 63.7046 94.7463 62.9977 93.6482C61.6406 91.5136 60.5622 89.214 59.7887 86.8057C59.3724 85.6361 59.0145 84.4624 58.6524 83.3053C58.3303 82.1515 57.9127 81.0266 57.4037 79.9423C56.886 78.8956 56.166 77.9619 55.2852 77.1952C54.8491 76.8245 54.373 76.5034 53.8659 76.2379C53.361 75.9849 52.8327 75.7814 52.2884 75.6303C51.2122 75.3353 50.0995 75.1952 48.9837 75.214C47.8999 75.2154 46.8243 75.4026 45.8038 75.7676C43.8561 76.5161 42.2011 77.8719 41.0839 79.6343C39.9768 81.2991 39.3649 83.1929 38.7323 84.9535C38.0997 86.7141 37.5128 88.4289 36.9426 90.0521C36.3724 91.6754 35.7855 93.2071 35.1528 94.6305C34.8644 95.3319 34.4897 95.9947 34.0374 96.6034C33.5753 97.1494 33.0321 97.621 32.4266 98.0019C31.3371 98.6737 30.1141 99.0998 28.843 99.2505C28.2905 99.3148 27.7342 99.3399 27.1781 99.3254H25.634L21.2054 99.3046H20.0525C19.7945 99.3046 19.6821 99.2963 19.6821 99.2963Z" fill="#309F50"/>
<path d="M58.3906 62.4621H35.9149C35.746 62.4621 35.584 62.5292 35.4646 62.6486C35.3452 62.768 35.2781 62.93 35.2781 63.0989V70.828C35.2775 70.9118 35.2936 70.9949 35.3254 71.0724C35.3572 71.1499 35.4041 71.2203 35.4634 71.2796C35.5226 71.3388 35.593 71.3857 35.6706 71.4175C35.7481 71.4493 35.8311 71.4654 35.9149 71.4649H47.2859C47.3745 71.4647 47.4622 71.4831 47.5432 71.519C47.6242 71.5548 47.6968 71.6073 47.7562 71.673C48.1142 72.0684 48.5887 72.5803 48.9383 72.9549C48.9983 73.0197 49.0711 73.0714 49.152 73.1068C49.2329 73.1422 49.3203 73.1604 49.4086 73.1604C49.4969 73.1604 49.5843 73.1422 49.6653 73.1068C49.7462 73.0714 49.8189 73.0197 49.8789 72.9549L51.036 71.6771C51.0955 71.6114 51.1681 71.559 51.2491 71.5231C51.3301 71.4873 51.4178 71.4688 51.5064 71.469H58.3906C58.5595 71.469 58.7214 71.4019 58.8409 71.2825C58.9603 71.1631 59.0274 71.0011 59.0274 70.8322V63.0989C59.0263 62.9304 58.9588 62.769 58.8397 62.6498C58.7205 62.5306 58.5591 62.4632 58.3906 62.4621Z" fill="#309F50"/>
<path d="M33.743 84.4735H15.0133C14.9129 84.4735 14.8165 84.5134 14.7455 84.5845C14.6745 84.6555 14.6345 84.7518 14.6345 84.8523V89.4307C14.6345 89.5311 14.6745 89.6275 14.7455 89.6985C14.8165 89.7695 14.9129 89.8094 15.0133 89.8094H21.7643C21.817 89.8092 21.8691 89.8202 21.9172 89.8418C21.9653 89.8633 22.0083 89.8948 22.0432 89.9343C22.2555 90.1674 22.5385 90.4754 22.7466 90.696C22.7821 90.7346 22.8252 90.7654 22.8732 90.7864C22.9212 90.8075 22.973 90.8184 23.0255 90.8184C23.0779 90.8184 23.1297 90.8075 23.1777 90.7864C23.2257 90.7654 23.2688 90.7346 23.3043 90.696L23.9952 89.9384C24.0302 89.899 24.0731 89.8675 24.1212 89.8459C24.1693 89.8244 24.2214 89.8134 24.2741 89.8136H33.7264C33.8268 89.8136 33.9232 89.7737 33.9942 89.7026C34.0652 89.6316 34.1051 89.5353 34.1051 89.4348V84.8564C34.1063 84.7581 34.0692 84.6631 34.0016 84.5917C33.934 84.5202 33.8413 84.4778 33.743 84.4735Z" fill="#F5F5F5"/>
<path d="M50.1619 75.0532C50.1619 75.2261 50.1106 75.395 50.0146 75.5388C49.9186 75.6825 49.7821 75.7945 49.6223 75.8607C49.4626 75.9269 49.2869 75.9442 49.1173 75.9104C48.9478 75.8767 48.792 75.7935 48.6698 75.6712C48.5476 75.549 48.4643 75.3932 48.4306 75.2237C48.3969 75.0541 48.4142 74.8784 48.4803 74.7187C48.5465 74.559 48.6585 74.4225 48.8023 74.3264C48.946 74.2304 49.115 74.1791 49.2879 74.1791C49.5197 74.1791 49.742 74.2712 49.9059 74.4351C50.0698 74.599 50.1619 74.8214 50.1619 75.0532Z" fill="#309F50"/>
<path d="M49.2886 75.9522C49.1133 75.9522 48.9419 75.9002 48.7961 75.8028C48.6503 75.7054 48.5367 75.5669 48.4696 75.4049C48.4025 75.2429 48.3849 75.0647 48.4191 74.8927C48.4533 74.7207 48.5377 74.5628 48.6617 74.4388C48.7857 74.3148 48.9437 74.2304 49.1157 74.1962C49.2876 74.162 49.4659 74.1795 49.6279 74.2466C49.7899 74.3137 49.9283 74.4273 50.0257 74.5731C50.1232 74.7189 50.1752 74.8903 50.1752 75.0657C50.1741 75.3005 50.0803 75.5253 49.9143 75.6913C49.7483 75.8574 49.5234 75.9511 49.2886 75.9522ZM49.2886 74.1999C49.1174 74.1999 48.95 74.2507 48.8076 74.3458C48.6653 74.441 48.5543 74.5762 48.4888 74.7344C48.4233 74.8926 48.4061 75.0666 48.4395 75.2346C48.4729 75.4025 48.5554 75.5568 48.6765 75.6778C48.7975 75.7989 48.9518 75.8814 49.1197 75.9148C49.2877 75.9482 49.4617 75.931 49.6199 75.8655C49.7781 75.8 49.9133 75.689 50.0084 75.5466C50.1036 75.4043 50.1543 75.2369 50.1543 75.0657C50.1566 74.9506 50.1358 74.8362 50.0933 74.7292C50.0508 74.6223 49.9874 74.5249 49.9067 74.4427C49.8261 74.3605 49.7299 74.2953 49.6238 74.2507C49.5177 74.2062 49.4037 74.1833 49.2886 74.1833V74.1999Z" fill="#263238"/>
<path d="M42.2683 65.706V68.3822H41.6481V66.2013H41.1112V65.706H42.2683Z" fill="white"/>
<path d="M44.7589 67.5415C44.7589 68.016 44.4093 68.428 43.6434 68.428C43.2828 68.4334 42.9285 68.3336 42.6237 68.1408L42.8693 67.6664C43.0911 67.8257 43.3578 67.9102 43.6309 67.9078C43.9389 67.9078 44.1304 67.7787 44.1304 67.5581C44.1304 67.3375 43.993 67.2127 43.5061 67.2127H42.8235L42.9608 65.706H44.5924V66.2013H43.4769L43.4353 66.7091H43.6559C44.4425 66.7091 44.7589 67.067 44.7589 67.5415Z" fill="white"/>
<path d="M45.7373 68.0463C45.7312 68.1801 45.6957 68.3108 45.6332 68.4292L45.4126 68.9786H45.038L45.2045 68.371C45.1404 68.3451 45.0859 68.3 45.0487 68.2418C45.0114 68.1837 44.9931 68.1153 44.9964 68.0463C44.9952 67.9972 45.0041 67.9483 45.0226 67.9028C45.0411 67.8573 45.0688 67.816 45.104 67.7817C45.1391 67.7473 45.181 67.7206 45.2269 67.7031C45.2728 67.6856 45.3219 67.6777 45.371 67.6801C45.4195 67.6783 45.468 67.6866 45.5132 67.7044C45.5584 67.7222 45.5995 67.7491 45.6339 67.7834C45.6682 67.8178 45.6951 67.8589 45.7129 67.9041C45.7307 67.9493 45.739 67.9978 45.7373 68.0463Z" fill="white"/>
<path d="M45.9614 67.0409C45.9614 66.1585 46.4483 65.6591 47.1059 65.6591C47.7636 65.6591 48.2547 66.1585 48.2547 67.0409C48.2547 67.9233 47.7677 68.4269 47.1059 68.4269C46.4442 68.4269 45.9614 67.9233 45.9614 67.0409ZM47.6262 67.0409C47.6262 66.4332 47.414 66.1835 47.1018 66.1835C46.7896 66.1835 46.5815 66.4332 46.5815 67.0409C46.5815 67.6486 46.798 67.9025 47.1018 67.9025C47.4056 67.9025 47.6304 67.6319 47.6304 67.0409H47.6262Z" fill="white"/>
<path d="M48.5545 67.0409C48.5545 66.1585 49.0456 65.6591 49.7033 65.6591C50.3609 65.6591 50.852 66.1585 50.852 67.0409C50.852 67.9233 50.365 68.4269 49.7033 68.4269C49.0415 68.4269 48.5545 67.9233 48.5545 67.0409ZM50.2194 67.0409C50.2194 66.4332 50.0029 66.1835 49.6949 66.1835C49.3869 66.1835 49.1747 66.4332 49.1747 67.0409C49.1747 67.6486 49.3869 67.9025 49.6949 67.9025C50.0029 67.9025 50.2277 67.6319 50.2277 67.0409H50.2194Z" fill="white"/>
<path d="M51.1476 67.0409C51.1476 66.1585 51.6346 65.6591 52.2922 65.6591C52.9499 65.6591 53.441 66.1585 53.441 67.0409C53.441 67.9233 52.954 68.4269 52.2922 68.4269C51.6305 68.4269 51.1476 67.9233 51.1476 67.0409ZM52.8125 67.0409C52.8125 66.4332 52.6002 66.1835 52.2881 66.1835C51.9759 66.1835 51.7678 66.4332 51.7678 67.0409C51.7678 67.6486 51.9842 67.9025 52.2881 67.9025C52.5919 67.9025 52.8125 67.6319 52.8125 67.0409Z" fill="white"/>
<path opacity="0.5" d="M2.48481 5.0026H135.108C135.77 5.0026 136.405 5.2657 136.874 5.73404C137.342 6.20237 137.605 6.83757 137.605 7.49989V12.7567H0V7.48741C0.00328186 6.82941 0.266128 6.19929 0.731411 5.73401C1.19669 5.26872 1.82681 5.00588 2.48481 5.0026Z" fill="#332C21"/>
<path d="M4.9861 10.0934C5.59756 10.0934 6.09324 9.59768 6.09324 8.98622C6.09324 8.37477 5.59756 7.87909 4.9861 7.87909C4.37465 7.87909 3.87897 8.37477 3.87897 8.98622C3.87897 9.59768 4.37465 10.0934 4.9861 10.0934Z" fill="#F5F5F5"/>
<path d="M8.43711 10.0934C9.04857 10.0934 9.54425 9.59768 9.54425 8.98622C9.54425 8.37477 9.04857 7.87909 8.43711 7.87909C7.82566 7.87909 7.32998 8.37477 7.32998 8.98622C7.32998 9.59768 7.82566 10.0934 8.43711 10.0934Z" fill="#F5F5F5"/>
<path d="M11.8862 10.0934C12.4976 10.0934 12.9933 9.59768 12.9933 8.98622C12.9933 8.37477 12.4976 7.87909 11.8862 7.87909C11.2747 7.87909 10.779 8.37477 10.779 8.98622C10.779 9.59768 11.2747 10.0934 11.8862 10.0934Z" fill="#F5F5F5"/>
<path d="M12.9427 31.0161V28.5108H12.1263V28.2146H14.0833V28.5108H13.2669V31.0161H12.9427ZM15.288 31.0681C14.6637 31.0681 14.2035 30.6079 14.2035 29.9756C14.2035 29.3472 14.6717 28.883 15.292 28.883C15.9204 28.883 16.3766 29.3512 16.3766 29.9756C16.3766 30.5999 15.9124 31.0681 15.288 31.0681ZM15.288 30.78C15.7363 30.78 16.0524 30.4398 16.0524 29.9756C16.0524 29.5153 15.7363 29.1711 15.288 29.1711C14.8398 29.1711 14.5276 29.5193 14.5276 29.9756C14.5276 30.4438 14.8438 30.78 15.288 30.78ZM17.7596 31.0161C17.3794 31.0161 17.1273 30.844 17.1273 30.4238V29.2032H16.7351V28.935H17.1473V28.3307H17.4435V28.935H18.0838V29.2032H17.4435V30.4198C17.4435 30.6439 17.5355 30.74 17.7556 30.74H18.0558V31.0161H17.7596ZM19.5191 31.0681C18.9228 31.0681 18.5026 30.6159 18.5026 29.9796C18.5026 29.3392 18.9028 28.883 19.4951 28.883C19.9273 28.883 20.1434 29.1631 20.2035 29.2712H20.2275V28.935H20.5476V30.6399C20.5476 30.7039 20.5877 30.736 20.6517 30.736H20.7477V31.0161H20.5436C20.3715 31.0161 20.2435 30.888 20.2395 30.7079V30.6879H20.2155C20.1634 30.772 19.9713 31.0681 19.5191 31.0681ZM19.5351 30.784C19.9713 30.784 20.2395 30.4198 20.2395 29.9836C20.2395 29.4673 19.9193 29.1711 19.5311 29.1711C19.1229 29.1711 18.8267 29.5073 18.8267 29.9836C18.8267 30.4678 19.1349 30.784 19.5351 30.784ZM21.2476 31.0161V30.744H21.6678V28.2867H21.2476V28.0145H21.984V30.744H22.4042V31.0161H21.2476ZM24.0248 31.0161V30.736H24.441V28.4948H24.0248V28.2146H25.1814V28.4948H24.7652V30.736H25.1814V31.0161H24.0248ZM25.9008 31.0161V28.935H26.217V29.2392H26.241C26.329 29.0511 26.5531 28.883 26.8773 28.883C27.3615 28.883 27.6537 29.2472 27.6537 29.7074V31.0161H27.3375V29.7274C27.3375 29.3953 27.0934 29.1791 26.8013 29.1791C26.4731 29.1791 26.217 29.4313 26.217 29.7755V31.0161H25.9008ZM29.2441 31.0681C28.6158 31.0681 28.1756 30.5919 28.1756 29.9756C28.1756 29.3592 28.6278 28.883 29.2401 28.883C29.6923 28.883 30.0926 29.1551 30.2046 29.6194L29.8925 29.6914C29.8364 29.3792 29.5723 29.1711 29.2481 29.1711C28.8039 29.1711 28.5037 29.5233 28.5037 29.9756C28.5037 30.4438 28.8199 30.78 29.2561 30.78C29.5803 30.78 29.8444 30.5719 29.9005 30.2597L30.2126 30.3317C30.1006 30.796 29.6964 31.0681 29.2441 31.0681ZM31.6989 31.0681C31.0746 31.0681 30.6143 30.6079 30.6143 29.9756C30.6143 29.3472 31.0826 28.883 31.7029 28.883C32.3312 28.883 32.7875 29.3512 32.7875 29.9756C32.7875 30.5999 32.3232 31.0681 31.6989 31.0681ZM31.6989 30.78C32.1471 30.78 32.4633 30.4398 32.4633 29.9756C32.4633 29.5153 32.1471 29.1711 31.6989 29.1711C31.2507 29.1711 30.9385 29.5193 30.9385 29.9756C30.9385 30.4438 31.2547 30.78 31.6989 30.78ZM33.3461 31.0161V28.935H33.6622V29.2352H33.6862C33.7863 29.0431 33.9864 28.883 34.2945 28.883C34.6067 28.883 34.8348 29.0351 34.9509 29.2632H34.9789C35.119 28.995 35.3471 28.883 35.6392 28.883C36.1035 28.883 36.4036 29.2112 36.4036 29.6674V31.0161H36.0875V29.7715C36.0875 29.3792 35.8914 29.1791 35.5832 29.1791C35.2911 29.1791 35.0349 29.3873 35.0349 29.7755V31.0161H34.7188V29.7114C34.7188 29.3792 34.4947 29.1791 34.2025 29.1791C33.9103 29.1791 33.6622 29.4113 33.6622 29.7634V31.0161H33.3461ZM37.9508 31.0681C37.3185 31.0681 36.9223 30.6239 36.9223 29.9836C36.9223 29.3192 37.3785 28.883 37.9308 28.883C38.5591 28.883 38.9193 29.3232 38.9193 29.9475V30.0636H37.2465C37.2505 30.5278 37.5226 30.788 37.9548 30.788C38.247 30.788 38.5151 30.6199 38.5832 30.3317L38.8913 30.4038C38.7752 30.792 38.4311 31.0681 37.9508 31.0681ZM37.2545 29.8075H38.5952C38.5751 29.3752 38.275 29.1671 37.9308 29.1671C37.5906 29.1671 37.2785 29.4153 37.2545 29.8075Z" fill="#332C21"/>
<path d="M74.9749 31.0161V28.5108H74.1585V28.2146H76.1155V28.5108H75.2991V31.0161H74.9749ZM77.3202 31.0681C76.6959 31.0681 76.2357 30.6079 76.2357 29.9756C76.2357 29.3472 76.7039 28.883 77.3242 28.883C77.9526 28.883 78.4088 29.3512 78.4088 29.9756C78.4088 30.5999 77.9445 31.0681 77.3202 31.0681ZM77.3202 30.78C77.7685 30.78 78.0846 30.4398 78.0846 29.9756C78.0846 29.5153 77.7685 29.1711 77.3202 29.1711C76.872 29.1711 76.5598 29.5193 76.5598 29.9756C76.5598 30.4438 76.876 30.78 77.3202 30.78ZM79.7918 31.0161C79.4116 31.0161 79.1595 30.844 79.1595 30.4238V29.2032H78.7673V28.935H79.1795V28.3307H79.4757V28.935H80.116V29.2032H79.4757V30.4198C79.4757 30.6439 79.5677 30.74 79.7878 30.74H80.088V31.0161H79.7918ZM81.5513 31.0681C80.955 31.0681 80.5348 30.6159 80.5348 29.9796C80.5348 29.3392 80.935 28.883 81.5273 28.883C81.9595 28.883 82.1756 29.1631 82.2357 29.2712H82.2597V28.935H82.5798V30.6399C82.5798 30.7039 82.6198 30.736 82.6839 30.736H82.7799V31.0161H82.5758C82.4037 31.0161 82.2757 30.888 82.2717 30.7079V30.6879H82.2477C82.1956 30.772 82.0035 31.0681 81.5513 31.0681ZM81.5673 30.784C82.0035 30.784 82.2717 30.4198 82.2717 29.9836C82.2717 29.4673 81.9515 29.1711 81.5633 29.1711C81.1551 29.1711 80.8589 29.5073 80.8589 29.9836C80.8589 30.4678 81.1671 30.784 81.5673 30.784ZM83.2798 31.0161V30.744H83.7V28.2867H83.2798V28.0145H84.0162V30.744H84.4364V31.0161H83.2798ZM86.097 31.0161V28.2146H87.6939V28.5108H86.4212V29.4433H87.5178V29.7354H86.4212V30.7239H87.7379V31.0161H86.097ZM88.0363 31.0161L88.7887 29.9315L88.0923 28.935H88.4645L88.9888 29.7194H89.0128L89.5371 28.935H89.9093L89.2129 29.9475L89.9653 31.0161H89.5931L89.0128 30.1717H88.9768L88.4045 31.0161H88.0363ZM90.4265 31.9366V28.935H90.7306V29.2632H90.7546C90.8067 29.1871 91.0028 28.883 91.455 28.883C92.0473 28.883 92.4715 29.3352 92.4715 29.9716C92.4715 30.6159 92.0673 31.0681 91.479 31.0681C91.0428 31.0681 90.8347 30.808 90.7666 30.6799H90.7426V31.9366H90.4265ZM91.443 30.78C91.8512 30.78 92.1474 30.4478 92.1474 29.9716C92.1474 29.4833 91.8352 29.1711 91.435 29.1711C91.0028 29.1711 90.7306 29.5353 90.7306 29.9716C90.7306 30.4838 91.0508 30.78 91.443 30.78ZM93.9017 31.0681C93.2694 31.0681 92.8732 30.6239 92.8732 29.9836C92.8732 29.3192 93.3294 28.883 93.8817 28.883C94.5101 28.883 94.8702 29.3232 94.8702 29.9475V30.0636H93.1974C93.2014 30.5278 93.4735 30.788 93.9057 30.788C94.1979 30.788 94.466 30.6199 94.5341 30.3317L94.8422 30.4038C94.7262 30.792 94.382 31.0681 93.9017 31.0681ZM93.2054 29.8075H94.5461C94.5261 29.3752 94.2259 29.1671 93.8817 29.1671C93.5415 29.1671 93.2294 29.4153 93.2054 29.8075ZM95.4291 31.0161V28.935H95.7452V29.2392H95.7692C95.8573 29.0511 96.0814 28.883 96.4056 28.883C96.8898 28.883 97.182 29.2472 97.182 29.7074V31.0161H96.8658V29.7274C96.8658 29.3953 96.6217 29.1791 96.3295 29.1791C96.0014 29.1791 95.7452 29.4313 95.7452 29.7755V31.0161H95.4291ZM98.5523 31.0681C98.084 31.0681 97.7919 30.812 97.7439 30.4398L98.032 30.3678C98.056 30.6479 98.2521 30.792 98.5683 30.792C98.8804 30.792 99.0525 30.6399 99.0525 30.4278C99.0525 29.8435 97.8079 30.2877 97.8079 29.4633C97.8079 29.1111 98.1241 28.883 98.5603 28.883C98.9205 28.883 99.2686 29.0911 99.3167 29.4673L99.0405 29.5473C99.0125 29.3032 98.8124 29.1551 98.5403 29.1551C98.2801 29.1551 98.112 29.2832 98.112 29.4633C98.112 29.9916 99.3607 29.5513 99.3607 30.4118C99.3607 30.804 99.0365 31.0681 98.5523 31.0681ZM100.851 31.0681C100.218 31.0681 99.8221 30.6239 99.8221 29.9836C99.8221 29.3192 100.278 28.883 100.831 28.883C101.459 28.883 101.819 29.3232 101.819 29.9475V30.0636H100.146C100.15 30.5278 100.422 30.788 100.855 30.788C101.147 30.788 101.415 30.6199 101.483 30.3317L101.791 30.4038C101.675 30.792 101.331 31.0681 100.851 31.0681ZM100.154 29.8075H101.495C101.475 29.3752 101.175 29.1671 100.831 29.1671C100.49 29.1671 100.178 29.4153 100.154 29.8075Z" fill="white"/>
<path d="M268.964 166.072C271.858 166.096 274.669 165.108 276.912 163.28C279.155 161.452 280.689 158.898 281.25 156.059C283.291 145.699 285.916 131.206 286 114.928C286.051 104.947 283.817 92.3085 280.73 82.8344C276.237 68.97 266.57 56.7552 252.552 52.7563C234.342 47.5572 227.75 49.547 214.835 56.3251C200.791 63.6874 196.991 77.5069 182.369 83.656C168.178 89.619 151.059 87.5843 138.119 95.9286C126.738 103.272 121.186 117.374 120.737 130.911C120.4 138.104 121.098 145.309 122.81 152.304C124.575 159.692 131.244 166.027 138.857 166.092L268.964 166.072Z" fill="#309F50"/>
<g opacity="0.4">
<path d="M268.964 166.068C271.858 166.092 274.669 165.104 276.912 163.276C279.155 161.448 280.689 158.894 281.25 156.055C283.291 145.695 285.916 131.202 286 114.924C286.051 104.943 283.817 92.3046 280.73 82.8305C276.237 68.9661 266.57 56.7513 252.552 52.7524C234.342 47.5533 227.75 49.5431 214.835 56.3212C200.791 63.6835 196.991 77.503 182.369 83.6521C168.178 89.6151 151.059 87.5804 138.119 95.9247C126.738 103.268 121.186 117.37 120.737 130.907C120.4 138.1 121.098 145.305 122.81 152.3C124.575 159.688 131.244 166.024 138.857 166.088L268.964 166.068Z" fill="white"/>
</g>
<path d="M259.605 55.2044C259.657 55.2861 259.703 55.372 259.74 55.4612C259.83 55.6537 259.952 55.9105 260.113 56.2378C260.44 56.9439 260.902 57.9516 261.499 59.2354L262.494 61.4049C262.853 62.2072 263.136 63.0995 263.54 64.0494C263.944 64.9994 264.298 66.02 264.715 67.0919C265.132 68.1638 265.517 69.332 265.909 70.5516C266.3 71.7711 266.705 73.0613 267.128 74.4028C267.359 75.0447 267.533 75.7636 267.712 76.4696C267.892 77.1757 268.078 77.8882 268.264 78.6199L268.836 80.8536C268.932 81.2259 269.035 81.611 269.131 81.9897C269.227 82.3684 269.291 82.7728 269.368 83.1644C269.689 84.7434 270.01 86.3737 270.344 88.0297C271.615 95.2887 272.368 102.629 272.597 109.995C272.745 117.355 272.453 124.717 271.724 132.043C271.32 135.413 270.992 138.622 270.44 141.594C270.203 143.083 270.004 144.527 269.753 145.901C269.503 147.275 269.234 148.597 268.99 149.855C268.534 152.384 267.975 154.637 267.526 156.62C267.295 157.615 267.083 158.546 266.884 159.387L266.242 161.697C265.87 163.065 265.601 164.136 265.382 164.907L265.145 165.735C265.126 165.83 265.096 165.923 265.055 166.011C265.066 165.913 265.085 165.816 265.113 165.722C265.158 165.517 265.228 165.241 265.312 164.887C265.498 164.136 265.761 163.058 266.101 161.678C266.274 160.985 266.473 160.208 266.685 159.367C266.897 158.527 267.077 157.589 267.327 156.595C267.757 154.605 268.296 152.352 268.733 149.823C268.972 148.565 269.221 147.249 269.477 145.875C269.715 144.495 269.907 143.051 270.119 141.568C270.62 138.596 270.934 135.387 271.332 132.03C272.041 124.716 272.32 117.367 272.167 110.02C271.942 102.679 271.202 95.3633 269.952 88.126C269.631 86.4614 269.313 84.8439 268.996 83.2735L268.765 82.1053L268.476 80.9627C268.284 80.2117 268.097 79.4672 267.911 78.7354C267.725 78.0037 267.545 77.2912 267.372 76.5852C267.199 75.8791 267.025 75.1859 266.801 74.5248L265.601 70.6735C265.228 69.454 264.875 68.2858 264.439 67.2138C264.002 66.1419 263.649 65.1149 263.296 64.165C262.943 63.215 262.622 62.3164 262.282 61.514L261.351 59.2867C260.786 58.003 260.344 56.976 260.029 56.2635L259.695 55.474C259.655 55.3879 259.625 55.2974 259.605 55.2044Z" fill="#263238"/>
<path d="M139.947 165.968L127.803 184.987L104.054 169.993C105.627 167.817 120.781 171.02 120.781 171.02L128.066 158.516L139.947 165.968Z" fill="#455A64"/>
<g opacity="0.6">
<path d="M128.785 174.627C128.968 174.841 129.065 175.115 129.059 175.397C129.053 175.678 128.944 175.948 128.753 176.154C128.548 176.349 128.277 176.458 127.995 176.458C127.713 176.458 127.442 176.349 127.238 176.154C127.042 175.927 126.938 175.635 126.945 175.335C126.952 175.035 127.07 174.748 127.276 174.53C127.512 174.353 127.808 174.274 128.101 174.31C128.395 174.346 128.663 174.494 128.849 174.723" fill="white"/>
</g>
<g opacity="0.6">
<path d="M127.804 184.987L128.953 183.023L105.769 169.383C105.769 169.383 104.421 169.178 104.068 170.025L127.804 184.987Z" fill="white"/>
</g>
<path d="M120.487 170.656C120.416 170.778 120.962 171.196 121.295 171.94C121.629 172.685 121.629 173.352 121.764 173.372C121.899 173.391 122.149 172.614 121.732 171.735C121.315 170.855 120.525 170.534 120.487 170.656Z" fill="#263238"/>
<path d="M117.348 170.115C117.252 170.212 117.624 170.725 117.708 171.463C117.791 172.201 117.579 172.792 117.708 172.856C117.836 172.92 118.311 172.317 118.189 171.399C118.067 170.481 117.419 170.006 117.348 170.115Z" fill="#263238"/>
<path d="M114.049 172.202C114.139 172.292 114.691 171.817 114.768 170.989C114.845 170.161 114.492 169.57 114.383 169.641C114.274 169.711 114.383 170.283 114.3 170.924C114.216 171.566 113.94 172.118 114.049 172.202Z" fill="#263238"/>
<path d="M122.462 167.99C122.462 168.124 123.072 168.304 123.701 168.76C124.33 169.215 124.709 169.748 124.831 169.684C124.952 169.62 124.728 168.901 123.977 168.4C123.226 167.9 122.462 167.861 122.462 167.99Z" fill="#263238"/>
<path d="M124.805 165.532C124.773 165.576 125.184 165.936 125.999 166.276C126.474 166.472 126.972 166.607 127.481 166.681C127.783 166.722 128.088 166.743 128.393 166.745C128.572 166.757 128.752 166.74 128.926 166.693C129.054 166.659 129.167 166.583 129.247 166.477C129.327 166.371 129.37 166.242 129.369 166.109C129.362 165.992 129.328 165.878 129.269 165.776C129.209 165.675 129.127 165.589 129.028 165.525C128.879 165.43 128.717 165.356 128.547 165.307C127.758 165.042 126.915 164.978 126.095 165.121C125.625 165.162 125.178 165.343 124.811 165.641C124.811 165.718 125.338 165.519 126.166 165.455C126.646 165.417 127.129 165.44 127.603 165.525C127.881 165.578 128.153 165.653 128.419 165.75C128.714 165.84 128.926 165.974 128.919 166.129C128.913 166.283 128.919 166.206 128.81 166.244C128.682 166.272 128.55 166.285 128.419 166.283C128.123 166.283 127.834 166.283 127.565 166.244C127.08 166.193 126.6 166.097 126.133 165.955C125.702 165.782 125.257 165.64 124.805 165.532Z" fill="#263238"/>
<path d="M124.852 165.797C124.852 165.835 125.372 165.566 125.892 164.847C126.183 164.418 126.4 163.942 126.534 163.441C126.613 163.143 126.665 162.838 126.688 162.53C126.722 162.332 126.704 162.129 126.636 161.94C126.569 161.751 126.454 161.583 126.303 161.451C126.198 161.382 126.075 161.345 125.95 161.345C125.824 161.345 125.701 161.382 125.597 161.451C125.45 161.553 125.319 161.674 125.205 161.811C124.646 162.461 124.367 163.305 124.428 164.16C124.505 165.071 124.897 165.514 124.935 165.482C124.855 165.043 124.797 164.599 124.762 164.154C124.773 163.683 124.887 163.221 125.096 162.799C125.216 162.564 125.369 162.348 125.552 162.157C125.744 161.926 125.969 161.785 126.046 161.868C126.123 161.952 126.245 162.26 126.219 162.51C126.208 162.789 126.169 163.067 126.104 163.338C125.996 163.804 125.821 164.252 125.584 164.667C125.199 165.38 124.801 165.739 124.852 165.797Z" fill="#263238"/>
<path d="M156.939 106.789L149.667 128.131L123.048 119.216C124.056 116.725 139.538 116.231 139.538 116.231L143.633 102.354L156.939 106.789Z" fill="#455A64"/>
<g opacity="0.6">
<path d="M148.151 117.834C148.381 117.998 148.542 118.24 148.605 118.514C148.667 118.789 148.627 119.077 148.491 119.324C148.337 119.56 148.098 119.728 147.823 119.793C147.548 119.857 147.259 119.813 147.015 119.67C146.771 119.497 146.6 119.24 146.535 118.949C146.47 118.657 146.515 118.351 146.662 118.091C146.849 117.86 147.118 117.711 147.413 117.675C147.707 117.639 148.005 117.719 148.241 117.899" fill="white"/>
</g>
<g opacity="0.6">
<path d="M149.665 128.131L150.307 125.948L124.548 118.214C124.548 118.214 123.187 118.329 123.046 119.215L149.665 128.131Z" fill="white"/>
</g>
<path d="M139.144 115.946C139.106 116.081 139.741 116.357 140.235 116.986C140.73 117.615 140.877 118.269 141.031 118.269C141.185 118.269 141.224 117.441 140.608 116.684C139.991 115.927 139.157 115.818 139.144 115.946Z" fill="#263238"/>
<path d="M135.968 116.164C135.897 116.279 136.385 116.69 136.642 117.39C136.899 118.089 136.835 118.712 136.963 118.75C137.091 118.789 137.425 118.076 137.091 117.216C136.758 116.356 136.013 116.042 135.968 116.164Z" fill="#263238"/>
<path d="M133.264 118.984C133.373 119.055 133.771 118.464 133.675 117.643C133.578 116.821 133.033 116.359 132.975 116.417C132.917 116.475 133.136 117.014 133.2 117.701C133.264 118.387 133.136 118.927 133.264 118.984Z" fill="#263238"/>
<path d="M140.435 112.894C140.435 113.029 141.077 113.048 141.822 113.344C142.566 113.639 143.035 114.063 143.137 113.986C143.24 113.909 142.849 113.247 142.001 112.907C141.154 112.567 140.403 112.766 140.435 112.894Z" fill="#263238"/>
<path d="M142.125 109.947C142.523 110.208 142.984 110.359 143.46 110.384C143.969 110.463 144.487 110.476 145 110.422C145.303 110.393 145.603 110.344 145.899 110.274C146.078 110.242 146.251 110.181 146.412 110.095C146.522 110.032 146.609 109.936 146.661 109.821C146.713 109.706 146.727 109.577 146.701 109.453C146.664 109.342 146.603 109.241 146.522 109.156C146.441 109.072 146.342 109.007 146.233 108.965C146.062 108.909 145.885 108.876 145.706 108.869C145.399 108.843 145.089 108.843 144.782 108.869C144.266 108.923 143.761 109.057 143.286 109.267C142.478 109.633 142.099 110.043 142.137 110.088C142.176 110.133 142.619 109.844 143.421 109.581C143.879 109.432 144.353 109.34 144.833 109.305C145.113 109.283 145.394 109.283 145.674 109.305C145.982 109.305 146.226 109.402 146.252 109.549C146.277 109.697 146.252 109.626 146.175 109.69C146.057 109.751 145.932 109.794 145.802 109.819C145.526 109.891 145.245 109.947 144.962 109.986C144.481 110.052 143.995 110.074 143.511 110.05C143.052 109.981 142.589 109.947 142.125 109.947Z" fill="#263238"/>
<path d="M142.233 110.19C142.272 110.222 142.689 109.844 143.016 109.016C143.204 108.529 143.308 108.015 143.324 107.494C143.332 107.187 143.308 106.879 143.254 106.576C143.239 106.374 143.172 106.179 143.059 106.011C142.947 105.842 142.793 105.705 142.612 105.614C142.493 105.575 142.365 105.572 142.244 105.605C142.123 105.638 142.014 105.706 141.931 105.8C141.812 105.934 141.711 106.083 141.63 106.243C141.484 106.525 141.382 106.828 141.328 107.141C141.233 107.664 141.27 108.203 141.437 108.707C141.726 109.574 142.214 109.908 142.239 109.869C142.055 109.464 141.895 109.048 141.758 108.624C141.658 108.163 141.658 107.686 141.758 107.225C141.817 106.96 141.912 106.706 142.041 106.467C142.175 106.198 142.361 106.005 142.458 106.069C142.554 106.134 142.74 106.397 142.779 106.66C142.831 106.935 142.859 107.214 142.862 107.494C142.867 107.974 142.804 108.451 142.676 108.913C142.471 109.702 142.169 110.145 142.233 110.19Z" fill="#263238"/>
<path d="M201.016 100.679C201.016 100.679 180.983 68.5272 175.488 59.5987C169.121 49.2839 156.065 50.6125 152.933 59.9068C153.633 57.8143 150.494 67.0316 139.922 101.455L157.734 106.552L169.192 96.8209L173.736 109.819L201.016 100.679Z" fill="#263238"/>
<path d="M198.382 64.8579L191.09 89.801L164.113 92.6959V97.4842L203.755 98.0298L209.153 65.5511L198.382 64.8579Z" fill="#FFBE9D"/>
<path d="M204.808 98.9967H167.984C165.117 98.9963 162.283 99.6043 159.668 100.78C157.054 101.957 154.718 103.674 152.817 105.82C151.542 107.286 150.596 109.008 150.044 110.871L123.085 161.168L140.307 170.681L172.503 124.761L190.475 124.98L230.541 99.9659L204.808 98.9967Z" fill="#263238"/>
<path d="M168.242 114.927C168.615 115.298 168.935 115.719 169.192 116.178C169.87 117.251 170.448 118.383 170.919 119.561C171.386 120.737 171.747 121.953 171.997 123.194C172.125 123.704 172.185 124.228 172.177 124.754C172.068 124.754 171.708 122.405 170.604 119.683C169.5 116.962 168.152 114.985 168.242 114.927Z" fill="#455A64"/>
<path d="M130.198 69.5192L145.173 98.994H192.453L190.528 95.1428L176.83 94.732L165.713 69.8915C165.374 69.1285 164.822 68.48 164.122 68.0244C163.423 67.5687 162.606 67.3254 161.772 67.324H131.539C131.281 67.3225 131.026 67.3878 130.8 67.5137C130.574 67.6397 130.384 67.8219 130.249 68.0428C130.114 68.2637 130.038 68.5156 130.029 68.7743C130.02 69.033 130.079 69.2896 130.198 69.5192Z" fill="#E0E0E0"/>
<path d="M154.39 82.5612C154.39 82.9421 154.277 83.3143 154.066 83.631C153.854 83.9477 153.553 84.1945 153.202 84.3403C152.85 84.486 152.463 84.5241 152.089 84.4498C151.715 84.3755 151.372 84.1921 151.103 83.9228C150.834 83.6535 150.65 83.3104 150.576 82.9369C150.502 82.5633 150.54 82.1762 150.686 81.8243C150.831 81.4724 151.078 81.1717 151.395 80.9601C151.712 80.7485 152.084 80.6356 152.465 80.6356C152.975 80.6356 153.465 80.8385 153.826 81.1996C154.187 81.5607 154.39 82.0505 154.39 82.5612Z" fill="#263238"/>
<path d="M250.229 48.5017C248.656 41.3833 238.033 38.681 233.245 38.6682C226.563 38.6682 227.166 38.2445 220.6 39.4256H219.734C199.771 38.6168 197.474 66.0376 197.474 66.0376L206.575 66.7757L204.168 85.666L197.204 99.0362L235.543 98.9784L237.687 67.7642L253.734 67.3406C253.734 67.3406 251.821 55.697 250.229 48.5017Z" fill="#309F50"/>
<path d="M207.679 54.4228C207.781 54.4228 207.107 61.0918 206.17 69.295C205.233 77.4981 204.399 84.1286 204.296 84.1222C204.193 84.1158 204.867 77.4531 205.804 69.25C206.742 61.0469 207.576 54.41 207.679 54.4228Z" fill="#263238"/>
<g opacity="0.2">
<path d="M236.962 54.425C235.325 62.243 233.194 70.2728 231.563 78.0908C231.21 79.7533 230.838 81.4735 229.824 82.8278C229.154 83.6526 228.37 84.3767 227.494 84.9781C224.285 87.3915 220.876 89.6573 217.089 91.0374C222.56 90.575 227.979 89.6321 233.284 88.2196C234.211 88.0615 235.063 87.6118 235.716 86.9358C236.17 86.2434 236.423 85.4394 236.448 84.6122C237.623 74.5926 237.283 64.4896 236.962 54.3993" fill="white"/>
</g>
<path d="M184.008 89.2024L195.882 87.7774L204.259 93.2654L236.32 85.6079L237.257 67.7382L251.635 67.3787L251.295 88.3551C251.258 89.959 250.906 91.5399 250.257 93.0072C249.609 94.4746 248.677 95.7995 247.515 96.9062C246.354 98.0128 244.985 98.8794 243.488 99.4564C241.991 100.033 240.395 100.309 238.791 100.268L191.883 98.9845L189.887 94.992L179.836 94.6583L184.008 89.2024Z" fill="#FFBE9D"/>
<path d="M236.317 85.6069C236.121 85.6847 235.919 85.747 235.713 85.7931L233.974 86.2424L227.555 87.8471L206.322 92.982L204.345 93.4506H204.268L204.197 93.4057L195.853 87.9048H195.962L184.075 89.2784L184.152 89.2335L181.013 93.2195L180.166 94.2722C180.074 94.3989 179.968 94.5151 179.851 94.6188C179.928 94.4834 180.016 94.3546 180.114 94.2337L180.91 93.1425L183.966 89.0923L183.998 89.0538H184.043L195.879 87.6031H195.943H195.994L204.377 93.0847H204.229L206.206 92.6098L227.472 87.5711L233.922 86.0819L235.681 85.6968C235.89 85.6495 236.103 85.6194 236.317 85.6069Z" fill="#EB996E"/>
<path d="M190.907 92.6101C189.376 92.7957 187.833 92.8579 186.292 92.7962H185.444L185.566 92.7513C184.635 93.6015 183.635 94.3723 182.575 95.0556C183.416 94.1204 184.337 93.2613 185.329 92.4881L185.38 92.4432H186.292C187.832 92.3752 189.375 92.431 190.907 92.6101Z" fill="#EB996E"/>
<path d="M241.897 88.578C241.287 87.6183 240.493 86.7892 239.561 86.1389C237.969 85.1119 236.351 85.2082 236.351 85.0926C236.682 84.9709 237.039 84.942 237.385 85.0092C238.227 85.0955 239.038 85.3749 239.755 85.8258C240.472 86.2766 241.076 86.8868 241.518 87.6087C241.729 87.8922 241.86 88.2269 241.897 88.578Z" fill="#EB996E"/>
<path d="M253.739 67.459L250.241 67.5873C247.288 67.6772 243.18 67.7799 238.687 67.8698L237.243 67.9019H237.057V67.7222C236.896 63.5371 236.967 59.8079 237.057 57.1313C237.095 55.7898 237.146 54.7178 237.191 53.9732C237.194 53.5878 237.231 53.2034 237.3 52.8243C237.341 53.208 237.352 53.5943 237.333 53.9797C237.333 54.782 237.333 55.8411 237.333 57.1377C237.333 59.8143 237.288 63.5564 237.461 67.7029L237.268 67.5296H238.719C243.212 67.4397 247.32 67.382 250.273 67.3563H253.777C254.567 67.3178 252.455 67.4076 253.739 67.459Z" fill="#263238"/>
<path d="M229.041 67.5702C228.912 67.8903 228.757 68.1994 228.579 68.4945C228.425 68.7898 228.232 69.1364 227.975 69.5408C227.718 69.9452 227.455 70.4073 227.109 70.8887C226.321 72.036 225.464 73.1335 224.541 74.1751C223.402 75.4447 222.178 76.6349 220.876 77.7375C219.56 78.8221 218.173 79.8171 216.723 80.7158C215.534 81.4339 214.302 82.077 213.032 82.6414C212.493 82.8981 211.986 83.0843 211.55 83.2833C211.113 83.4822 210.728 83.5978 210.414 83.694C210.095 83.8235 209.764 83.9202 209.425 83.9829C209.728 83.8209 210.044 83.6835 210.369 83.5721C210.677 83.4565 211.055 83.3089 211.479 83.1164C211.903 82.9238 212.403 82.7248 212.93 82.4745C214.174 81.8788 215.385 81.2145 216.556 80.4847C219.432 78.6975 222.042 76.5152 224.31 74.0018C225.236 72.9799 226.106 71.9085 226.916 70.7924C227.269 70.3174 227.558 69.8681 227.821 69.4766C228.084 69.085 228.296 68.7513 228.463 68.4688C228.63 68.1536 228.823 67.853 229.041 67.5702Z" fill="#263238"/>
<path d="M249.529 47.177C249.373 47.1922 249.216 47.1922 249.06 47.177L247.719 47.1321L242.796 46.9395C238.636 46.7983 232.891 46.6892 226.55 46.7726C220.208 46.8561 214.463 47.1385 210.31 47.4145L205.394 47.7354L204.059 47.8189C203.903 47.8331 203.746 47.8331 203.59 47.8189C203.741 47.7766 203.896 47.7529 204.052 47.7482L205.381 47.6006C206.543 47.4787 208.218 47.331 210.291 47.1706C214.444 46.8496 220.189 46.5287 226.543 46.4517C232.898 46.3746 238.649 46.5159 242.808 46.7213C244.882 46.8175 246.563 46.9202 247.725 47.0101L249.06 47.1192C249.218 47.1237 249.375 47.143 249.529 47.177Z" fill="#FAFAFA"/>
<path d="M206.868 60.2332C204.065 60.4557 201.249 60.4557 198.447 60.2332C201.249 60.0107 204.065 60.0107 206.868 60.2332Z" fill="#FAFAFA"/>
<path d="M236.896 61.6842C236.802 61.7206 236.702 61.7423 236.601 61.7484L235.735 61.8768C234.984 61.9795 233.899 62.1078 232.525 62.249C229.829 62.5251 226.107 62.8267 221.96 62.9872C217.814 63.1477 214.084 63.1413 211.376 63.0707C210.021 63.0386 208.924 62.9936 208.166 62.9487L207.3 62.8909C207.198 62.8909 207.096 62.8757 206.998 62.846C207.098 62.8309 207.2 62.8309 207.3 62.846H208.173H211.382C214.091 62.846 217.833 62.846 221.954 62.6663C226.074 62.4866 229.81 62.2426 232.506 62.0244L235.715 61.7612L236.588 61.697C236.69 61.675 236.794 61.6707 236.896 61.6842Z" fill="#FAFAFA"/>
<path d="M252.365 59.0575C252.365 59.1473 248.95 59.5325 244.72 59.9112C240.49 60.2899 237.056 60.5145 237.018 60.4247C236.979 60.3348 240.433 59.9497 244.663 59.5774C248.892 59.2051 252.327 58.9676 252.365 59.0575Z" fill="#FAFAFA"/>
<path d="M219.045 78.5956C218.38 78.7119 217.705 78.7657 217.029 78.7561C215.778 78.8074 214.051 78.8331 212.138 78.7882C210.226 78.7432 208.505 78.6341 207.26 78.525C206.584 78.4995 205.912 78.4136 205.251 78.2683C205.924 78.2147 206.6 78.2147 207.273 78.2683C208.525 78.3196 210.245 78.3838 212.151 78.4287C214.058 78.4737 215.778 78.4929 217.023 78.5057C217.698 78.4834 218.374 78.5134 219.045 78.5956Z" fill="#FAFAFA"/>
<path d="M236.678 79.1489C236.443 79.2281 236.199 79.2798 235.952 79.303C235.484 79.3864 234.803 79.4827 233.956 79.5918C232.268 79.7972 229.919 80.0155 227.319 80.1182C224.72 80.2209 222.364 80.1824 220.663 80.1182C219.809 80.0797 219.123 80.0347 218.648 79.9898C218.4 79.9867 218.154 79.9522 217.916 79.8871C218.161 79.8597 218.409 79.8597 218.654 79.8871H220.669C222.37 79.8871 224.72 79.8871 227.306 79.8036C229.893 79.7202 232.236 79.5212 233.931 79.3736L235.94 79.1939C236.183 79.1478 236.431 79.1327 236.678 79.1489Z" fill="#FAFAFA"/>
<path d="M208.858 91.4356C207.723 91.369 206.611 91.0903 205.578 90.614C204.502 90.2351 203.506 89.6606 202.638 88.9195C202.696 88.836 203.986 89.6191 205.7 90.3059C207.414 90.9927 208.877 91.3393 208.858 91.4356Z" fill="#FAFAFA"/>
<path d="M224.866 3.9475H224.224C221.312 3.93325 218.501 5.00994 216.343 6.96545C214.186 8.92097 212.839 11.6135 212.568 14.5127C212.118 20.0521 211.701 26.1755 211.746 29.1474C211.836 35.3029 218.165 36.2465 218.165 36.2465L217.927 41.7088C217.862 43.6684 218.562 45.5764 219.881 47.0277C221.199 48.479 223.031 49.3594 224.988 49.4819C225.981 49.5399 226.976 49.4002 227.915 49.0709C228.854 48.7417 229.719 48.2294 230.458 47.5638C231.198 46.8981 231.798 46.0923 232.224 45.1931C232.65 44.2938 232.894 43.319 232.941 42.325L234.224 16.3356C234.796 9.94259 231.439 4.30695 224.866 3.9475Z" fill="#FFBE9D"/>
<path d="M218.082 36.2323C221.008 36.2307 223.874 35.4079 226.356 33.8574C226.356 33.8574 224.43 38.2927 218.108 37.7472L218.082 36.2323Z" fill="#EB996E"/>
<path d="M214.783 18.331C214.785 18.5632 214.877 18.7856 215.04 18.951C215.203 19.1164 215.424 19.2117 215.656 19.2168C215.77 19.2264 215.884 19.2134 215.993 19.1785C216.101 19.1436 216.201 19.0875 216.288 19.0134C216.375 18.9394 216.446 18.8488 216.497 18.7471C216.548 18.6454 216.579 18.5345 216.587 18.4208C216.576 18.1947 216.48 17.9812 216.318 17.823C216.156 17.6647 215.94 17.5733 215.714 17.5671C215.49 17.5473 215.267 17.6162 215.093 17.759C214.919 17.9019 214.808 18.1072 214.783 18.331Z" fill="#263238"/>
<path d="M213.912 17.5149C214.021 17.6304 214.701 17.1361 215.677 17.1361C216.652 17.1361 217.358 17.6111 217.461 17.4956C217.564 17.3801 217.403 17.2388 217.089 17.0142C216.668 16.7354 216.175 16.5867 215.67 16.5867C215.166 16.5867 214.672 16.7354 214.252 17.0142C213.957 17.2581 213.854 17.4635 213.912 17.5149Z" fill="#263238"/>
<path d="M223.847 18.6198C223.85 18.8515 223.942 19.073 224.105 19.2381C224.268 19.4031 224.488 19.499 224.72 19.5056C224.833 19.5152 224.947 19.5022 225.056 19.4673C225.164 19.4324 225.265 19.3763 225.351 19.3022C225.438 19.2282 225.509 19.1376 225.56 19.0359C225.612 18.9342 225.642 18.8233 225.65 18.7096C225.647 18.4757 225.553 18.2524 225.387 18.087C225.222 17.9216 224.998 17.8272 224.765 17.8238C224.537 17.808 224.313 17.8828 224.141 18.032C223.969 18.1813 223.863 18.3926 223.847 18.6198Z" fill="#263238"/>
<path d="M222.975 17.6795C223.084 17.795 223.771 17.3008 224.74 17.3008C225.709 17.3008 226.422 17.7694 226.531 17.6538C226.64 17.5383 226.467 17.3971 226.152 17.1788C225.73 16.8938 225.23 16.7459 224.721 16.7552C224.217 16.7509 223.725 16.9059 223.315 17.1981C223.02 17.4228 222.917 17.6281 222.975 17.6795Z" fill="#263238"/>
<path d="M219.945 24.6897C219.432 24.5357 218.902 24.4451 218.366 24.4201C218.122 24.4201 217.885 24.3495 217.84 24.1826C217.819 23.9314 217.877 23.6801 218.007 23.4637L218.738 21.628C219.746 19.0091 220.478 16.8524 220.375 16.8139C220.273 16.7754 219.355 18.8679 218.341 21.4868C218.097 22.1286 217.866 22.7705 217.641 23.3354C217.489 23.6275 217.445 23.9642 217.519 24.2853C217.557 24.3699 217.613 24.4452 217.682 24.5061C217.752 24.5671 217.834 24.6122 217.923 24.6384C218.062 24.674 218.204 24.6934 218.347 24.6961C218.878 24.7614 219.415 24.7592 219.945 24.6897Z" fill="#263238"/>
<path d="M222.799 25.3414C222.645 25.3414 222.645 26.362 221.74 27.0937C220.835 27.8254 219.718 27.7356 219.712 27.8575C219.705 27.9795 219.962 28.0565 220.437 28.0629C221.052 28.0743 221.652 27.8699 222.132 27.4852C222.586 27.1237 222.881 26.5983 222.953 26.0218C222.992 25.5917 222.876 25.335 222.799 25.3414Z" fill="#263238"/>
<path d="M223.191 13.9753C223.287 14.2321 224.256 14.1101 225.399 14.2385C226.541 14.3669 227.459 14.6686 227.607 14.4375C227.677 14.3284 227.517 14.0909 227.145 13.8406C226.646 13.5341 226.085 13.3433 225.503 13.2822C224.921 13.2211 224.333 13.2913 223.781 13.4875C223.364 13.648 223.152 13.8534 223.191 13.9753Z" fill="#263238"/>
<path d="M214.257 14.7793C214.431 14.9911 215.098 14.7793 215.9 14.7793C216.703 14.7793 217.39 14.9205 217.544 14.6959C217.614 14.5867 217.505 14.3685 217.21 14.1695C216.808 13.9247 216.343 13.8021 215.872 13.817C215.401 13.8318 214.945 13.9833 214.559 14.253C214.276 14.4519 214.187 14.6766 214.257 14.7793Z" fill="#263238"/>
<path d="M233.301 20.8933C233.41 20.8484 237.64 19.6096 237.512 23.8395C237.384 28.0694 233.07 27.0488 233.07 26.9333C233.07 26.8178 233.301 20.8933 233.301 20.8933Z" fill="#FFBE9D"/>
<path d="M234.06 25.3728C234.06 25.3728 234.13 25.4306 234.258 25.4883C234.438 25.5588 234.637 25.5588 234.817 25.4883C235.099 25.3288 235.332 25.096 235.493 24.8147C235.653 24.5333 235.735 24.2139 235.728 23.8901C235.754 23.5278 235.692 23.1646 235.549 22.831C235.512 22.6974 235.443 22.5749 235.348 22.4742C235.253 22.3735 235.134 22.2976 235.003 22.2533C234.918 22.2291 234.828 22.2344 234.746 22.2681C234.664 22.3019 234.597 22.3623 234.554 22.4394C234.49 22.555 234.515 22.6448 234.49 22.6513C234.464 22.6577 234.4 22.5742 234.445 22.4009C234.47 22.2975 234.532 22.2065 234.618 22.1442C234.743 22.0697 234.891 22.0403 235.035 22.0607C235.206 22.0962 235.365 22.1734 235.498 22.2854C235.631 22.3975 235.735 22.5408 235.799 22.7026C235.971 23.0715 236.048 23.4774 236.024 23.8836C236.027 24.2616 235.92 24.6324 235.714 24.9497C235.509 25.267 235.215 25.5169 234.868 25.6681C234.752 25.6984 234.631 25.7026 234.514 25.6804C234.396 25.6582 234.285 25.6101 234.188 25.5397C234.059 25.4755 234.04 25.3792 234.06 25.3728Z" fill="#EB996E"/>
<path d="M230.471 8.38768L212.454 8.77281C213.077 7.57358 213.988 6.54792 215.105 5.7881C217.466 4.01952 220.315 3.02208 223.263 2.93177C226.196 2.88042 232.179 6.36578 234.303 8.33633C236.011 9.91533 235.998 11.2825 235.998 11.2825C236.267 13.5612 234.964 16.1415 234.445 18.3431C234.175 19.4985 233.655 22.9774 233.655 22.9774C232.66 22.9774 232.294 22.2072 232.448 21.2508L232.628 17.5023C231.642 16.7523 230.933 15.696 230.612 14.4994C230.292 13.3028 230.378 12.0335 230.856 10.891C231.113 10.5829 231.659 9.02313 230.471 8.38768Z" fill="#263238"/>
<path d="M226.692 21.6898C226.706 21.6926 226.72 21.6924 226.734 21.6893C226.748 21.6861 226.761 21.6802 226.772 21.6717C226.784 21.6633 226.793 21.6525 226.8 21.6402C226.808 21.6278 226.812 21.6141 226.813 21.5999C226.817 21.586 226.818 21.5715 226.817 21.5572C226.815 21.5428 226.81 21.529 226.803 21.5165C226.796 21.5039 226.786 21.4929 226.775 21.4841C226.764 21.4753 226.75 21.4689 226.736 21.4652C226.707 21.4614 226.677 21.4694 226.653 21.4874C226.629 21.5053 226.613 21.5319 226.608 21.5614C226.602 21.5895 226.608 21.6187 226.624 21.6427C226.639 21.6667 226.664 21.6836 226.692 21.6898Z" fill="#EB996E"/>
<path d="M224.827 21.284C224.843 21.2858 224.859 21.2844 224.875 21.2799C224.89 21.2753 224.905 21.2678 224.917 21.2576C224.93 21.2475 224.94 21.2349 224.948 21.2207C224.955 21.2065 224.96 21.191 224.962 21.1749C224.97 21.1451 224.967 21.1133 224.952 21.0859C224.938 21.0585 224.914 21.0375 224.885 21.0273C224.869 21.0255 224.853 21.0269 224.837 21.0315C224.822 21.036 224.807 21.0436 224.795 21.0537C224.782 21.0639 224.772 21.0764 224.764 21.0906C224.756 21.1048 224.752 21.1203 224.75 21.1364C224.742 21.1662 224.745 21.198 224.759 21.2254C224.774 21.2528 224.798 21.2738 224.827 21.284Z" fill="#EB996E"/>
<path d="M223.583 21.2577C223.641 21.2577 223.699 21.1935 223.711 21.0972C223.724 21.001 223.711 20.9239 223.622 20.9175C223.532 20.9111 223.506 20.9817 223.5 21.0716C223.493 21.1614 223.525 21.2513 223.583 21.2577Z" fill="#EB996E"/>
<path d="M225.777 22.8224C225.835 22.8224 225.886 22.7903 225.88 22.7582C225.873 22.7261 225.835 22.6876 225.777 22.6876C225.719 22.6876 225.668 22.7197 225.668 22.7582C225.668 22.7967 225.719 22.8224 225.777 22.8224Z" fill="#EB996E"/>
<path d="M224.078 22.4443C224.107 22.4444 224.136 22.4331 224.157 22.4128C224.179 22.3925 224.192 22.3647 224.193 22.3352C224.197 22.3055 224.189 22.2755 224.171 22.2516C224.153 22.2276 224.126 22.2116 224.097 22.2068C224.067 22.2068 224.039 22.2181 224.017 22.2384C223.996 22.2587 223.983 22.2864 223.981 22.316C223.979 22.3308 223.979 22.346 223.982 22.3607C223.986 22.3754 223.992 22.3892 224.001 22.4012C224.01 22.4133 224.022 22.4234 224.035 22.4308C224.048 22.4382 224.063 22.4428 224.078 22.4443Z" fill="#EB996E"/>
<path d="M215.221 21.4179C215.243 21.4238 215.267 21.4229 215.289 21.4153C215.311 21.4077 215.33 21.3937 215.343 21.3751C215.357 21.3565 215.365 21.3342 215.366 21.3111C215.367 21.288 215.361 21.2651 215.349 21.2454C215.337 21.2257 215.319 21.2102 215.298 21.2007C215.277 21.1913 215.253 21.1884 215.23 21.1925C215.208 21.1965 215.187 21.2073 215.17 21.2235C215.153 21.2396 215.142 21.2604 215.137 21.2831C215.132 21.3119 215.137 21.342 215.152 21.367C215.168 21.3921 215.192 21.4103 215.221 21.4179Z" fill="#EB996E"/>
<path d="M213.956 21.3221C214.014 21.3221 214.066 21.2707 214.078 21.2001C214.076 21.1799 214.068 21.1607 214.055 21.1449C214.042 21.1291 214.025 21.1172 214.005 21.1106C213.986 21.104 213.965 21.1029 213.945 21.1075C213.926 21.1121 213.907 21.1222 213.893 21.1367C213.879 21.1511 213.868 21.1693 213.864 21.1892C213.859 21.2091 213.86 21.2298 213.867 21.2492C213.873 21.2685 213.885 21.2855 213.901 21.2984C213.917 21.3113 213.936 21.3195 213.956 21.3221Z" fill="#EB996E"/>
<path d="M216.337 21.4599C216.363 21.4644 216.389 21.4599 216.411 21.4469C216.433 21.434 216.45 21.4136 216.459 21.3893C216.462 21.3765 216.462 21.3633 216.459 21.3505C216.456 21.3377 216.451 21.3257 216.443 21.3154C216.435 21.305 216.425 21.2964 216.413 21.2903C216.402 21.2843 216.389 21.2808 216.376 21.2802C216.35 21.2735 216.323 21.2764 216.299 21.2882C216.276 21.3 216.257 21.3199 216.247 21.3444C216.245 21.3713 216.253 21.3981 216.27 21.4194C216.287 21.4408 216.311 21.4552 216.337 21.4599Z" fill="#EB996E"/>
<path d="M215.4 22.7039C215.429 22.7125 215.461 22.7101 215.488 22.697C215.515 22.684 215.537 22.6613 215.548 22.6333C215.556 22.6204 215.561 22.606 215.563 22.591C215.565 22.5761 215.564 22.5609 215.559 22.5464C215.555 22.5319 215.548 22.5185 215.538 22.507C215.529 22.4954 215.517 22.486 215.503 22.4792C215.489 22.4742 215.474 22.472 215.458 22.4728C215.443 22.4736 215.428 22.4773 215.415 22.4839C215.401 22.4905 215.389 22.4997 215.379 22.511C215.368 22.5223 215.361 22.5355 215.355 22.5499C215.342 22.5763 215.338 22.6072 215.347 22.636C215.355 22.6647 215.374 22.689 215.4 22.7039Z" fill="#EB996E"/>
<path d="M214.321 22.4849C214.333 22.4834 214.345 22.4793 214.356 22.4728C214.367 22.4664 214.376 22.4577 214.384 22.4475C214.391 22.4372 214.396 22.4255 214.398 22.4131C214.401 22.4008 214.401 22.388 214.398 22.3758C214.388 22.3516 214.369 22.3321 214.345 22.3214C214.321 22.3107 214.294 22.3094 214.269 22.318C214.245 22.3227 214.223 22.3367 214.209 22.357C214.195 22.3774 214.189 22.4025 214.192 22.4271C214.197 22.4396 214.203 22.4511 214.212 22.4609C214.221 22.4706 214.232 22.4785 214.244 22.4839C214.256 22.4893 214.269 22.4922 214.282 22.4924C214.295 22.4925 214.309 22.49 214.321 22.4849Z" fill="#EB996E"/>
<path d="M234.425 8.58134C234.627 7.80584 234.64 6.99327 234.464 6.21159C234.288 5.4299 233.927 4.70183 233.411 4.08824C232.889 3.45848 232.229 2.95726 231.482 2.62336C230.735 2.28946 229.922 2.13181 229.104 2.16262C228.271 2.28631 227.43 2.34639 226.588 2.34234C225.028 2.17546 223.828 0.962325 222.384 0.371803C221.246 -0.0661594 219.997 -0.118723 218.827 0.222187C217.657 0.563096 216.631 1.27862 215.907 2.2589C215.355 3.05482 214.996 4.04331 214.161 4.54397C213.436 4.98044 212.518 4.94193 211.703 5.18584C210.897 5.44942 210.199 5.96737 209.713 6.66184C209.227 7.35632 208.979 8.18982 209.007 9.03707C209.088 9.88171 209.399 10.6879 209.908 11.3672C210.416 12.0465 211.101 12.5728 211.889 12.8883C212.693 13.1991 213.555 13.3298 214.414 13.271C215.274 13.2122 216.11 12.9654 216.864 12.5481C218.224 11.8099 219.431 10.5583 220.997 10.6225C222.563 10.6867 224.014 12.1501 225.593 11.842C226.397 11.5937 227.116 11.1244 227.666 10.4877C228.218 9.84906 228.977 9.42431 229.81 9.2874C230.657 9.23605 231.094 10.3657 230.792 11.136L234.425 8.61985" fill="#263238"/>
<path d="M212.806 6.54693V6.61111C212.806 6.64962 212.864 6.7074 212.915 6.778C213.058 6.99212 213.231 7.18453 213.428 7.34927C214.058 7.88492 214.869 8.15717 215.694 8.10935C216.519 8.06152 217.294 7.69729 217.857 7.09251C218.304 6.4982 218.72 5.88118 219.103 5.24393C219.331 4.92373 219.629 4.66021 219.975 4.47369C220.348 4.29681 220.757 4.20891 221.169 4.21693C221.598 4.22982 222.017 4.34188 222.395 4.54429C222.779 4.75123 223.093 5.06582 223.3 5.44932C223.494 5.8537 223.708 6.2479 223.942 6.63038C224.067 6.82573 224.236 6.98906 224.436 7.10722C224.635 7.22539 224.86 7.2951 225.091 7.31076C225.545 7.3243 225.992 7.20131 226.375 6.95773C226.728 6.74719 227.05 6.48789 227.331 6.18748C227.802 5.61928 228.419 5.19083 229.116 4.94866C229.43 4.88998 229.753 4.89674 230.064 4.96853C230.376 5.04032 230.669 5.17559 230.926 5.36589C231.356 5.66991 231.699 6.08159 231.921 6.55977C232.09 6.91981 232.215 7.29917 232.293 7.68946C232.357 8.0104 232.389 8.26715 232.415 8.43403C232.416 8.52311 232.429 8.61166 232.453 8.69719V8.6266C232.453 8.58808 232.453 8.51748 232.453 8.43403C232.437 8.18015 232.407 7.92731 232.364 7.67662C232.298 7.27828 232.181 6.89 232.017 6.52125C231.793 6.02533 231.446 5.59461 231.009 5.2696C230.738 5.06332 230.426 4.91618 230.095 4.83769C229.763 4.75919 229.419 4.75109 229.084 4.81388C228.354 5.05736 227.709 5.50245 227.222 6.09762C226.946 6.38543 226.633 6.63575 226.291 6.84218C225.943 7.05868 225.54 7.17217 225.13 7.16955C224.921 7.15111 224.719 7.0833 224.542 6.97169C224.365 6.86009 224.216 6.7079 224.109 6.52767C223.865 6.18106 223.705 5.75742 223.467 5.35946C223.244 4.94995 222.908 4.61344 222.498 4.39024C222.103 4.17778 221.663 4.06125 221.214 4.05005C220.77 4.03769 220.33 4.13236 219.931 4.32605C219.562 4.52381 219.246 4.80522 219.006 5.14764C218.531 5.78951 218.249 6.48916 217.787 6.98982C217.346 7.46019 216.773 7.78675 216.144 7.92695C215.62 8.04172 215.076 8.01737 214.564 7.85634C214.18 7.73508 213.821 7.54357 213.505 7.2915C213.241 7.0742 213.006 6.82397 212.806 6.54693Z" fill="#455A64"/>
<path d="M209.539 6.6089C209.493 6.71448 209.469 6.82787 209.468 6.94267C209.441 7.26004 209.471 7.57969 209.558 7.88623C209.691 8.34284 209.921 8.76539 210.232 9.12504C210.627 9.56194 211.113 9.90607 211.657 10.1328C212.656 10.5239 213.741 10.6435 214.802 10.4794C215.12 10.4354 215.435 10.3733 215.745 10.2932C215.862 10.2761 215.975 10.2392 216.079 10.1841C216.079 10.1841 215.585 10.274 214.795 10.3574C213.759 10.4873 212.707 10.3572 211.734 9.97873C211.213 9.7616 210.744 9.43551 210.36 9.02234C210.057 8.6835 209.828 8.28579 209.686 7.85413C209.566 7.45054 209.516 7.02936 209.539 6.6089Z" fill="#455A64"/>
<path d="M256.529 68.9186C256.42 77.1731 251.394 84.7792 244.821 89.7922C238.248 94.8053 230.289 97.5846 222.356 99.8696C214.422 102.155 206.309 104.048 198.837 107.572C188.503 112.463 178.939 119.171 173.085 129.004C167.232 138.838 165.165 151.759 165.82 163.171L253.647 154.403L258.454 104.498L256.529 68.9186Z" fill="#309F50"/>
<path d="M177.85 122.005C177.787 122.131 177.712 122.252 177.626 122.364L176.926 123.353C176.618 123.776 176.233 124.29 175.841 124.919C175.45 125.548 174.949 126.235 174.5 127.063C174.051 127.891 173.499 128.744 173.017 129.739C172.536 130.734 172.016 131.78 171.515 132.91C170.471 135.385 169.613 137.934 168.948 140.536C168.335 143.146 167.898 145.794 167.638 148.463C167.523 149.695 167.42 150.87 167.388 151.967C167.356 153.065 167.324 154.092 167.311 155.029C167.298 155.966 167.311 156.813 167.349 157.558C167.388 158.303 167.394 158.944 167.426 159.484C167.459 160.023 167.465 160.382 167.478 160.69C167.495 160.831 167.495 160.973 167.478 161.114C167.441 160.978 167.419 160.838 167.414 160.697C167.382 160.389 167.343 159.991 167.298 159.496C167.253 159.002 167.189 158.335 167.163 157.571C167.138 156.807 167.067 155.979 167.073 155.035C167.08 154.092 167.073 153.071 167.106 151.961C167.138 150.85 167.227 149.682 167.33 148.437C167.588 145.75 168.034 143.084 168.665 140.459C169.324 137.842 170.182 135.28 171.233 132.795C171.746 131.665 172.234 130.587 172.773 129.617C173.312 128.648 173.813 127.749 174.295 126.941C174.776 126.132 175.277 125.445 175.687 124.823C176.098 124.2 176.496 123.693 176.823 123.276L177.568 122.332C177.65 122.213 177.745 122.103 177.85 122.005Z" fill="#263238"/>
<g opacity="0.4">
<path d="M256.531 68.9147C256.422 77.1691 251.396 84.7753 244.823 89.7883C238.25 94.8014 230.291 97.5807 222.358 99.8657C214.424 102.151 206.311 104.044 198.839 107.568C188.505 112.459 178.941 119.167 173.087 129C167.234 138.834 165.167 151.755 165.821 163.167L253.649 154.399L258.456 104.494L256.531 68.9147Z" fill="white"/>
</g>
<path d="M43.3716 133.596C41.3215 131.547 38.7738 130.066 35.9786 129.299C33.1835 128.532 30.237 128.505 27.4283 129.221C32.1867 132.463 37.8019 134.217 43.5596 134.259" fill="#309F50"/>
<path d="M37.9744 114.45C38.6579 109.75 36.8124 104.467 33.2956 101.052C33.1794 105.707 35.1446 110.947 37.9744 114.45Z" fill="#309F50"/>
<path d="M40.7743 123.324C38.2337 118.498 34.1891 114.632 29.2535 112.312C30.0253 115.017 31.5036 117.467 33.5362 119.41C35.5688 121.354 38.0825 122.721 40.8188 123.372" fill="#309F50"/>
<path d="M41.3576 125.037C38.5175 125.116 35.6467 125.016 32.9023 124.288C30.1579 123.56 27.5298 122.166 25.7047 119.996C31.2637 120.012 36.6938 121.671 41.3131 124.763" fill="#309F50"/>
<path d="M39.9152 119.392C41.3575 113.995 43.7328 110.26 47.9775 107.235C48.3023 109.89 47.6687 112.573 46.1905 114.802C44.7124 117.031 42.4871 118.658 39.9152 119.392Z" fill="#309F50"/>
<path d="M50.619 128.704C50.6294 127.13 50.1742 125.588 49.3108 124.271C48.4473 122.955 47.2141 121.923 45.7659 121.305C46.0018 124.091 48.1925 127.317 50.619 128.704Z" fill="#309F50"/>
<path d="M51.9879 124.154C52.1848 121.894 53.0234 119.737 54.4052 117.937C55.7869 116.138 57.6542 114.77 59.787 113.997C58.8095 118.508 56.1985 122.264 51.9879 124.154Z" fill="#309F50"/>
<path d="M49.9361 132.231C50.9374 130.799 52.5711 129.91 54.2594 129.466C55.9477 129.022 57.7146 128.984 59.4611 128.95C58.2708 130.241 56.815 131.259 55.1937 131.934C53.5725 132.609 51.8243 132.925 50.0694 132.86" fill="#309F50"/>
<path d="M47.9135 143.74C51.0977 142.758 54.5339 143.005 57.5451 144.432C60.5562 145.858 62.9239 148.361 64.1815 151.446C58.2724 150.325 52.4419 147.687 47.9135 143.74Z" fill="#309F50"/>
<path d="M41.4269 139.74C42.4077 142.642 42.2198 146.149 40.0359 148.65C39.6018 147.154 39.5014 145.58 39.7418 144.041C39.9821 142.501 40.5573 141.033 41.4269 139.74Z" fill="#309F50"/>
<path d="M37.5924 138.127C37.4309 139.996 36.7915 141.792 35.7357 143.342C34.6799 144.892 33.2433 146.144 31.5637 146.979C31.4855 147.029 31.3979 147.063 31.3063 147.078C31.2146 147.094 31.1208 147.09 31.0305 147.068C30.764 146.959 30.74 146.596 30.7742 146.309C31.2014 142.591 33.956 138.995 37.5924 138.107" fill="#309F50"/>
<path d="M35.0873 137.75C34.2545 138.649 33.2456 139.368 32.1234 139.862C31.0012 140.356 29.7895 140.614 28.5635 140.62C27.3375 140.626 26.1233 140.38 24.9962 139.897C23.8691 139.415 22.8532 138.706 22.0114 137.815C26.1673 137.36 30.9657 137.056 35.0873 137.75Z" fill="#309F50"/>
<path d="M34.4652 104.515C34.4765 104.556 34.4902 104.596 34.5062 104.635C34.5369 104.724 34.5779 104.84 34.6326 104.977C34.7488 105.294 34.9163 105.746 35.1316 106.323C35.3469 106.901 35.6135 107.625 35.9142 108.459L36.3961 109.792C36.5602 110.267 36.7379 110.769 36.9156 111.296C37.6504 113.401 38.4672 115.93 39.3524 118.743C40.2376 121.556 41.1296 124.672 42.025 127.953C42.9204 131.234 43.6928 134.389 44.3592 137.263C45.0257 140.137 45.5657 142.731 45.9655 144.929C46.0715 145.476 46.1672 145.999 46.2629 146.491C46.3586 146.983 46.4235 147.454 46.4987 147.892C46.6491 148.763 46.7789 149.515 46.8644 150.134C46.9498 150.753 47.0318 151.221 47.0831 151.552C47.1104 151.709 47.1275 151.832 47.1446 151.921C47.1617 152.01 47.1685 152.048 47.1685 152.048C47.1723 152.006 47.1723 151.963 47.1685 151.921C47.1685 151.829 47.1412 151.706 47.1207 151.549C47.0763 151.207 47.0147 150.735 46.9327 150.124C46.8507 149.512 46.7345 148.757 46.591 147.875C46.5192 147.437 46.444 146.969 46.3654 146.474L46.0817 144.908C45.6921 142.711 45.1453 140.124 44.5062 137.229C43.8671 134.334 43.0674 131.204 42.1822 127.912C41.297 124.621 40.3708 121.518 39.4959 118.685C38.621 115.852 37.7871 113.346 37.025 111.248C36.837 110.722 36.6627 110.223 36.4952 109.744C36.3278 109.266 36.1535 108.832 35.9997 108.415C35.6921 107.584 35.4255 106.867 35.1931 106.289C34.9607 105.711 34.7898 105.264 34.6634 104.953C34.6053 104.806 34.5574 104.693 34.5233 104.611C34.5063 104.578 34.4869 104.546 34.4652 104.515Z" fill="#263238"/>
<path d="M57.3029 116.408L57.2311 116.476L57.0329 116.685C56.8586 116.869 56.6091 117.146 56.2947 117.512C55.4037 118.541 54.586 119.632 53.8477 120.776C52.7457 122.471 51.8842 124.312 51.2879 126.244C50.6043 128.421 50.1737 130.899 49.7499 133.489C48.9058 138.674 47.8702 143.315 47.1183 146.675L46.2161 150.649C46.1135 151.111 46.0349 151.477 45.9768 151.733C45.9529 151.849 45.9358 151.941 45.9187 152.017C45.9156 152.048 45.9156 152.08 45.9187 152.112C45.9329 152.083 45.9433 152.052 45.9495 152.02C45.9495 151.948 45.9905 151.856 46.0213 151.74L46.2913 150.663C46.5168 149.716 46.8415 148.366 47.2414 146.699C48.0206 143.346 49.0766 138.705 49.9208 133.517C50.3446 130.926 50.765 128.455 51.4417 126.285C52.0255 124.356 52.8707 122.516 53.9536 120.817C54.6798 119.672 55.4789 118.575 56.346 117.532C56.6501 117.16 56.8962 116.88 57.0603 116.688L57.2482 116.466C57.2858 116.439 57.3063 116.411 57.3029 116.408Z" fill="#263238"/>
<path d="M33.8457 137.573C33.8943 137.589 33.9449 137.598 33.9961 137.6L34.4267 137.648L34.7377 137.679L35.1034 137.733C35.37 137.771 35.6707 137.812 35.9988 137.884L36.5149 137.986L37.0651 138.126C37.4513 138.212 37.8478 138.355 38.2715 138.468C39.1794 138.783 40.0606 139.171 40.9065 139.627C41.7433 140.097 42.533 140.646 43.2647 141.267C43.5828 141.54 43.8852 141.831 44.1704 142.139C44.4247 142.4 44.6643 142.675 44.8881 142.962C45.1068 143.215 45.2606 143.478 45.4178 143.694C45.5504 143.88 45.6714 144.074 45.7801 144.275L46.0023 144.644C46.0251 144.689 46.0538 144.732 46.0877 144.77C46.0877 144.77 46.0877 144.719 46.0296 144.63C45.9715 144.541 45.9134 144.398 45.8348 144.244C45.7345 144.037 45.6203 143.837 45.493 143.646C45.3345 143.386 45.1622 143.135 44.977 142.894C44.7573 142.597 44.5199 142.314 44.2661 142.046C43.9812 141.733 43.6788 141.437 43.3604 141.158C42.6218 140.522 41.8202 139.963 40.9681 139.49C40.1149 139.028 39.2243 138.64 38.3057 138.328C37.8751 138.205 37.4752 138.068 37.0856 137.986L36.5251 137.853L36.0022 137.761C35.6605 137.692 35.37 137.661 35.1034 137.631L34.7309 137.59L34.4164 137.573H33.9824C33.9371 137.566 33.891 137.566 33.8457 137.573Z" fill="#263238"/>
<path d="M32.6654 116.506C32.7555 116.61 32.855 116.707 32.9627 116.793L33.8206 117.534C34.5451 118.157 35.5567 119.008 36.6811 119.927C37.8055 120.846 38.8274 121.697 39.5725 122.295L40.461 122.999C40.5655 123.092 40.6802 123.172 40.8028 123.239C40.712 123.133 40.6112 123.037 40.5021 122.951L39.6476 122.21C38.9197 121.588 37.9081 120.737 36.7871 119.817C35.6661 118.898 34.6408 118.047 33.8957 117.449L33.0072 116.745C32.9027 116.653 32.788 116.572 32.6654 116.506Z" fill="#263238"/>
<path d="M31.6414 122.007C31.6414 122.048 33.8116 122.732 36.515 123.528C39.2183 124.324 41.4227 124.943 41.4364 124.895C41.4501 124.847 39.2662 124.17 36.5594 123.371C33.8526 122.571 31.6517 121.963 31.6414 122.007Z" fill="#263238"/>
<path d="M39.7003 119.816C39.7871 119.72 39.8628 119.615 39.9259 119.502L40.5 118.613C40.9887 117.875 41.6825 116.867 42.5028 115.794C43.323 114.72 44.1125 113.787 44.6935 113.121L45.377 112.332C45.4684 112.24 45.5498 112.139 45.6197 112.031C45.5147 112.107 45.4185 112.194 45.3326 112.291C45.1549 112.461 44.9054 112.721 44.6012 113.046C43.9997 113.695 43.1931 114.621 42.3695 115.698C41.5458 116.774 40.8657 117.796 40.4009 118.552C40.1685 118.931 39.984 119.235 39.8643 119.457C39.796 119.57 39.7409 119.691 39.7003 119.816Z" fill="#263238"/>
<path d="M47.2824 122.865C47.4351 123.157 47.6064 123.438 47.795 123.709C48.1368 124.221 48.564 124.932 49.0219 125.739C49.4799 126.545 49.8661 127.287 50.1395 127.83C50.2742 128.131 50.4295 128.422 50.6043 128.702C50.5118 128.385 50.3906 128.077 50.242 127.783C49.9925 127.225 49.62 126.47 49.1621 125.66C48.7041 124.85 48.2393 124.143 47.8873 123.644C47.7114 123.365 47.5088 123.104 47.2824 122.865Z" fill="#263238"/>
<path d="M49.8755 132.382C49.8755 132.403 50.3027 132.201 50.9862 131.894C51.6698 131.586 52.6199 131.186 53.693 130.807C54.7661 130.427 55.7641 130.151 56.4886 129.966C57.2132 129.782 57.6643 129.682 57.6609 129.659C57.5515 129.653 57.442 129.664 57.3362 129.693C57.1277 129.723 56.8304 129.778 56.4613 129.857C55.5061 130.067 54.5645 130.335 53.6417 130.66C52.7183 130.981 51.8155 131.359 50.9384 131.791C50.5966 131.959 50.3335 132.102 50.1523 132.205C50.053 132.252 49.9601 132.312 49.8755 132.382Z" fill="#263238"/>
<path d="M47.8334 143.754C47.8756 143.775 47.9204 143.79 47.9667 143.799L48.3597 143.898L49.8122 144.24C51.4124 144.578 52.9945 144.996 54.5525 145.494C56.1098 146.01 57.601 146.707 58.9954 147.572C59.5252 147.914 59.9353 148.204 60.2121 148.419C60.3525 148.536 60.4997 148.645 60.653 148.744C60.6251 148.706 60.593 148.672 60.5573 148.642C60.4855 148.58 60.3899 148.484 60.2531 148.372C59.8716 148.051 59.4722 147.752 59.057 147.476C57.6725 146.58 56.1795 145.863 54.614 145.344C53.0463 144.839 51.4482 144.433 49.8293 144.13L48.3666 143.847C48.1913 143.803 48.0131 143.772 47.8334 143.754Z" fill="#263238"/>
<path d="M40.4493 146.557C40.4937 146.557 40.7534 145.032 41.0303 143.139C41.3071 141.246 41.4985 139.704 41.4541 139.698C41.4096 139.691 41.1499 141.222 40.8731 143.115C40.5962 145.009 40.4048 146.55 40.4493 146.557Z" fill="#263238"/>
<path d="M32.7631 143.766C33.0094 143.507 33.2378 143.232 33.4466 142.942C33.8636 142.426 34.4377 141.715 35.0905 140.939C35.7433 140.163 36.3448 139.476 36.7993 138.977C37.0447 138.718 37.2731 138.443 37.4829 138.154C37.4829 138.154 37.3974 138.212 37.2641 138.342C37.1308 138.472 36.9224 138.66 36.7105 138.899C36.2491 139.381 35.6305 140.061 34.9777 140.837C34.325 141.612 33.7645 142.34 33.368 142.887C33.1732 143.157 33.0263 143.376 32.9135 143.53C32.8522 143.601 32.8015 143.68 32.7631 143.766Z" fill="#263238"/>
<path d="M53.1088 150.895V154.695H52.1587L48.7821 165.351H41.294L38.0234 154.801L36.7554 154.695V150.895H53.1088Z" fill="#332C21" fill-opacity="0.9"/>
<path d="M37.3866 154.8C37.3866 154.844 40.6949 154.878 44.7721 154.878C48.8494 154.878 52.1577 154.844 52.1577 154.8C52.1577 154.755 48.8494 154.721 44.7721 154.721C40.6949 154.721 37.3866 154.755 37.3866 154.8Z" fill="#263238"/>
<path d="M32.0049 130.365C32.1595 130.424 32.3198 130.468 32.4834 130.494L33.7992 130.812C34.9065 131.086 36.4273 131.496 38.0781 132.056C39.7288 132.617 41.1915 133.201 42.2373 133.652L43.4779 134.192C43.6259 134.268 43.7803 134.331 43.9393 134.38C43.8014 134.288 43.6563 134.207 43.5053 134.138C43.2216 133.991 42.8047 133.796 42.2852 133.55C40.9283 132.93 39.54 132.381 38.1259 131.906C36.7132 131.431 35.277 131.03 33.8231 130.703C33.266 130.58 32.7978 130.488 32.497 130.436C32.335 130.4 32.1705 130.376 32.0049 130.365Z" fill="#263238"/>
<path d="M39.8762 160.717C39.8762 160.761 42.1967 160.799 45.0573 160.799C47.9179 160.799 50.2385 160.761 50.2385 160.717C50.2385 160.672 47.9179 160.638 45.0573 160.638C42.1967 160.638 39.8762 160.676 39.8762 160.717Z" fill="#FAFAFA"/>
<path d="M39.583 159.841C39.583 159.882 42.0403 159.919 45.0718 159.919C48.1032 159.919 50.5639 159.882 50.5639 159.841C50.5639 159.8 48.1032 159.759 45.0718 159.759C42.0403 159.759 39.583 159.796 39.583 159.841Z" fill="#FAFAFA"/>
</svg>
