<svg width="42" height="42" viewBox="0 0 42 42" fill="none" xmlns="http://www.w3.org/2000/svg">
<path d="M15.2291 36.7462C15.2272 34.2669 15.2211 31.7876 15.2298 29.3083C15.231 29.0206 15.1362 28.85 14.9055 28.6775C12.4371 26.8332 10.9445 24.3774 10.7002 21.3055C10.3655 17.0934 12.0335 13.7862 15.589 11.4843C17.0312 10.5505 18.6358 10.0669 20.3609 9.97583C23.2798 9.82183 25.8183 10.7236 27.9735 12.6898C29.8734 14.4238 31.0037 16.5889 31.2516 19.1415C31.6362 23.0967 30.1916 26.2937 27.0261 28.6979C26.8181 28.8555 26.7221 29.0089 26.7233 29.2781C26.7338 31.6244 26.7295 33.9706 26.7288 36.3168C26.7288 36.4598 26.7184 36.6033 26.7128 36.7462H15.2291ZM20.3849 26.0281C20.3849 26.7556 20.3849 27.4831 20.3849 28.2106C20.3849 28.8064 20.6785 29.1036 21.2654 29.1019C21.6696 29.1007 21.6708 29.1007 21.6708 28.6923C21.6714 26.93 21.6714 25.1683 21.6708 23.4059C21.6708 23.2101 21.6758 23.0235 21.8136 22.8571C22.3237 22.2424 22.8282 21.6233 23.3265 20.9993C23.4446 20.8515 23.5388 20.8447 23.679 20.9618C24.0316 21.2581 24.3859 21.5531 24.7508 21.834C24.9379 21.9781 24.9231 22.0896 24.7785 22.2578C24.4315 22.6612 24.1079 23.0851 23.7646 23.4916C23.6446 23.6339 23.5929 23.7798 23.5942 23.9652C23.6009 24.7439 23.5972 25.5225 23.5972 26.3011C23.5972 27.1308 23.6046 27.9611 23.5929 28.7903C23.5899 29.0335 23.6723 29.1241 23.9128 29.105C24.106 29.0896 24.3023 29.0914 24.4955 29.105C24.717 29.1198 24.8192 29.0409 24.8056 28.8087C24.7933 28.6048 24.816 28.3978 24.8001 28.1946C24.7804 27.9475 24.8776 27.7973 25.0942 27.6784C25.6614 27.3673 26.1856 26.9904 26.6581 26.5475C29.4975 23.8846 30.2506 19.9282 28.4706 16.4602C27.0316 13.6563 24.6548 12.1089 21.5189 11.8884C18.8075 11.6981 16.4836 12.6609 14.684 14.717C12.6826 17.0035 12.0814 19.6664 12.8788 22.5947C13.4848 24.8203 14.8489 26.5019 16.8417 27.6636C17.0435 27.7813 17.1622 27.9051 17.1585 28.165C17.1542 28.465 17.0103 28.8555 17.2336 29.0452C17.4447 29.2251 17.8248 29.0779 18.1282 29.105C18.3743 29.1265 18.4702 29.0458 18.4684 28.7816C18.458 27.1733 18.4617 25.565 18.466 23.9561C18.466 23.7824 18.4192 23.645 18.306 23.5101C17.9498 23.0875 17.6107 22.6501 17.2545 22.2276C17.1248 22.0736 17.137 21.9714 17.2914 21.8494C17.6446 21.5698 17.9959 21.2877 18.3343 20.9907C18.5066 20.8398 18.6106 20.8509 18.7539 21.0326C19.2098 21.6116 19.6756 22.1838 20.1518 22.7463C20.3142 22.9384 20.3911 23.135 20.3887 23.3863C20.38 24.2671 20.3849 25.1486 20.3856 26.0295L20.3849 26.0281ZM20.9559 34.8804C22.1224 34.8804 23.289 34.873 24.4549 34.8859C24.7238 34.889 24.8105 34.8047 24.8074 34.5354C24.7951 33.4705 24.7957 32.4048 24.8074 31.3397C24.8105 31.0767 24.7348 30.9831 24.4598 30.9843C22.1372 30.9936 19.8146 30.9936 17.492 30.9843C17.2207 30.9831 17.1401 31.0669 17.1431 31.3355C17.1561 32.4005 17.1585 33.4661 17.1419 34.5311C17.137 34.8286 17.2484 34.889 17.5173 34.8859C18.6628 34.8736 19.8091 34.881 20.9547 34.881L20.9559 34.8804Z" fill="#ECB359"/>
<path d="M34.4039 13.6074C34.4236 13.7127 34.3448 13.7515 34.2747 13.7916C33.5118 14.2307 32.7476 14.6668 31.9865 15.1085C31.8487 15.1886 31.7638 15.1603 31.6882 15.026C31.447 14.5979 31.2033 14.171 30.956 13.7466C30.8773 13.6111 30.9043 13.5211 31.0379 13.4448C31.802 13.008 32.5649 12.5695 33.3278 12.1309C33.4244 12.0754 33.521 12.0404 33.5912 12.1623C33.8569 12.6237 34.1203 13.0862 34.3842 13.5489C34.3941 13.5661 34.3978 13.5871 34.4045 13.6068L34.4039 13.6074Z" fill="#ECB359"/>
<path d="M11.204 27.1342C11.2176 27.2388 11.1357 27.2764 11.0674 27.3164C10.3174 27.7569 9.56556 28.193 8.81682 28.6346C8.67224 28.7197 8.57442 28.6994 8.48951 28.5527C8.24464 28.1271 7.99607 27.7033 7.74566 27.2807C7.67245 27.1569 7.6989 27.0738 7.8201 27.0035C8.5978 26.5508 9.37489 26.0956 10.1513 25.641C10.232 25.5936 10.3125 25.5818 10.3648 25.6706C10.6404 26.1375 10.9117 26.6075 11.1837 27.0762C11.1936 27.0935 11.1973 27.115 11.2034 27.1342H11.204Z" fill="#ECB359"/>
<path d="M34.3011 27.1856C34.2832 27.2225 34.2636 27.2694 34.2384 27.3137C34.0027 27.7209 33.7609 28.1244 33.532 28.5358C33.4323 28.7157 33.3241 28.72 33.161 28.6233C32.4313 28.1909 31.6986 27.7622 30.9633 27.339C30.8083 27.2497 30.7646 27.1597 30.863 26.9971C31.1109 26.5856 31.3522 26.1692 31.589 25.751C31.6751 25.5989 31.7668 25.5896 31.9114 25.6753C32.6503 26.1132 33.3935 26.5432 34.1337 26.9787C34.2088 27.023 34.3066 27.0569 34.3017 27.1862L34.3011 27.1856Z" fill="#ECB359"/>
<path d="M15.7994 9.39629C15.8142 9.52317 15.7324 9.55948 15.6634 9.59955C15.2494 9.84219 14.8316 10.0794 14.4194 10.3258C14.2515 10.4262 14.161 10.3603 14.0767 10.213C13.6497 9.4683 13.2203 8.72423 12.7871 7.98259C12.7022 7.83784 12.72 7.74236 12.869 7.65797C13.2867 7.42082 13.702 7.17997 14.1149 6.93481C14.2582 6.8498 14.356 6.87013 14.4409 7.01858C14.8716 7.77316 15.3066 8.52588 15.7397 9.27922C15.7649 9.32297 15.7859 9.36917 15.7994 9.39629Z" fill="#ECB359"/>
<path d="M27.7085 10.3755C27.6808 10.3632 27.6414 10.3509 27.6063 10.3305C27.1732 10.0805 26.7407 9.82793 26.3064 9.57908C26.1796 9.50636 26.171 9.42201 26.2411 9.30126C26.6829 8.54176 27.1227 7.78041 27.5602 7.01844C27.6439 6.87246 27.7405 6.84844 27.8856 6.93467C28.2986 7.17984 28.7138 7.42068 29.1309 7.65722C29.2817 7.74284 29.2927 7.83954 29.2091 7.98246C28.7704 8.73209 28.3373 9.48545 27.901 10.2363C27.8611 10.3053 27.8205 10.3829 27.7078 10.3755H27.7085Z" fill="#ECB359"/>
<path d="M11.098 13.6174C11.0764 13.6642 11.0549 13.7215 11.0248 13.7745C10.7971 14.1743 10.5621 14.5703 10.3413 14.9744C10.2477 15.1456 10.1542 15.1839 9.97822 15.081C9.23683 14.6473 8.49178 14.2205 7.74301 13.7997C7.57135 13.703 7.57505 13.6026 7.66303 13.4529C7.90174 13.0476 8.13862 12.6405 8.36442 12.2278C8.45794 12.0571 8.55761 12.0553 8.71019 12.144C9.44359 12.5708 10.1807 12.9909 10.9159 13.4154C10.9928 13.4597 11.0869 13.4942 11.0974 13.6174H11.098Z" fill="#ECB359"/>
<path d="M21.9369 6.77896C21.9369 7.19784 21.9326 7.6167 21.9389 8.03556C21.9419 8.22898 21.8656 8.31214 21.6675 8.30906C21.2085 8.30167 20.7489 8.30105 20.2899 8.30906C20.0918 8.31275 20.0131 8.22837 20.0137 8.03742C20.0161 7.19968 20.0161 6.36134 20.0137 5.5236C20.0137 5.33388 20.0881 5.24641 20.2881 5.25011C20.7471 5.25873 21.2067 5.25812 21.6657 5.25011C21.8619 5.24703 21.9413 5.32649 21.9389 5.52176C21.9326 5.94062 21.9369 6.35949 21.9369 6.77835V6.77896Z" fill="#ECB359"/>
<path d="M7.61069 19.4507C8.00877 19.4507 8.40745 19.4588 8.8055 19.4476C9.0246 19.4414 9.11988 19.5117 9.11376 19.7439C9.10203 20.1831 9.10763 20.6229 9.1156 21.0627C9.11927 21.2543 9.05286 21.3387 8.85108 21.3399C8.0346 21.3454 7.21755 21.3578 6.4011 21.3762C6.16238 21.3818 6.04487 21.311 6.05533 21.0455C6.07194 20.6167 6.06702 20.1868 6.05533 19.7575C6.04979 19.5364 6.12547 19.4434 6.35434 19.4495C6.77271 19.4612 7.19171 19.4525 7.61069 19.4525C7.61069 19.4519 7.61069 19.4513 7.61069 19.4507Z" fill="#ECB359"/>
<path d="M34.3887 21.3371C33.9907 21.3371 33.5919 21.3298 33.1939 21.3402C32.9779 21.3458 32.8758 21.2823 32.8832 21.0464C32.8967 20.6072 32.8949 20.1674 32.885 19.7276C32.8801 19.5095 32.9743 19.4455 33.1785 19.4473C34.0055 19.4547 34.8329 19.4554 35.6598 19.4491C35.8739 19.4473 35.9478 19.5342 35.9435 19.7411C35.9336 20.1908 35.9305 20.6411 35.941 21.0907C35.9459 21.3131 35.8388 21.3753 35.6432 21.3734C35.2249 21.3698 34.8071 21.3722 34.3887 21.3722C34.3887 21.3606 34.3887 21.3489 34.3887 21.3365V21.3371Z" fill="#ECB359"/>
</svg>
