<svg width="32" height="34" viewBox="0 0 32 34" fill="none" xmlns="http://www.w3.org/2000/svg">
<mask id="mask0_1_2701" style="mask-type:alpha" maskUnits="userSpaceOnUse" x="-3" y="-2" width="38" height="38">
<rect x="-2.4285" y="-1.21351" width="36.429" height="36.429" fill="#D9D9D9"/>
</mask>
<g mask="url(#mask0_1_2701)">
<path d="M3.35721 34.0004C2.41909 34.0004 1.62502 33.6891 0.975014 33.0666C0.325005 32.444 0 31.6835 0 30.785V6.97797C0 6.07949 0.325005 5.31897 0.975014 4.69643C1.62502 4.07389 2.41909 3.76261 3.35721 3.76261H5.92869V1.36817C5.92869 0.978255 6.06501 0.652738 6.33764 0.391625C6.61024 0.130542 6.95012 0 7.35727 0C7.76439 0 8.10427 0.130542 8.3769 0.391625C8.6495 0.652738 8.78581 0.978255 8.78581 1.36817V3.76261H22.8574V1.33398C22.8574 0.955444 22.9907 0.638478 23.2574 0.383087C23.524 0.127695 23.855 0 24.2502 0C24.6455 0 24.9764 0.127695 25.2431 0.383087C25.5098 0.638478 25.6431 0.955444 25.6431 1.33398V3.76261H28.2146C29.1527 3.76261 29.9468 4.07389 30.5968 4.69643C31.2468 5.31897 31.5718 6.07949 31.5718 6.97797V30.785C31.5718 31.6835 31.2468 32.444 30.5968 33.0666C29.9468 33.6891 29.1527 34.0004 28.2146 34.0004H3.35721ZM3.35721 31.3324H28.2146C28.3575 31.3324 28.4884 31.2754 28.6075 31.1614C28.7266 31.0473 28.7861 30.9219 28.7861 30.785V14.0928H2.78571V30.785C2.78571 30.9219 2.84523 31.0473 2.96427 31.1614C3.08335 31.2754 3.21433 31.3324 3.35721 31.3324ZM2.78571 11.4248H28.7861V6.97797C28.7861 6.84113 28.7266 6.71568 28.6075 6.60164C28.4884 6.48762 28.3575 6.43062 28.2146 6.43062H3.35721C3.21433 6.43062 3.08335 6.48762 2.96427 6.60164C2.84523 6.71568 2.78571 6.84113 2.78571 6.97797V11.4248ZM15.7859 20.797C15.3311 20.797 14.9436 20.6437 14.6234 20.337C14.3032 20.0303 14.143 19.6591 14.143 19.2236C14.143 18.788 14.3032 18.4169 14.6234 18.1102C14.9436 17.8035 15.3311 17.6502 15.7859 17.6502C16.2407 17.6502 16.6282 17.8035 16.9484 18.1102C17.2686 18.4169 17.4287 18.788 17.4287 19.2236C17.4287 19.6591 17.2686 20.0303 16.9484 20.337C16.6282 20.6437 16.2407 20.797 15.7859 20.797ZM8.35722 20.797C7.90246 20.797 7.51496 20.6437 7.19472 20.337C6.87448 20.0303 6.71436 19.6591 6.71436 19.2236C6.71436 18.788 6.87448 18.4169 7.19472 18.1102C7.51496 17.8035 7.90246 17.6502 8.35722 17.6502C8.81198 17.6502 9.19947 17.8035 9.51971 18.1102C9.83995 18.4169 10.0001 18.788 10.0001 19.2236C10.0001 19.6591 9.83995 20.0303 9.51971 20.337C9.19947 20.6437 8.81198 20.797 8.35722 20.797ZM23.2146 20.797C22.7598 20.797 22.3723 20.6437 22.0521 20.337C21.7318 20.0303 21.5717 19.6591 21.5717 19.2236C21.5717 18.788 21.7318 18.4169 22.0521 18.1102C22.3723 17.8035 22.7598 17.6502 23.2146 17.6502C23.6693 17.6502 24.0568 17.8035 24.3771 18.1102C24.6973 18.4169 24.8574 18.788 24.8574 19.2236C24.8574 19.6591 24.6973 20.0303 24.3771 20.337C24.0568 20.6437 23.6693 20.797 23.2146 20.797ZM15.7859 27.775C15.3311 27.775 14.9436 27.6216 14.6234 27.3149C14.3032 27.0082 14.143 26.6371 14.143 26.2016C14.143 25.766 14.3032 25.3949 14.6234 25.0882C14.9436 24.7814 15.3311 24.6281 15.7859 24.6281C16.2407 24.6281 16.6282 24.7814 16.9484 25.0882C17.2686 25.3949 17.4287 25.766 17.4287 26.2016C17.4287 26.6371 17.2686 27.0082 16.9484 27.3149C16.6282 27.6216 16.2407 27.775 15.7859 27.775ZM8.35722 27.775C7.90246 27.775 7.51496 27.6216 7.19472 27.3149C6.87448 27.0082 6.71436 26.6371 6.71436 26.2016C6.71436 25.766 6.87448 25.3949 7.19472 25.0882C7.51496 24.7814 7.90246 24.6281 8.35722 24.6281C8.81198 24.6281 9.19947 24.7814 9.51971 25.0882C9.83995 25.3949 10.0001 25.766 10.0001 26.2016C10.0001 26.6371 9.83995 27.0082 9.51971 27.3149C9.19947 27.6216 8.81198 27.775 8.35722 27.775ZM23.2146 27.775C22.7598 27.775 22.3723 27.6216 22.0521 27.3149C21.7318 27.0082 21.5717 26.6371 21.5717 26.2016C21.5717 25.766 21.7318 25.3949 22.0521 25.0882C22.3723 24.7814 22.7598 24.6281 23.2146 24.6281C23.6693 24.6281 24.0568 24.7814 24.3771 25.0882C24.6973 25.3949 24.8574 25.766 24.8574 26.2016C24.8574 26.6371 24.6973 27.0082 24.3771 27.3149C24.0568 27.6216 23.6693 27.775 23.2146 27.775Z" fill="white"/>
</g>
</svg>
