<svg width="14" height="16" viewBox="0 0 14 16" fill="none" xmlns="http://www.w3.org/2000/svg">
<path d="M2.62056 15.7592C2.15508 15.7592 1.75752 15.5943 1.42786 15.2646C1.09818 14.935 0.933348 14.5374 0.933348 14.0719V2.22564H0.700011C0.501379 2.22564 0.335056 2.15863 0.201043 2.02462C0.0670143 1.89061 0 1.72428 0 1.52565C0 1.32702 0.0670143 1.1607 0.201043 1.02668C0.335056 0.892654 0.501379 0.825639 0.700011 0.825639H4.20004C4.20004 0.597093 4.28051 0.402351 4.44145 0.241411C4.60239 0.0804704 4.79714 0 5.02568 0H8.97449C9.20304 0 9.39778 0.0804704 9.55872 0.241411C9.71966 0.402351 9.80013 0.597093 9.80013 0.825639H13.3002C13.4988 0.825639 13.6651 0.892654 13.7991 1.02668C13.9332 1.1607 14.0002 1.32702 14.0002 1.52565C14.0002 1.72428 13.9332 1.89061 13.7991 2.02462C13.6651 2.15863 13.4988 2.22564 13.3002 2.22564H13.0668V14.0719C13.0668 14.5374 12.902 14.935 12.5723 15.2646C12.2427 15.5943 11.8451 15.7592 11.3796 15.7592H2.62056ZM11.6668 2.22564H2.33335V14.0719C2.33335 14.1557 2.36027 14.2245 2.41413 14.2784C2.46798 14.3322 2.53679 14.3592 2.62056 14.3592H11.3796C11.4634 14.3592 11.5322 14.3322 11.586 14.2784C11.6399 14.2245 11.6668 14.1557 11.6668 14.0719V2.22564ZM4.577 12.4925H5.977V4.09233H4.577V12.4925ZM8.02318 12.4925H9.42317V4.09233H8.02318V12.4925Z" fill="#309F50"/>
</svg>
