<svg width="26" height="22" viewBox="0 0 26 22" fill="none" xmlns="http://www.w3.org/2000/svg">
<path d="M2.4737 22C1.79125 22 1.20835 21.7714 0.725026 21.3143C0.241675 20.8573 0 20.306 0 19.6606V17.0973C0 16.7638 0.117992 16.4855 0.353977 16.2623C0.589939 16.0392 0.88423 15.9276 1.23685 15.9276H24.7631C25.1158 15.9276 25.4101 16.0392 25.646 16.2623C25.882 16.4855 26 16.7638 26 17.0973V19.6606C26 20.306 25.7583 20.8573 25.275 21.3143C24.7916 21.7714 24.2088 22 23.5263 22H2.4737ZM2.0526 17.8687V19.6606C2.0526 19.7768 2.09208 19.8722 2.17104 19.9468C2.25 20.0215 2.35089 20.0588 2.4737 20.0588H23.5263C23.6491 20.0588 23.75 20.0215 23.829 19.9468C23.9079 19.8722 23.9474 19.7768 23.9474 19.6606V17.8687H2.0526ZM13 12.3687C12.1877 12.3687 11.5531 12.5844 11.096 13.0158C10.639 13.4472 9.82457 13.6628 8.65265 13.6628C7.48071 13.6628 6.67325 13.4472 6.23027 13.0158C5.78728 12.5844 5.15966 12.3687 4.34738 12.3687C3.68247 12.3687 3.15044 12.5288 2.75132 12.8491C2.3522 13.1693 1.79298 13.4032 1.07367 13.5509C0.796491 13.6255 0.548259 13.5699 0.328969 13.3841C0.109656 13.1983 0 12.9677 0 12.6923C0 12.4169 0.100442 12.1796 0.301327 11.9806C0.502189 11.7815 0.741219 11.6205 1.01842 11.4978C1.48509 11.3368 1.93992 11.1182 2.38291 10.842C2.82589 10.5657 3.48071 10.4276 4.34738 10.4276C5.5193 10.4276 6.32675 10.6433 6.76973 11.0747C7.21272 11.506 7.84036 11.7217 8.65265 11.7217C9.46493 11.7217 10.0996 11.506 10.5566 11.0747C11.0136 10.6433 11.8281 10.4276 13 10.4276C14.1719 10.4276 14.9864 10.6433 15.4434 11.0747C15.9004 11.506 16.5351 11.7217 17.3473 11.7217C18.1596 11.7217 18.7829 11.506 19.2171 11.0747C19.6513 10.6433 20.4544 10.4276 21.6263 10.4276C22.4649 10.4276 23.1171 10.5624 23.5829 10.832C24.0487 11.1016 24.5149 11.3169 24.9816 11.4779C25.2588 11.6006 25.4978 11.7649 25.6987 11.9706C25.8996 12.1763 26 12.4169 26 12.6923C26 12.9677 25.8939 13.1983 25.6816 13.3841C25.4693 13.5699 25.2246 13.6255 24.9474 13.5509C24.2509 13.4032 23.7123 13.1693 23.3316 12.8491C22.9509 12.5288 22.4281 12.3687 21.7632 12.3687C20.9509 12.3687 20.3048 12.5844 19.825 13.0158C19.3452 13.4472 18.5193 13.6628 17.3473 13.6628C16.1754 13.6628 15.361 13.4472 14.904 13.0158C14.4469 12.5844 13.8123 12.3687 13 12.3687ZM13 0C14.5912 0 16.1605 0.12278 17.7079 0.36834C19.2553 0.613878 20.6425 1.00875 21.8697 1.55295C23.0969 2.09712 24.0921 2.81635 24.8552 3.71063C25.6184 4.60489 26 5.70738 26 7.01809C26 7.33497 25.882 7.60499 25.646 7.82814C25.4101 8.05129 25.1245 8.16287 24.7895 8.16287H1.21054C0.875461 8.16287 0.589939 8.05129 0.353977 7.82814C0.117992 7.60499 0 7.33497 0 7.01809C0 5.70738 0.381585 4.60489 1.14476 3.71063C1.9079 2.81635 2.90308 2.09712 4.13028 1.55295C5.35746 1.00875 6.74474 0.613878 8.29211 0.36834C9.83948 0.12278 11.4088 0 13 0ZM13 1.94115C9.80347 1.94115 7.28152 2.31487 5.43415 3.06231C3.58678 3.80975 2.5017 4.8629 2.17891 6.22175H23.8211C23.4983 4.8629 22.4132 3.80975 20.5659 3.06231C18.7185 2.31487 16.1965 1.94115 13 1.94115Z" fill="#E6A238"/>
</svg>
