<svg width="17" height="23" viewBox="0 0 17 23" fill="none" xmlns="http://www.w3.org/2000/svg">
<path d="M5.82759 21.6597C3.43871 17.4187 4.43888 12.0817 8.20591 8.97029C8.20811 8.96853 8.21031 8.96633 8.21207 8.96501L8.19579 9.00549L8.19843 9.03586C7.46447 10.9746 7.56744 13.103 8.46904 14.9291L9.10444 16.2166L9.29936 14.794C9.43181 13.829 9.79571 12.9085 10.3563 12.1204H10.4447L10.4914 11.9884C10.4848 13.4629 10.7954 14.9154 11.4049 16.2857C12.2044 18.0788 12.0869 20.1464 11.0903 21.8176L10.4025 22.9714L11.6398 22.4486C13.6802 21.5866 15.3114 19.926 16.1153 17.8926C17.016 15.6221 16.8493 12.9895 15.6687 10.8518C15.0531 9.73989 14.6219 8.55931 14.3865 7.34221L14.1563 6.14931L13.5693 7.21328C13.289 7.72063 13.0827 8.26978 12.9546 8.84665L12.9414 8.86029L12.9278 8.95269L12.915 8.94873C11.1567 6.61265 10.1033 3.70587 9.94972 0.762558L9.91012 0L9.27032 0.417141C6.65923 2.11871 4.8459 4.8486 4.28575 7.916L4.27299 7.97892L4.26639 7.9886L4.23779 7.94812C3.72604 7.27225 3.45587 6.46833 3.45587 5.62216V4.31178L2.66515 5.35639C0.826737 7.78443 -0.115791 10.7964 0.0109346 13.8378C0.166704 17.4178 2.11908 20.56 5.234 22.2625L6.58267 22.9995L5.82759 21.6597Z" fill="#70C054"/>
</svg>
