<svg width="23" height="23" viewBox="0 0 23 23" fill="none" xmlns="http://www.w3.org/2000/svg">
<path d="M21.2614 8.31712L19.9893 7.04498L20.739 6.26482C20.8171 6.18671 20.8561 6.09884 20.8561 6.00121C20.8561 5.90358 20.8171 5.81572 20.739 5.73763L17.2622 2.26084C17.1841 2.18275 17.0962 2.14371 16.9986 2.14371C16.901 2.14371 16.8131 2.18275 16.735 2.26084L15.9548 3.01055L14.6522 1.70795L15.4488 0.880917C15.8611 0.468586 16.3695 0.267497 16.974 0.277649C17.5784 0.287802 18.0868 0.499044 18.4992 0.911374L22.0884 4.50064C22.5008 4.91297 22.7069 5.41629 22.7069 6.01059C22.7069 6.60489 22.5008 7.10821 22.0884 7.52054L21.2614 8.31712ZM7.52054 22.0884C7.10821 22.5008 6.60489 22.7069 6.01059 22.7069C5.41629 22.7069 4.91297 22.5008 4.50064 22.0884L0.958246 18.546C0.538098 18.1259 0.328025 17.607 0.328025 16.9892C0.328025 16.3715 0.538098 15.8525 0.958246 15.4324L1.70795 14.6827L3.01055 15.9853L2.24211 16.735C2.164 16.8131 2.12494 16.901 2.12494 16.9986C2.12494 17.0962 2.164 17.1841 2.24211 17.2622L5.73763 20.7577C5.81573 20.8358 5.90358 20.8749 6.00121 20.8749C6.09884 20.8749 6.18671 20.8358 6.26482 20.7577L7.01452 19.9893L8.31712 21.2919L7.52054 22.0884ZM19.4949 12.8271L21.0553 11.2668C21.1334 11.1887 21.1724 11.0989 21.1724 10.9974C21.1724 10.8958 21.1334 10.806 21.0553 10.7279L12.2719 1.94455C12.1938 1.86643 12.104 1.82738 12.0025 1.82738C11.9009 1.82738 11.8111 1.86643 11.733 1.94455L10.1727 3.50487C10.0946 3.58296 10.0555 3.67082 10.0555 3.76845C10.0555 3.86609 10.0946 3.95396 10.1727 4.03206L18.9678 12.8271C19.0458 12.9053 19.1337 12.9443 19.2314 12.9443C19.329 12.9443 19.4168 12.9053 19.4949 12.8271ZM11.2364 21.0857L12.7967 19.5067C12.8748 19.4286 12.9139 19.3407 12.9139 19.2431C12.9139 19.1454 12.8748 19.0576 12.7967 18.9795L4.02033 10.2031C3.94224 10.125 3.85438 10.086 3.75675 10.086C3.65913 10.086 3.57126 10.125 3.49314 10.2031L1.91409 11.7635C1.83597 11.8416 1.79692 11.9314 1.79692 12.0329C1.79692 12.1344 1.83597 12.2243 1.91409 12.3024L10.6974 21.0857C10.7756 21.1638 10.8654 21.2029 10.9669 21.2029C11.0684 21.2029 11.1582 21.1638 11.2364 21.0857ZM10.7139 14.3102L14.2985 10.7443L12.2555 8.70134L8.68961 12.2859L10.7139 14.3102ZM12.5272 22.3696C12.1071 22.7897 11.587 22.9998 10.9669 22.9998C10.3468 22.9998 9.82672 22.7897 9.40658 22.3696L0.630222 13.5932C0.210074 13.1731 0 12.653 0 12.0329C0 11.4128 0.210074 10.8927 0.630222 10.4726L2.19055 8.90053C2.6107 8.48038 3.12964 8.27031 3.74737 8.27031C4.36511 8.27031 4.88405 8.48038 5.3042 8.90053L7.38702 10.9834L10.9716 7.39874L8.8888 5.33465C8.46865 4.91451 8.25858 4.39244 8.25858 3.76845C8.25858 3.14448 8.46865 2.62242 8.8888 2.20227L10.4609 0.630222C10.881 0.210075 11.3999 0 12.0177 0C12.6354 0 13.1544 0.210075 13.5745 0.630222L22.3696 9.42531C22.7897 9.84546 22.9998 10.3644 22.9998 10.9821C22.9998 11.5999 22.7897 12.1188 22.3696 12.539L20.7975 14.111C20.3774 14.5312 19.8553 14.7412 19.2314 14.7412C18.6074 14.7412 18.0853 14.5312 17.6652 14.111L15.6011 12.0282L12.0165 15.6128L14.0993 17.6956C14.5194 18.1158 14.7295 18.6347 14.7295 19.2524C14.7295 19.8702 14.5194 20.3891 14.0993 20.8093L12.5272 22.3696Z" fill="#D24CE8"/>
</svg>
