<svg width="41" height="41" viewBox="0 0 41 41" fill="none" xmlns="http://www.w3.org/2000/svg">
<mask id="mask0_0_11" style="mask-type:alpha" maskUnits="userSpaceOnUse" x="-1" y="-2" width="44" height="44">
<rect x="-1" y="-2" width="44" height="44" fill="#D9D9D9"/>
</mask>
<g mask="url(#mask0_0_11)">
<path d="M18.8816 26.0405V31.027C18.8816 31.4987 19.0365 31.8936 19.3464 32.2118C19.6562 32.53 20.0408 32.6891 20.5 32.6891C20.9592 32.6891 21.3438 32.53 21.6536 32.2118C21.9634 31.8936 22.1184 31.4987 22.1184 31.027V26.0405H26.9737C27.4329 26.0405 27.8175 25.8814 28.1273 25.5631C28.4372 25.2449 28.5921 24.85 28.5921 24.3783C28.5921 23.9067 28.4372 23.5118 28.1273 23.1935C27.8175 22.8753 27.4329 22.7162 26.9737 22.7162H22.1184V17.7297C22.1184 17.258 21.9634 16.8631 21.6536 16.5449C21.3438 16.2267 20.9592 16.0675 20.5 16.0675C20.0408 16.0675 19.6562 16.2267 19.3464 16.5449C19.0365 16.8631 18.8816 17.258 18.8816 17.7297V22.7162H14.0263C13.5671 22.7162 13.1825 22.8753 12.8727 23.1935C12.5628 23.5118 12.4079 23.9067 12.4079 24.3783C12.4079 24.85 12.5628 25.2449 12.8727 25.5631C13.1825 25.8814 13.5671 26.0405 14.0263 26.0405H18.8816ZM3.90084 41C2.81081 41 1.88816 40.6122 1.1329 39.8365C0.377633 39.0608 0 38.1132 0 36.9937V11.763C0 10.6435 0.377633 9.69589 1.1329 8.92021C1.88816 8.14453 2.81081 7.75669 3.90084 7.75669H12.9474V4.00622C12.9474 2.88677 13.325 1.9392 14.0803 1.16352C14.8356 0.38784 15.7582 0 16.8482 0H24.1518C25.2418 0 26.1644 0.38784 26.9197 1.16352C27.675 1.9392 28.0526 2.88677 28.0526 4.00622V7.75669H37.0992C38.1892 7.75669 39.1118 8.14453 39.8671 8.92021C40.6224 9.69589 41 10.6435 41 11.763V36.9937C41 38.1132 40.6224 39.0608 39.8671 39.8365C39.1118 40.6122 38.1892 41 37.0992 41H3.90084ZM3.90084 37.6757H37.0992C37.2652 37.6757 37.4174 37.6047 37.5557 37.4626C37.694 37.3205 37.7632 37.1642 37.7632 36.9937V11.763C37.7632 11.5925 37.694 11.4362 37.5557 11.2941C37.4174 11.152 37.2652 11.081 37.0992 11.081H3.90084C3.73482 11.081 3.58264 11.152 3.44428 11.2941C3.30596 11.4362 3.2368 11.5925 3.2368 11.763V36.9937C3.2368 37.1642 3.30596 37.3205 3.44428 37.4626C3.58264 37.6047 3.73482 37.6757 3.90084 37.6757ZM16.1842 7.75669H24.8158V4.00622C24.8158 3.83572 24.7466 3.67944 24.6083 3.53738C24.47 3.39528 24.3178 3.32423 24.1518 3.32423H16.8482C16.6822 3.32423 16.53 3.39528 16.3917 3.53738C16.2534 3.67944 16.1842 3.83572 16.1842 4.00622V7.75669Z" fill="#0095DA"/>
</g>
</svg>
