<svg width="23" height="22" viewBox="0 0 23 22" fill="none" xmlns="http://www.w3.org/2000/svg">
<path d="M10.4056 13.9731V16.6488C10.4056 16.9019 10.4909 17.1138 10.6617 17.2846C10.8324 17.4553 11.0444 17.5407 11.2974 17.5407C11.5505 17.5407 11.7624 17.4553 11.9332 17.2846C12.1039 17.1138 12.1893 16.9019 12.1893 16.6488V13.9731H14.8651C15.1181 13.9731 15.3301 13.8877 15.5008 13.7169C15.6716 13.5462 15.7569 13.3343 15.7569 13.0812C15.7569 12.8281 15.6716 12.6162 15.5008 12.4454C15.3301 12.2747 15.1181 12.1893 14.8651 12.1893H12.1893V9.51357C12.1893 9.26048 12.1039 9.04857 11.9332 8.87782C11.7624 8.70707 11.5505 8.62169 11.2974 8.62169C11.0444 8.62169 10.8324 8.70707 10.6617 8.87782C10.4909 9.04857 10.4056 9.26048 10.4056 9.51357V12.1893H7.72982C7.47673 12.1893 7.26482 12.2747 7.09407 12.4454C6.92332 12.6162 6.83794 12.8281 6.83794 13.0812C6.83794 13.3343 6.92332 13.5462 7.09407 13.7169C7.26482 13.8877 7.47673 13.9731 7.72982 13.9731H10.4056ZM2.14973 22.0002C1.54902 22.0002 1.04056 21.7921 0.624334 21.3759C0.208111 20.9597 0 20.4512 0 19.8505V6.3119C0 5.71119 0.208111 5.20272 0.624334 4.7865C1.04056 4.37028 1.54902 4.16216 2.14973 4.16216H7.13524V2.1497C7.13524 1.54901 7.34335 1.04056 7.75958 0.624334C8.1758 0.208111 8.68426 0 9.28497 0H13.3099C13.9106 0 14.4191 0.208111 14.8353 0.624334C15.2515 1.04056 15.4596 1.54901 15.4596 2.1497V4.16216H20.4451C21.0459 4.16216 21.5543 4.37028 21.9705 4.7865C22.3868 5.20272 22.5949 5.71119 22.5949 6.3119V19.8505C22.5949 20.4512 22.3868 20.9597 21.9705 21.3759C21.5543 21.7921 21.0459 22.0002 20.4451 22.0002H2.14973ZM2.14973 20.2164H20.4451C20.5366 20.2164 20.6205 20.1783 20.6968 20.1021C20.773 20.0258 20.8111 19.942 20.8111 19.8505V6.3119C20.8111 6.22041 20.773 6.13654 20.6968 6.06029C20.6205 5.98406 20.5366 5.94595 20.4451 5.94595H2.14973C2.05824 5.94595 1.97437 5.98406 1.89812 6.06029C1.8219 6.13654 1.78378 6.22041 1.78378 6.3119V19.8505C1.78378 19.942 1.8219 20.0258 1.89812 20.1021C1.97437 20.1783 2.05824 20.2164 2.14973 20.2164ZM8.91902 4.16216H13.6759V2.1497C13.6759 2.05821 13.6377 1.97435 13.5615 1.89812C13.4853 1.82188 13.4014 1.78375 13.3099 1.78375H9.28497C9.19348 1.78375 9.10961 1.82188 9.03337 1.89812C8.95714 1.97435 8.91902 2.05821 8.91902 2.1497V4.16216Z" fill="#0095DA"/>
</svg>
