<svg width="24" height="22" viewBox="0 0 24 22" fill="none" xmlns="http://www.w3.org/2000/svg">
<path d="M2.53933 20.7197V10.7357L0.779663 10.94C0.47753 11.0127 0.24719 10.9092 0.0886434 10.6295C-0.069879 10.3498 -0.0157853 10.0992 0.250924 9.87763L11.1113 0.348684C11.35 0.116228 11.6447 0 11.9954 0C12.346 0 12.6407 0.116228 12.8794 0.348684L23.7398 9.87763C24.0158 10.1083 24.0722 10.3657 23.909 10.6499C23.7458 10.9341 23.5132 11.0354 23.211 10.9536L21.4514 10.7357V20.7197C21.4514 21.0847 21.3259 21.3893 21.0751 21.6336C20.8242 21.8779 20.5113 22 20.1365 22H3.85423C3.47936 22 3.16649 21.8779 2.91564 21.6336C2.66477 21.3893 2.53933 21.0847 2.53933 20.7197ZM4.72146 19.8752H19.2692V8.82613L11.9954 2.45166L4.72146 8.82613V19.8752ZM11.9954 16.6879C12.7022 16.6879 13.3032 16.4469 13.7984 15.9647C14.2936 15.4825 14.5412 14.8973 14.5412 14.209C14.5412 13.6624 14.385 13.0858 14.0726 12.4792C13.7602 11.8727 13.0678 10.8148 11.9954 9.30563C10.9043 10.842 10.2072 11.9044 9.90414 12.4928C9.60106 13.0812 9.44952 13.6533 9.44952 14.209C9.44952 14.8973 9.69712 15.4825 10.1923 15.9647C10.6875 16.4469 11.2885 16.6879 11.9954 16.6879Z" fill="#265B82"/>
</svg>
