<svg width="26" height="22" viewBox="0 0 26 22" fill="none" xmlns="http://www.w3.org/2000/svg">
<path d="M3.22023 19.5747V9.57704L1.56575 10.9006C1.33681 11.0726 1.09449 11.1406 0.838809 11.1044C0.583125 11.0683 0.371738 10.9325 0.20465 10.6968C0.0375178 10.4612 -0.027245 10.2118 0.0103613 9.94863C0.0479459 9.68547 0.174528 9.46789 0.390107 9.29587L11.5502 0.485032C11.7641 0.323343 11.9943 0.202082 12.2408 0.121249C12.4873 0.0404162 12.7392 0 12.9965 0C13.2539 0 13.5037 0.0404162 13.7461 0.121249C13.9884 0.202082 14.2165 0.323343 14.4304 0.485032L25.623 9.29587C25.8386 9.46789 25.9618 9.68547 25.9928 9.94863C26.0237 10.2118 25.9556 10.4612 25.7885 10.6968C25.6214 10.9187 25.41 11.0477 25.1543 11.0838C24.8986 11.1199 24.663 11.052 24.4474 10.88L22.7729 9.57704V19.5747C22.7729 20.2438 22.5426 20.8153 22.0822 21.2892C21.6218 21.7631 21.0666 22 20.4165 22H5.57659C4.92651 22 4.37126 21.7631 3.91086 21.2892C3.45044 20.8153 3.22023 20.2438 3.22023 19.5747ZM5.57659 19.9876H20.4165C20.5335 19.9876 20.6296 19.9489 20.7048 19.8715C20.78 19.7941 20.8176 19.6952 20.8176 19.5747V8.04711L13.2347 2.1027C13.1678 2.04248 13.0885 2.01237 12.9965 2.01237C12.9046 2.01237 12.8252 2.04248 12.7584 2.1027L5.17547 8.04711V19.5747C5.17547 19.6952 5.21307 19.7941 5.28828 19.8715C5.3635 19.9489 5.4596 19.9876 5.57659 19.9876ZM7.78249 14.4663C8.10168 14.4663 8.37366 14.3506 8.59842 14.1192C8.82319 13.8879 8.93558 13.608 8.93558 13.2795C8.93558 12.9509 8.82319 12.671 8.59842 12.4397C8.37366 12.2083 8.10168 12.0927 7.78249 12.0927C7.4633 12.0927 7.19133 12.2083 6.96656 12.4397C6.74179 12.671 6.6294 12.9509 6.6294 13.2795C6.6294 13.608 6.74179 13.8879 6.96656 14.1192C7.19133 14.3506 7.4633 14.4663 7.78249 14.4663ZM12.9965 14.4663C13.3157 14.4663 13.5877 14.3506 13.8125 14.1192C14.0372 13.8879 14.1496 13.608 14.1496 13.2795C14.1496 12.9509 14.0372 12.671 13.8125 12.4397C13.5877 12.2083 13.3157 12.0927 12.9965 12.0927C12.6774 12.0927 12.4054 12.2083 12.1806 12.4397C11.9558 12.671 11.8435 12.9509 11.8435 13.2795C11.8435 13.608 11.9558 13.8879 12.1806 14.1192C12.4054 14.3506 12.6774 14.4663 12.9965 14.4663ZM18.2106 14.4663C18.5298 14.4663 18.8018 14.3506 19.0265 14.1192C19.2513 13.8879 19.3637 13.608 19.3637 13.2795C19.3637 12.9509 19.2513 12.671 19.0265 12.4397C18.8018 12.2083 18.5298 12.0927 18.2106 12.0927C17.8914 12.0927 17.6194 12.2083 17.3947 12.4397C17.1699 12.671 17.0575 12.9509 17.0575 13.2795C17.0575 13.608 17.1699 13.8879 17.3947 14.1192C17.6194 14.3506 17.8914 14.4663 18.2106 14.4663ZM5.57659 19.9876H5.17547H20.8176H5.57659Z" fill="#EC8145"/>
</svg>
