<svg width="22" height="25" viewBox="0 0 22 25" fill="none" xmlns="http://www.w3.org/2000/svg">
<path d="M1.45371e-07 4.77409V10.5551C-0.000863116 16.6849 3.84309 22.283 9.5663 24.4842C10.0281 24.662 10.5141 24.7501 11.0001 24.7501C11.4861 24.7501 11.9721 24.6611 12.4348 24.4842L13.2929 24.1536C18.5827 22.1189 22.0011 17.0017 22.0002 11.118V4.77409C22.0002 4.29931 21.6247 3.90913 21.1508 3.891C17.9733 3.76756 14.7336 2.51502 11.5215 0.169624C11.2108 -0.0565415 10.7895 -0.0565415 10.4787 0.169624C7.2658 2.51502 4.0261 3.76756 0.849417 3.891C0.375505 3.90913 1.45371e-07 4.29931 1.45371e-07 4.77409ZM1.76789 5.60106C4.84789 5.31015 7.94688 4.09127 11.0001 1.96859C14.0525 4.09127 17.1524 5.31015 20.2324 5.60106V11.118C20.2332 16.2645 17.2603 20.7335 12.6575 22.5031L11.8003 22.8337C11.2841 23.0322 10.7153 23.0322 10.2008 22.8337C5.15607 20.8932 1.76703 15.9589 1.76789 10.5551V5.60106Z" fill="#149647"/>
</svg>
