<svg width="44" height="44" viewBox="0 0 44 44" fill="none" xmlns="http://www.w3.org/2000/svg">
<path d="M4.88867 10.1772V19.1697C4.88733 28.7048 10.8667 37.4127 19.7693 40.8367C20.4877 41.1133 21.2437 41.2503 21.9996 41.2503C22.7556 41.2503 23.5116 41.112 24.2313 40.8367L25.566 40.3224C33.7946 37.1575 39.1119 29.1976 39.1106 20.0452V10.1772C39.1106 9.43866 38.5265 8.83173 37.7893 8.80353C32.8466 8.61151 27.8071 6.66315 22.8107 3.01483C22.3273 2.66302 21.672 2.66302 21.1886 3.01483C16.1908 6.66315 11.1514 8.61151 6.20996 8.80353C5.47278 8.83173 4.88867 9.43866 4.88867 10.1772ZM7.63867 11.4636C12.4297 11.011 17.2502 9.11505 21.9996 5.81317C26.7477 9.11505 31.5696 11.011 36.3606 11.4636V20.0452C36.3619 28.0508 31.7374 35.0024 24.5778 37.7551L23.2444 38.2693C22.4414 38.5782 21.5565 38.5782 20.7562 38.2693C12.9091 35.2508 7.63733 27.5755 7.63867 19.1697V11.4636Z" fill="#149647"/>
<path d="M19.1837 27.6796C19.4415 27.9374 19.7906 28.0824 20.1559 28.0824C20.5211 28.0824 20.8702 27.9374 21.1281 27.6796L29.6802 19.1274C30.2173 18.5903 30.2173 17.7202 29.6802 17.1831C29.1431 16.646 28.2729 16.646 27.7358 17.1831L20.1559 24.7631L16.2632 20.869C15.7261 20.3319 14.856 20.3319 14.3188 20.869C13.7817 21.4061 13.7817 22.2762 14.3188 22.8134L19.1837 27.6796Z" fill="#149647"/>
</svg>
