<svg width="23" height="21" viewBox="0 0 23 21" fill="none" xmlns="http://www.w3.org/2000/svg">
<path d="M4.32116 20.9999C3.89637 20.9999 3.49178 20.8556 3.10736 20.5669C2.72296 20.2782 2.47019 19.9252 2.34905 19.508C1.86294 17.8297 1.46994 16.4077 1.17005 15.2418C0.870159 14.0758 0.633461 13.0707 0.459958 12.2264C0.286456 11.3821 0.166415 10.6454 0.0998376 10.0165C0.0332793 9.38752 0 8.77091 0 8.16664C0 6.54229 0.566135 5.16399 1.6984 4.03174C2.83065 2.89947 4.20895 2.33333 5.8333 2.33333H11.9583C12.4833 1.63333 13.125 1.06944 13.8833 0.641667C14.6416 0.213889 15.4583 0 16.3333 0C16.6549 0 16.9297 0.114052 17.1578 0.342155C17.3859 0.570238 17.4999 0.845066 17.4999 1.16664C17.4999 1.24591 17.4891 1.32331 17.4674 1.39883C17.4457 1.47438 17.4229 1.54954 17.399 1.62432C17.3137 1.85316 17.2314 2.10071 17.1522 2.36696C17.0729 2.6332 16.9989 2.97124 16.9301 3.38109L19.9657 6.41667H21.1121C21.4127 6.41667 21.6636 6.51726 21.8648 6.71846C22.066 6.91963 22.1666 7.17053 22.1666 7.47116V12.7772C22.1666 13.0075 22.1012 13.2124 21.9703 13.3919C21.8394 13.5714 21.6588 13.7023 21.4285 13.7845L18.983 14.59L17.5134 19.4945C17.3728 19.9552 17.117 20.3213 16.7461 20.5927C16.3752 20.8642 15.9534 20.9999 15.4807 20.9999H13.7757C13.1938 20.9999 12.6969 20.7939 12.2848 20.3818C11.8727 19.9697 11.6667 19.4728 11.6667 18.891V18.6666H8.16661V18.891C8.16661 19.4728 7.96057 19.9697 7.54848 20.3818C7.13641 20.7939 6.63946 20.9999 6.05763 20.9999H4.32116ZM4.375 19.25H6.05763C6.16233 19.25 6.24835 19.2163 6.31566 19.149C6.38298 19.0817 6.41664 18.9957 6.41664 18.891V16.9166H13.4166V18.891C13.4166 18.9957 13.4503 19.0817 13.5176 19.149C13.5849 19.2163 13.6709 19.25 13.7757 19.25H15.4807C15.563 19.25 15.6359 19.2275 15.6995 19.1827C15.7631 19.1378 15.8061 19.0742 15.8285 18.9919L17.5583 13.2416L20.4166 12.2791V8.16664H19.25L15.1666 4.0833C15.1666 3.71686 15.1928 3.34143 15.2452 2.95703C15.2975 2.57262 15.376 2.2129 15.4807 1.87787C14.9393 2.02594 14.4491 2.29891 14.0101 2.69678C13.5711 3.09463 13.2469 3.55681 13.0375 4.0833H5.8333C4.70553 4.0833 3.74303 4.48192 2.9458 5.27914C2.14858 6.07636 1.74997 7.03886 1.74997 8.16664C1.74997 8.94891 1.94666 10.2812 2.34004 12.1636C2.7334 14.046 3.28831 16.3146 4.00476 18.9695C4.0272 19.0518 4.07395 19.1191 4.14502 19.1714C4.21607 19.2238 4.29273 19.25 4.375 19.25ZM15.75 9.782C16.0357 9.782 16.2791 9.68142 16.4802 9.48025C16.6814 9.27908 16.782 9.03565 16.782 8.74997C16.782 8.46429 16.6814 8.22087 16.4802 8.0197C16.2791 7.81852 16.0357 7.71794 15.75 7.71794C15.4643 7.71794 15.2209 7.81852 15.0197 8.0197C14.8185 8.22087 14.7179 8.46429 14.7179 8.74997C14.7179 9.03565 14.8185 9.27908 15.0197 9.48025C15.2209 9.68142 15.4643 9.782 15.75 9.782ZM11.375 7.29161C11.6233 7.29161 11.8312 7.20785 11.9987 7.04034C12.1662 6.87282 12.25 6.66492 12.25 6.41664C12.25 6.16835 12.1662 5.96045 11.9987 5.79294C11.8312 5.62543 11.6233 5.54167 11.375 5.54167H7.29161C7.04332 5.54167 6.83542 5.62543 6.66791 5.79294C6.50039 5.96045 6.41664 6.16835 6.41664 6.41664C6.41664 6.66492 6.50039 6.87282 6.66791 7.04034C6.83542 7.20785 7.04332 7.29161 7.29161 7.29161H11.375Z" fill="#41B8B1"/>
</svg>
