<svg width="35" height="33" viewBox="0 0 35 33" fill="none" xmlns="http://www.w3.org/2000/svg">
<mask id="mask0_0_6" style="mask-type:alpha" maskUnits="userSpaceOnUse" x="-5" y="-5" width="45" height="45">
<rect x="-4.58301" y="-4.58203" width="44" height="44" fill="#D9D9D9"/>
</mask>
<g mask="url(#mask0_0_6)">
<path d="M6.79039 32.9999C6.12288 32.9999 5.48708 32.7731 4.88299 32.3194C4.27894 31.8658 3.88173 31.3111 3.69137 30.6554C2.92748 28.0182 2.30991 25.7835 1.83865 23.9514C1.36739 22.1192 0.995439 20.5397 0.722792 19.2129C0.450145 17.8861 0.26151 16.7285 0.156888 15.7402C0.052296 14.7518 0 13.7829 0 12.8333C0 10.2807 0.88964 8.11484 2.66892 6.33559C4.44817 4.55631 6.61407 3.66667 9.16662 3.66667H18.7917C19.6167 2.56667 20.625 1.68056 21.8167 1.00833C23.0083 0.336111 24.2916 0 25.6666 0C26.172 0 26.6038 0.179224 26.9622 0.537672C27.3207 0.896088 27.4999 1.32796 27.4999 1.83329C27.4999 1.95786 27.4829 2.07949 27.4488 2.19817C27.4147 2.31688 27.3789 2.43499 27.3412 2.55251C27.2073 2.91211 27.078 3.30112 26.9534 3.71951C26.8289 4.13788 26.7125 4.66909 26.6044 5.31314L31.3746 10.0833H33.1762C33.6486 10.0833 34.0429 10.2414 34.359 10.5576C34.6752 10.8737 34.8332 11.268 34.8332 11.7404V20.0784C34.8332 20.4404 34.7304 20.7624 34.5247 21.0445C34.3191 21.3265 34.0353 21.5322 33.6733 21.6614L29.8304 22.9272L27.521 30.6342C27.3001 31.3581 26.8982 31.9334 26.3153 32.36C25.7324 32.7866 25.0696 32.9999 24.3269 32.9999H21.6475C20.7331 32.9999 19.9522 32.6761 19.3047 32.0286C18.6571 31.381 18.3333 30.6001 18.3333 29.6858V29.3332H12.8332V29.6858C12.8332 30.6001 12.5095 31.381 11.8619 32.0286C11.2144 32.6761 10.4334 32.9999 9.51913 32.9999H6.79039ZM6.875 30.25H9.51913C9.68367 30.25 9.81883 30.1971 9.92461 30.0913C10.0304 29.9855 10.0833 29.8503 10.0833 29.6858V26.5833H21.0833V29.6858C21.0833 29.8503 21.1362 29.9855 21.242 30.0913C21.3477 30.1971 21.4829 30.25 21.6475 30.25H24.3269C24.4562 30.25 24.5707 30.2147 24.6706 30.1442C24.7705 30.0737 24.8381 29.9738 24.8734 29.8445L27.5916 20.8083L32.0833 19.2958V12.8333H30.25L23.8333 6.41662C23.8333 5.84077 23.8744 5.25082 23.9567 4.64677C24.039 4.04269 24.1624 3.47741 24.3269 2.95094C23.476 3.18362 22.7057 3.61257 22.0158 4.2378C21.326 4.86299 20.8165 5.58927 20.4875 6.41662H9.16662C7.3944 6.41662 5.8819 7.04301 4.62912 8.29579C3.37634 9.54857 2.74995 11.0611 2.74995 12.8333C2.74995 14.0626 3.05904 16.1562 3.67721 19.1142C4.29535 22.0722 5.16734 25.6372 6.29319 29.8092C6.32845 29.9385 6.40192 30.0443 6.5136 30.1265C6.62525 30.2088 6.74572 30.25 6.875 30.25ZM24.75 15.3717C25.1989 15.3717 25.5814 15.2137 25.8975 14.8975C26.2137 14.5814 26.3717 14.1989 26.3717 13.75C26.3717 13.301 26.2137 12.9185 25.8975 12.6024C25.5814 12.2863 25.1989 12.1282 24.75 12.1282C24.301 12.1282 23.9185 12.2863 23.6024 12.6024C23.2863 12.9185 23.1282 13.301 23.1282 13.75C23.1282 14.1989 23.2863 14.5814 23.6024 14.8975C23.9185 15.2137 24.301 15.3717 24.75 15.3717ZM17.875 11.4582C18.2652 11.4582 18.5919 11.3266 18.8551 11.0634C19.1183 10.8002 19.25 10.4735 19.25 10.0833C19.25 9.69313 19.1183 9.36643 18.8551 9.10319C18.5919 8.83996 18.2652 8.70833 17.875 8.70833H11.4582C11.0681 8.70833 10.7414 8.83996 10.4781 9.10319C10.2149 9.36643 10.0833 9.69313 10.0833 10.0833C10.0833 10.4735 10.2149 10.8002 10.4781 11.0634C10.7414 11.3266 11.0681 11.4582 11.4582 11.4582H17.875Z" fill="#41B8B1"/>
</g>
</svg>
