<svg width="40" height="40" viewBox="0 0 40 40" fill="none" xmlns="http://www.w3.org/2000/svg">
<rect x="0.5" y="0.5" width="39" height="39" rx="7.5" stroke="#0095DA"/>
<mask id="mask0_1_5629" style="mask-type:alpha" maskUnits="userSpaceOnUse" x="6" y="6" width="28" height="28">
<rect x="6" y="6" width="28" height="28" fill="#D9D9D9"/>
</mask>
<g mask="url(#mask0_1_5629)">
<path d="M19.1248 23.2082V25.8332C19.1248 26.0815 19.2086 26.2894 19.3761 26.4569C19.5436 26.6245 19.7515 26.7082 19.9998 26.7082C20.2481 26.7082 20.456 26.6245 20.6235 26.4569C20.791 26.2894 20.8748 26.0815 20.8748 25.8332V23.2082H23.4998C23.7481 23.2082 23.956 23.1245 24.1235 22.9569C24.291 22.7894 24.3748 22.5815 24.3748 22.3332C24.3748 22.085 24.291 21.8771 24.1235 21.7095C23.956 21.542 23.7481 21.4583 23.4998 21.4583H20.8748V18.8332C20.8748 18.585 20.791 18.3771 20.6235 18.2095C20.456 18.042 20.2481 17.9583 19.9998 17.9583C19.7515 17.9583 19.5436 18.042 19.3761 18.2095C19.2086 18.3771 19.1248 18.585 19.1248 18.8332V21.4583H16.4998C16.2515 21.4583 16.0436 21.542 15.8761 21.7095C15.7086 21.8771 15.6248 22.085 15.6248 22.3332C15.6248 22.5815 15.7086 22.7894 15.8761 22.9569C16.0436 23.1245 16.2515 23.2082 16.4998 23.2082H19.1248ZM11.0255 31.0832C10.4362 31.0832 9.93734 30.8791 9.529 30.4707C9.12067 30.0624 8.9165 29.5636 8.9165 28.9742V15.6923C8.9165 15.1029 9.12067 14.6041 9.529 14.1958C9.93734 13.7874 10.4362 13.5833 11.0255 13.5833H15.9165V11.609C15.9165 11.0197 16.1207 10.5208 16.529 10.1125C16.9373 9.70417 17.4362 9.5 18.0255 9.5H21.9741C22.5635 9.5 23.0623 9.70417 23.4706 10.1125C23.8789 10.5208 24.0831 11.0197 24.0831 11.609V13.5833H28.9741C29.5635 13.5833 30.0623 13.7874 30.4706 14.1958C30.8789 14.6041 31.0831 15.1029 31.0831 15.6923V28.9742C31.0831 29.5636 30.8789 30.0624 30.4706 30.4707C30.0623 30.8791 29.5635 31.0832 28.9741 31.0832H11.0255ZM11.0255 29.3332H28.9741C29.0639 29.3332 29.1462 29.2959 29.221 29.2211C29.2958 29.1463 29.3331 29.064 29.3331 28.9742V15.6923C29.3331 15.6025 29.2958 15.5202 29.221 15.4454C29.1462 15.3706 29.0639 15.3332 28.9741 15.3332H11.0255C10.9357 15.3332 10.8535 15.3706 10.7786 15.4454C10.7039 15.5202 10.6665 15.6025 10.6665 15.6923V28.9742C10.6665 29.064 10.7039 29.1463 10.7786 29.2211C10.8535 29.2959 10.9357 29.3332 11.0255 29.3332ZM17.6665 13.5833H22.3331V11.609C22.3331 11.5192 22.2958 11.4369 22.221 11.3621C22.1462 11.2873 22.0639 11.2499 21.9741 11.2499H18.0255C17.9357 11.2499 17.8535 11.2873 17.7787 11.3621C17.7039 11.4369 17.6665 11.5192 17.6665 11.609V13.5833Z" fill="#0095DA"/>
</g>
</svg>
