<svg width="11" height="16" viewBox="0 0 11 16" fill="none" xmlns="http://www.w3.org/2000/svg">
<path d="M5.45603 15.9998C5.27329 15.9998 5.12026 15.9382 4.99697 15.8149C4.87367 15.6916 4.81203 15.5386 4.81203 15.3558V2.12687L1.06674 5.85893C0.94784 5.97784 0.801976 6.03811 0.629148 6.03976C0.456306 6.04142 0.306034 5.97839 0.178331 5.85069C0.0594437 5.73179 0 5.58235 0 5.40236C0 5.22236 0.0594437 5.07292 0.178331 4.95404L4.91275 0.219613C4.99311 0.139253 5.07788 0.082557 5.16706 0.0495257C5.25622 0.0165087 5.35254 0 5.45603 0C5.55952 0 5.65584 0.0165087 5.74501 0.0495257C5.83418 0.082557 5.91895 0.139253 5.99931 0.219613L10.742 4.96228C10.8609 5.08118 10.9203 5.22843 10.9203 5.40402C10.9203 5.57961 10.8609 5.73125 10.742 5.85893C10.6143 5.99215 10.4613 6.05738 10.2829 6.05463C10.1046 6.05187 9.95156 5.98664 9.82385 5.85893L6.10003 2.13512V15.3558C6.10003 15.5386 6.03839 15.6916 5.91509 15.8149C5.7918 15.9382 5.63878 15.9998 5.45603 15.9998Z" fill="#F35252"/>
</svg>
