<svg width="16" height="25" viewBox="0 0 16 25" fill="none" xmlns="http://www.w3.org/2000/svg">
<path d="M6.02104 21.8177H9.45509C9.59856 21.8177 9.72219 21.7658 9.82598 21.6621C9.92975 21.5583 9.98164 21.4346 9.98164 21.2912C9.98164 21.1477 9.92975 21.0241 9.82598 20.9203C9.72219 20.8165 9.59856 20.7646 9.45509 20.7646H6.02104C5.87757 20.7646 5.75394 20.8165 5.65015 20.9203C5.54638 21.0241 5.49449 21.1477 5.49449 21.2912C5.49449 21.4346 5.54638 21.5583 5.65015 21.6621C5.75394 21.7658 5.87757 21.8177 6.02104 21.8177ZM2.15202 24.9999C1.55067 24.9999 1.04167 24.7916 0.625 24.3749C0.208333 23.9583 0 23.4493 0 22.8479V2.15203C0 1.55068 0.208333 1.04167 0.625 0.625C1.04167 0.208333 1.55067 0 2.15202 0H13.3241C13.9255 0 14.4345 0.208333 14.8511 0.625C15.2678 1.04167 15.4761 1.55068 15.4761 2.15203V22.8479C15.4761 23.4493 15.2678 23.9583 14.8511 24.3749C14.4345 24.7916 13.9255 24.9999 13.3241 24.9999H2.15202ZM1.78568 19.3681V22.8479C1.78568 22.9395 1.82384 23.0235 1.90015 23.0998C1.97648 23.1761 2.06044 23.2143 2.15202 23.2143H13.3241C13.4157 23.2143 13.4997 23.1761 13.576 23.0998C13.6523 23.0235 13.6904 22.9395 13.6904 22.8479V19.3681H1.78568ZM1.78568 17.5824H13.6904V5.05947H1.78568V17.5824ZM1.78568 3.27381H13.6904V2.15203C13.6904 2.06044 13.6523 1.97648 13.576 1.90015C13.4997 1.82384 13.4157 1.78569 13.3241 1.78569H2.15202C2.06044 1.78569 1.97648 1.82384 1.90015 1.90015C1.82384 1.97648 1.78568 2.06044 1.78568 2.15203V3.27381Z" fill="#0095DA"/>
</svg>
