<svg width="36" height="36" viewBox="0 0 36 36" fill="none" xmlns="http://www.w3.org/2000/svg">
<path d="M34.7994 16.5773C34.6724 16.5849 34.5454 16.5985 34.4192 16.5985C29.5746 16.5995 24.73 16.5995 19.8853 16.5985C19.5614 16.5985 19.3994 16.4366 19.3994 16.1127C19.3994 11.2682 19.3994 6.4238 19.3994 1.57941C19.3994 1.4524 19.413 1.32538 19.4207 1.19922C20.1649 1.19922 20.91 1.19922 21.6542 1.19922C22.0199 1.25463 22.3899 1.29383 22.7522 1.36715C28.6368 2.54778 32.467 6.02489 34.2973 11.7243C34.5701 12.575 34.6707 13.4633 34.7994 14.3447V16.5781V16.5773ZM21.3575 8.92237C21.3575 10.6861 21.3575 12.4506 21.3575 14.2143C21.3575 14.4973 21.4957 14.6391 21.7719 14.6397C24.4717 14.6397 27.1706 14.6397 29.8704 14.6397C30.7527 14.6397 31.635 14.6346 32.5165 14.643C32.7415 14.6448 32.8361 14.5706 32.7851 14.343C32.7688 14.2706 32.7586 14.1964 32.7492 14.1231C32.4202 11.3944 31.3051 9.02715 29.4134 7.04271C27.3436 4.87156 24.8101 3.59543 21.8221 3.24337C21.3567 3.18881 21.3575 3.18455 21.3575 3.66277C21.3575 5.41625 21.3575 7.16968 21.3575 8.92319V8.92237Z" fill="white"/>
<path d="M17.6888 12.2614C17.6888 14.3868 17.6888 16.5115 17.6888 18.6369C17.6888 18.9238 17.8374 19.0675 18.1347 19.0681C22.5613 19.0681 26.9871 19.0681 31.4137 19.0681C32.0488 19.0681 31.977 19.0194 31.9942 19.6375C32.0715 22.4488 31.4001 25.0854 29.8906 27.4994C27.4611 31.3861 23.9107 33.8115 19.2356 34.5817C11.0247 35.9352 3.17771 30.8149 1.53806 23.0182C0.547182 18.3057 1.74188 14.0626 5.04209 10.4193C7.48969 7.71754 10.6198 6.13802 14.304 5.55565C15.3267 5.3939 16.3595 5.39649 17.3922 5.39909C17.7142 5.39909 17.6888 5.58774 17.6879 5.78771C17.6879 7.94533 17.6879 10.103 17.6879 12.2606L17.6888 12.2614ZM23.4366 21.0666C21.4394 21.0666 19.4421 21.0701 17.445 21.0623C17.1992 21.0614 17.0209 21.1266 16.8453 21.2943C13.9855 24.0353 11.122 26.7736 8.25041 29.5032C8.02924 29.7135 8.07386 29.8048 8.29222 29.9674C11.2203 32.1572 14.5278 33.0952 18.2247 32.6771C21.8525 32.2658 24.7878 30.6342 27.048 27.9106C28.5994 26.0416 29.5102 23.9058 29.7877 21.5291C29.8414 21.0666 29.8496 21.0666 29.36 21.0666C27.3856 21.0666 25.4111 21.0666 23.4366 21.0666ZM3.31327 20.0547C3.32966 20.2494 3.35332 20.4433 3.36151 20.638C3.47615 23.4198 4.49251 25.8738 6.28497 28.0532C6.46608 28.2731 6.56522 28.2792 6.77272 28.0801C9.46969 25.4905 12.173 22.906 14.8853 20.3311C15.1174 20.1112 15.0883 19.9983 14.8754 19.7948C12.1966 17.2486 9.52702 14.6938 6.85556 12.1406C6.53525 11.8346 6.53341 11.8337 6.24675 12.1771C4.326 14.4816 3.36697 17.113 3.31327 20.0539V20.0547ZM15.5624 17.5546C15.5742 17.532 15.5923 17.5138 15.5923 17.4964C15.5942 14.2347 15.5942 10.9722 15.5996 7.71058C15.5996 7.46638 15.4614 7.45413 15.2684 7.475C12.7171 7.75232 10.4223 8.63297 8.39602 10.1438C8.15457 10.3234 8.14002 10.5149 8.35227 10.7184C10.6698 12.9334 12.9882 15.1475 15.3076 17.3608C15.3831 17.4329 15.4377 17.5381 15.5632 17.5546H15.5624Z" fill="white"/>
</svg>
