<svg width="34" height="31" viewBox="0 0 34 31" fill="none" xmlns="http://www.w3.org/2000/svg">
<path d="M3.20221 30.9998C2.3074 30.9998 1.55 30.6898 0.93 30.0698C0.31 29.4498 0 28.6924 0 27.7976V9.40213C0 8.50732 0.31 7.74991 0.93 7.12991C1.55 6.50991 2.3074 6.19991 3.20221 6.19991H10.6286V3.20217C10.6286 2.30739 10.9386 1.55 11.5586 0.93C12.1786 0.31 12.936 0 13.8308 0H19.8263C20.7211 0 21.4785 0.31 22.0985 0.93C22.7185 1.55 23.0285 2.30739 23.0285 3.20217V6.19991H30.4548C31.3497 6.19991 32.1071 6.50991 32.7271 7.12991C33.3471 7.74991 33.6571 8.50732 33.6571 9.40213V27.7976C33.6571 28.6924 33.3471 29.4498 32.7271 30.0698C32.1071 30.6898 31.3497 30.9998 30.4548 30.9998H3.20221ZM3.20221 28.3427H30.4548C30.5911 28.3427 30.7161 28.286 30.8296 28.1724C30.9432 28.0588 31 27.9339 31 27.7976V9.40213C31 9.26584 30.9432 9.14091 30.8296 9.02733C30.7161 8.91379 30.5911 8.85701 30.4548 8.85701H3.20221C3.06593 8.85701 2.941 8.91379 2.82742 9.02733C2.71387 9.14091 2.6571 9.26584 2.6571 9.40213V27.7976C2.6571 27.9339 2.71387 28.0588 2.82742 28.1724C2.941 28.286 3.06593 28.3427 3.20221 28.3427ZM13.2857 6.19991H20.3714V3.20217C20.3714 3.06589 20.3146 2.94097 20.2011 2.82742C20.0875 2.71384 19.9626 2.65705 19.8263 2.65705H13.8308C13.6945 2.65705 13.5696 2.71384 13.456 2.82742C13.3424 2.94097 13.2857 3.06589 13.2857 3.20217V6.19991Z" fill="#7BC282"/>
</svg>
