<svg width="20" height="23" viewBox="0 0 20 23" fill="none" xmlns="http://www.w3.org/2000/svg">
<path d="M2.12664 22.9403C1.53993 22.9403 1.03882 22.7325 0.623303 22.317C0.207767 21.9015 0 21.4004 0 20.8137V7.42052C0 6.83382 0.207767 6.3327 0.623303 5.91719C1.03882 5.50165 1.53993 5.29389 2.12664 5.29389H4.70573C4.70573 3.82487 5.22079 2.57531 6.25091 1.54519C7.28106 0.515062 8.53063 0 9.99964 0C11.4687 0 12.7182 0.515062 13.7484 1.54519C14.7785 2.57531 15.2936 3.82487 15.2936 5.29389H17.8726C18.4594 5.29389 18.9605 5.50165 19.376 5.91719C19.7915 6.3327 19.9993 6.83382 19.9993 7.42052V20.8137C19.9993 21.4004 19.7915 21.9015 19.376 22.317C18.9605 22.7325 18.4594 22.9403 17.8726 22.9403H2.12664ZM2.12664 21.1757H17.8726C17.9632 21.1757 18.0461 21.138 18.1216 21.0626C18.197 20.9871 18.2347 20.9042 18.2347 20.8137V7.42052C18.2347 7.33002 18.197 7.24705 18.1216 7.17162C18.0461 7.09621 17.9632 7.0585 17.8726 7.0585H2.12664C2.03613 7.0585 1.95316 7.09621 1.87773 7.17162C1.80232 7.24705 1.76462 7.33002 1.76462 7.42052V20.8137C1.76462 20.9042 1.80232 20.9871 1.87773 21.0626C1.95316 21.138 2.03613 21.1757 2.12664 21.1757ZM6.47035 5.29389H13.5289C13.5289 4.31353 13.1858 3.48022 12.4996 2.79397C11.8133 2.10771 10.98 1.76459 9.99964 1.76459C9.01928 1.76459 8.18598 2.10771 7.49972 2.79397C6.81347 3.48022 6.47035 4.31353 6.47035 5.29389ZM9.98156 13.5289C11.3118 13.5289 12.5067 13.0786 13.5662 12.1782C14.6258 11.2778 15.1495 10.256 15.1374 9.1127C15.1374 8.86988 15.056 8.66289 14.8931 8.49172C14.7302 8.32053 14.5236 8.23494 14.2732 8.23494C14.0666 8.23494 13.8819 8.3062 13.719 8.44872C13.5561 8.59125 13.4407 8.78996 13.3729 9.04485C13.2024 9.84271 12.7959 10.4954 12.1534 11.0029C11.5109 11.5105 10.787 11.7642 9.98156 11.7642C9.17613 11.7642 8.44915 11.5105 7.80063 11.0029C7.15208 10.4954 6.74862 9.84271 6.59025 9.04485C6.52237 8.7779 6.41303 8.57617 6.26221 8.43966C6.11139 8.30318 5.93267 8.23494 5.72605 8.23494C5.47568 8.23494 5.26604 8.32053 5.09713 8.49172C4.92821 8.66289 4.84375 8.86988 4.84375 9.1127C4.84375 10.256 5.36748 11.2778 6.41494 12.1782C7.46241 13.0786 8.65129 13.5289 9.98156 13.5289Z" fill="#A8C13D"/>
</svg>
