<svg width="11" height="16" viewBox="0 0 11 16" fill="none" xmlns="http://www.w3.org/2000/svg">
<path d="M5.45603 15.9998C5.35254 15.9998 5.25622 15.9833 5.16706 15.9503C5.07788 15.9173 4.99311 15.8606 4.91275 15.7802L0.178331 11.0458C0.0594437 10.9269 0 10.7775 0 10.5975C0 10.4175 0.0594437 10.268 0.178331 10.1491C0.306034 10.0214 0.456306 9.95842 0.629148 9.96006C0.801976 9.96172 0.94784 10.022 1.06674 10.1409L4.81203 13.873V0.644004C4.81203 0.461259 4.87367 0.308237 4.99697 0.184942C5.12026 0.0616473 5.27329 0 5.45603 0C5.63878 0 5.7918 0.0616473 5.91509 0.184942C6.03839 0.308237 6.10003 0.461259 6.10003 0.644004V13.8647L9.82385 10.1409C9.95156 10.0132 10.1046 9.94796 10.2829 9.94521C10.4613 9.94246 10.6143 10.0077 10.742 10.1409C10.8609 10.2686 10.9203 10.4202 10.9203 10.5958C10.9203 10.7714 10.8609 10.9187 10.742 11.0375L5.99931 15.7802C5.91895 15.8606 5.83418 15.9173 5.74501 15.9503C5.65584 15.9833 5.55952 15.9998 5.45603 15.9998Z" fill="#34CC83"/>
</svg>
