<svg width="44" height="44" viewBox="0 0 44 44" fill="none" xmlns="http://www.w3.org/2000/svg">
<path d="M18.0664 37.9421C14.3339 31.316 15.8966 22.9773 21.7823 18.116C21.7857 18.1132 21.7892 18.1098 21.7919 18.1077L21.7665 18.171L21.7706 18.2184C20.6239 21.2475 20.7847 24.573 22.1934 27.4261L23.1862 29.4377L23.4907 27.215C23.6977 25.7073 24.2662 24.2691 25.1421 23.0378H25.2803L25.3532 22.8315C25.3429 25.1353 25.8282 27.4048 26.7804 29.5456C28.0296 32.3472 27.8461 35.5778 26.2889 38.1889L25.2143 39.9915L27.1476 39.1748C30.3355 37.828 32.8841 35.2333 34.1401 32.0564C35.5474 28.5089 35.2869 24.3956 33.4423 21.0557C32.4805 19.3184 31.8067 17.4738 31.4389 15.5722L31.0794 13.7084L30.1622 15.3708C29.7243 16.1635 29.4019 17.0215 29.2018 17.9228L29.1812 17.9441L29.1599 18.0885L29.1399 18.0823C26.3927 14.4323 24.7468 9.89071 24.5069 5.29202L24.445 4.10059L23.4454 4.75234C19.3657 7.4109 16.5326 11.6761 15.6574 16.4687L15.6374 16.567L15.6271 16.5821L15.5824 16.5189C14.7829 15.4629 14.3607 14.2068 14.3607 12.8848V10.8374L13.1253 12.4695C10.2529 16.2631 8.7803 20.9691 8.9783 25.7211C9.22168 31.3146 12.2721 36.224 17.1389 38.884L19.2461 40.0355L18.0664 37.9421Z" fill="#70C054"/>
</svg>
