<svg width="44" height="44" viewBox="0 0 44 44" fill="none" xmlns="http://www.w3.org/2000/svg">
<path d="M14.509 38C12.6463 38 11.3443 37.6355 10.6031 36.9064C9.86177 36.1773 8.83339 35.8127 7.51791 35.8127C6.57446 35.8127 5.81092 36.0216 5.22732 36.4394C4.64372 36.8573 3.93815 37.2415 3.11061 37.592C2.57148 37.8135 2.08493 37.749 1.65096 37.3985C1.21699 37.048 1 36.5587 1 35.9305C1 35.6277 1.1031 35.3431 1.30929 35.0767C1.51552 34.8103 1.79652 34.5958 2.15231 34.4331C2.93405 34.1275 3.65108 33.7342 4.3034 33.2533C4.95576 32.7724 6.00974 32.5319 7.46535 32.5319C9.36306 32.5319 10.6859 32.8965 11.4339 33.6255C12.182 34.3546 13.1895 34.7192 14.4564 34.7192C15.8285 34.7192 16.8723 34.3546 17.588 33.6255C18.3037 32.8965 19.6077 32.5319 21.5 32.5319C23.3923 32.5319 24.6963 32.8965 25.412 33.6255C26.1277 34.3546 27.1715 34.7192 28.5436 34.7192C29.8105 34.7192 30.818 34.3546 31.5661 33.6255C32.3141 32.8965 33.6369 32.5319 35.5347 32.5319C37.0307 32.5319 38.0881 32.7654 38.7067 33.2323C39.3253 33.6991 40.039 34.0994 40.8477 34.4331C41.2035 34.5958 41.4845 34.8138 41.6907 35.0872C41.8969 35.3606 42 35.6487 42 35.9516C42 36.5797 41.7884 37.0655 41.3652 37.409C40.942 37.7525 40.4609 37.8247 39.9218 37.6256C39.0726 37.2975 38.3529 36.9133 37.7626 36.4731C37.1723 36.0329 36.4121 35.8127 35.4821 35.8127C34.1666 35.8127 33.1382 36.1773 32.3969 36.9064C31.6557 37.6355 30.3537 38 28.491 38C26.5718 38 25.2765 37.6355 24.6053 36.9064C23.9341 36.1773 22.899 35.8127 21.5 35.8127C20.101 35.8127 19.0659 36.1773 18.3947 36.9064C17.7235 37.6355 16.4282 38 14.509 38ZM9.1677 29.251C8.39405 29.251 7.65209 29.1044 6.94181 28.8114C6.23153 28.5184 5.60547 28.083 5.06364 27.5054L3.6444 26.0079C3.3533 25.7051 3.20572 25.3301 3.20165 24.8828C3.19762 24.4355 3.35195 24.0493 3.66464 23.724C3.95574 23.4211 4.3129 23.2641 4.73611 23.2529C5.15932 23.2417 5.52727 23.3875 5.83996 23.6903L7.27938 25.1667C7.53007 25.4275 7.81716 25.6266 8.14064 25.764C8.46412 25.9014 8.80647 25.9701 9.1677 25.9701H12.0385V17.7889L10.5101 18.9793C10.1408 19.2457 9.75533 19.3473 9.35367 19.2842C8.95204 19.2211 8.61645 18.9975 8.3469 18.6134C8.07735 18.2292 7.96751 17.8282 8.01738 17.4104C8.06724 16.9926 8.27682 16.6435 8.6461 16.363L20.3598 7.36172C20.5215 7.22993 20.7028 7.1367 20.9036 7.08202C21.1044 7.02734 21.3032 7 21.5 7C21.6968 7 21.8956 7.02734 22.0964 7.08202C22.2972 7.1367 22.4785 7.22993 22.6402 7.36172L34.3337 16.3421C34.7029 16.6225 34.9179 16.9751 34.9786 17.3999C35.0392 17.8247 34.9348 18.2292 34.6652 18.6134C34.3957 18.9975 34.0493 19.2246 33.6261 19.2947C33.2029 19.3648 32.8066 19.2597 32.4374 18.9793L30.9615 17.8436V25.9701H33.8323C34.1935 25.9701 34.5359 25.9014 34.8594 25.764C35.1828 25.6266 35.4699 25.4275 35.7206 25.1667L37.16 23.6903C37.4512 23.3875 37.8117 23.2361 38.2417 23.2361C38.6716 23.2361 39.0429 23.3987 39.3556 23.724C39.6467 24.0268 39.7922 24.4075 39.7922 24.866C39.7922 25.3244 39.6467 25.7051 39.3556 26.0079L37.9364 27.4843C37.3811 28.062 36.7517 28.5008 36.0481 28.8009C35.3445 29.1009 34.6059 29.251 33.8323 29.251H9.1677ZM15.1923 25.9701H19.9231V21.5956H23.0769V25.9701H27.8077V15.4166L21.5 10.5836L15.1923 15.3956V25.9701Z" fill="#8662D3"/>
</svg>
