<svg width="25" height="19" viewBox="0 0 25 19" fill="none" xmlns="http://www.w3.org/2000/svg">
<path d="M8.23717 19C7.1014 19 6.30752 18.7766 5.85553 18.3297C5.40352 17.8829 4.77645 17.6594 3.97434 17.6594C3.39906 17.6594 2.93349 17.7875 2.57763 18.0435C2.22178 18.2996 1.79155 18.5351 1.28696 18.7499C0.958219 18.8857 0.66154 18.8462 0.396924 18.6313C0.132308 18.4165 0 18.1166 0 17.7316C0 17.546 0.0628635 17.3716 0.18859 17.2083C0.314339 17.045 0.485685 16.9135 0.70263 16.8139C1.1793 16.6265 1.61651 16.3855 2.01427 16.0907C2.41205 15.796 3.05472 15.6486 3.94229 15.6486C5.09943 15.6486 5.90605 15.872 6.36216 16.3189C6.81828 16.7657 7.43259 16.9892 8.20512 16.9892C9.04174 16.9892 9.67825 16.7657 10.1146 16.3189C10.551 15.872 11.3462 15.6486 12.5 15.6486C13.6538 15.6486 14.449 15.872 14.8854 16.3189C15.3217 16.7657 15.9583 16.9892 16.7949 16.9892C17.5674 16.9892 18.1817 16.7657 18.6378 16.3189C19.0939 15.872 19.9006 15.6486 21.0577 15.6486C21.9699 15.6486 22.6147 15.7917 22.9919 16.0778C23.3691 16.364 23.8043 16.6093 24.2974 16.8139C24.5143 16.9135 24.6857 17.0472 24.8114 17.2148C24.9371 17.3823 25 17.5589 25 17.7445C25 18.1295 24.871 18.4272 24.6129 18.6378C24.3549 18.8483 24.0615 18.8926 23.7328 18.7705C23.215 18.5694 22.7762 18.334 22.4162 18.0642C22.0563 17.7943 21.5927 17.6594 21.0257 17.6594C20.2235 17.6594 19.5965 17.8829 19.1445 18.3297C18.6925 18.7766 17.8986 19 16.7628 19C15.5926 19 14.8028 18.7766 14.3935 18.3297C13.9842 17.8829 13.3531 17.6594 12.5 17.6594C11.6469 17.6594 11.0158 17.8829 10.6065 18.3297C10.1972 18.7766 9.40745 19 8.23717 19ZM4.9803 13.6377C4.50857 13.6377 4.05615 13.5479 3.62305 13.3683C3.18995 13.1887 2.80821 12.9219 2.47783 12.5678L1.61244 11.65C1.43494 11.4644 1.34495 11.2345 1.34247 10.9604C1.34001 10.6863 1.43412 10.4496 1.62478 10.2502C1.80228 10.0646 2.02006 9.96832 2.27811 9.96146C2.53617 9.95458 2.76053 10.0439 2.95119 10.2295L3.82889 11.1344C3.98175 11.2943 4.15681 11.4163 4.35405 11.5005C4.55129 11.5848 4.76004 11.6269 4.9803 11.6269H6.73079V6.61256L5.79883 7.34214C5.57366 7.50542 5.33861 7.56773 5.0937 7.52905C4.8488 7.49037 4.64418 7.35331 4.47982 7.11786C4.31546 6.88241 4.24848 6.63665 4.27889 6.38058C4.3093 6.12448 4.43708 5.9105 4.66226 5.73864L11.8047 0.221698C11.9034 0.140928 12.0139 0.0837861 12.1363 0.0502716C12.2588 0.0167572 12.38 0 12.5 0C12.62 0 12.7412 0.0167572 12.8637 0.0502716C12.9861 0.0837861 13.0966 0.140928 13.1953 0.221698L20.3254 5.72577C20.5506 5.89763 20.6817 6.11375 20.7186 6.37411C20.7556 6.63449 20.6919 6.88241 20.5276 7.11786C20.3632 7.35331 20.152 7.49252 19.894 7.53548C19.6359 7.57845 19.3943 7.514 19.1691 7.34214L18.2692 6.64608V11.6269H20.0197C20.24 11.6269 20.4487 11.5848 20.646 11.5005C20.8432 11.4163 21.0182 11.2943 21.1711 11.1344L22.0488 10.2295C22.2263 10.0439 22.4462 9.95114 22.7083 9.95114C22.9705 9.95114 23.1969 10.0508 23.3876 10.2502C23.5651 10.4358 23.6538 10.6691 23.6538 10.9501C23.6538 11.2311 23.5651 11.4644 23.3876 11.65L22.5222 12.5549C22.1836 12.909 21.7998 13.1779 21.3708 13.3618C20.9418 13.5457 20.4914 13.6377 20.0197 13.6377H4.9803ZM8.65384 11.6269H11.5385V8.9457H13.4615V11.6269H16.3462V5.15857L12.5 2.1964L8.65384 5.14567V11.6269Z" fill="#8662D3"/>
</svg>
