<svg width="21" height="27" viewBox="0 0 21 27" fill="none" xmlns="http://www.w3.org/2000/svg">
<path d="M10.5 26.0909C7.59063 26.0909 5.11328 25.0394 3.06797 22.9365C1.02266 20.8336 0 18.2735 0 15.2562C0 13.8162 0.272383 12.4387 0.817148 11.1239C1.36189 9.80897 2.11438 8.64249 3.07462 7.6244L10.5 0L17.9254 7.6244C18.8856 8.64249 19.6381 9.80917 20.1828 11.1244C20.7276 12.4397 21 13.8178 21 15.2589C21 18.2782 19.9773 20.8384 17.932 22.9394C15.8867 25.0404 13.4094 26.0909 10.5 26.0909ZM2.09997 15.2629H18.9C18.9 14.1152 18.69 13.0207 18.27 11.9795C17.85 10.9383 17.2434 10.0257 16.45 9.24168L10.5 3.08803L4.54998 9.24168C3.75664 10.0257 3.14998 10.9383 2.72997 11.9795C2.30997 13.0207 2.09997 14.1152 2.09997 15.2629Z" fill="#3D74B6"/>
</svg>
